<svg xmlns="http://www.w3.org/2000/svg" width="114.517" height="114.517" viewBox="0 0 114.517 114.517"><g transform="translate(-2 -2)"><path d="M114.861,72.881l-4.773-1.115a32.345,32.345,0,0,0-.966-3.609l3.556-3.334a1.911,1.911,0,0,0,.435-2.18,38.273,38.273,0,0,0-3.8-6.568,1.906,1.906,0,0,0-2.105-.71l-4.626,1.4a32.383,32.383,0,0,0-2.661-2.659l1.409-4.625a1.909,1.909,0,0,0-.71-2.1q-1.54-1.111-3.184-2.063V11.543A9.554,9.554,0,0,0,87.888,2H11.543A9.554,9.554,0,0,0,2,11.543V61.167a9.554,9.554,0,0,0,9.543,9.543h20.18L25.476,87.888H15.36A1.908,1.908,0,0,0,13.452,89.8a9.554,9.554,0,0,0,9.543,9.543H46.557c.279.422.529.863.825,1.273a1.9,1.9,0,0,0,2.105.71l4.626-1.4a32.383,32.383,0,0,0,2.661,2.659L55.365,107.2a1.909,1.909,0,0,0,.71,2.1,38.011,38.011,0,0,0,6.569,3.806,1.9,1.9,0,0,0,2.18-.435l3.332-3.558a31.941,31.941,0,0,0,3.611.966l1.115,4.775a1.909,1.909,0,0,0,1.672,1.466c1.286.128,2.563.193,3.791.193s2.5-.065,3.792-.191a1.909,1.909,0,0,0,1.672-1.466l1.115-4.775a32.049,32.049,0,0,0,3.611-.966l3.332,3.558a1.907,1.907,0,0,0,2.18.435,38.161,38.161,0,0,0,6.566-3.806,1.909,1.909,0,0,0,.712-2.105l-1.407-4.627a32.683,32.683,0,0,0,2.661-2.659l4.626,1.407a1.911,1.911,0,0,0,2.105-.71,38.253,38.253,0,0,0,3.8-6.568,1.906,1.906,0,0,0-.435-2.18l-3.556-3.334a32.267,32.267,0,0,0,.966-3.611l4.773-1.115a1.907,1.907,0,0,0,1.466-1.67c.124-1.283.189-2.559.189-3.791s-.065-2.508-.193-3.794a1.905,1.905,0,0,0-1.464-1.67ZM11.543,5.817H87.888a5.733,5.733,0,0,1,5.726,5.726V43.457a1.9,1.9,0,0,0-1.746.554l-3.332,3.558a31.942,31.942,0,0,0-3.611-.966l-1.115-4.775a1.909,1.909,0,0,0-1.672-1.466,37.887,37.887,0,0,0-7.587,0,1.909,1.909,0,0,0-1.672,1.466L71.764,46.6a32.05,32.05,0,0,0-3.611.966L64.82,44.011a1.912,1.912,0,0,0-2.18-.435,38.162,38.162,0,0,0-6.566,3.806,1.909,1.909,0,0,0-.712,2.105l.653,2.138H17.269v-22.9H36.355V24.9H17.269V13.452H82.162v22.9h3.817V11.543a1.908,1.908,0,0,0-1.909-1.909H15.36a1.908,1.908,0,0,0-1.909,1.909V51.624H5.817V11.543a5.733,5.733,0,0,1,5.726-5.726Zm43.9,49.624c-.443.443-.914.861-1.33,1.328l-4.373-1.328ZM5.817,61.167V55.441H48.206a1.882,1.882,0,0,0-.825.634,38.253,38.253,0,0,0-3.8,6.568,1.906,1.906,0,0,0,.435,2.18l2.21,2.071H11.543a5.733,5.733,0,0,1-5.726-5.726ZM35.783,70.71h11.07c-.086.351-.178.7-.25,1.055l-4.773,1.115a1.907,1.907,0,0,0-1.466,1.67c-.126,1.286-.191,2.563-.191,3.794s.065,2.506.193,3.794a1.907,1.907,0,0,0,1.466,1.67L46.6,84.924c.206,1,.492,1.985.792,2.964H29.538ZM22.995,95.522a5.737,5.737,0,0,1-5.4-3.817H44.184l-.174.162a1.911,1.911,0,0,0-.435,2.18c.227.5.51.983.76,1.475Zm89.64-15.112L108,81.492a1.908,1.908,0,0,0-1.449,1.548,28.5,28.5,0,0,1-1.435,5.365,1.908,1.908,0,0,0,.483,2.063l3.447,3.231a34.306,34.306,0,0,1-2.067,3.569L102.495,95.9a1.9,1.9,0,0,0-2.029.613,28.811,28.811,0,0,1-3.949,3.949,1.91,1.91,0,0,0-.613,2.029l1.365,4.487a34.927,34.927,0,0,1-3.569,2.069L90.47,105.6a1.906,1.906,0,0,0-2.063-.481,28.54,28.54,0,0,1-5.367,1.435A1.908,1.908,0,0,0,81.492,108l-1.08,4.632a33.134,33.134,0,0,1-4.13,0L75.2,108a1.906,1.906,0,0,0-1.548-1.449,28.724,28.724,0,0,1-5.367-1.435,1.907,1.907,0,0,0-2.063.481l-3.229,3.449a34.152,34.152,0,0,1-3.571-2.069l1.367-4.485a1.914,1.914,0,0,0-.613-2.029,28.811,28.811,0,0,1-3.949-3.949,1.908,1.908,0,0,0-2.029-.613l-4.487,1.363A34.523,34.523,0,0,1,47.643,93.7l3.449-3.231a1.908,1.908,0,0,0,.483-2.063,28.561,28.561,0,0,1-1.435-5.367,1.905,1.905,0,0,0-1.449-1.548l-4.632-1.082c-.046-.7-.069-1.389-.069-2.063s.023-1.365.065-2.065L48.687,75.2a1.908,1.908,0,0,0,1.449-1.548,28.426,28.426,0,0,1,1.435-5.365,1.908,1.908,0,0,0-.481-2.065l-3.449-3.231a34.505,34.505,0,0,1,2.067-3.569L54.2,60.782a1.913,1.913,0,0,0,2.029-.613,28.918,28.918,0,0,1,3.949-3.949,1.91,1.91,0,0,0,.613-2.029L59.421,49.7a34.928,34.928,0,0,1,3.569-2.069l3.229,3.449a1.907,1.907,0,0,0,2.063.481A28.54,28.54,0,0,1,73.65,50.13,1.908,1.908,0,0,0,75.2,48.681l1.08-4.632a33.134,33.134,0,0,1,4.13,0l1.08,4.632a1.906,1.906,0,0,0,1.548,1.449A28.725,28.725,0,0,1,88.4,51.565a1.913,1.913,0,0,0,2.063-.481L93.7,47.635A34.152,34.152,0,0,1,97.267,49.7L95.9,54.189a1.914,1.914,0,0,0,.613,2.029,28.81,28.81,0,0,1,3.949,3.949,1.9,1.9,0,0,0,2.029.613l4.487-1.363a34.521,34.521,0,0,1,2.069,3.569L105.6,66.217a1.908,1.908,0,0,0-.483,2.063,28.56,28.56,0,0,1,1.435,5.367A1.905,1.905,0,0,0,108,75.2l4.632,1.082c.046.7.069,1.393.069,2.067s-.023,1.365-.065,2.065Z" transform="translate(0)" fill="#279357"/><path d="M52.887,11.293l-2.7,2.7,4.376,4.376H30.543A9.554,9.554,0,0,0,21,27.911V39.363h3.817V27.911a5.733,5.733,0,0,1,5.726-5.726H54.565l-4.376,4.376,2.7,2.7,7.634-7.634a1.906,1.906,0,0,0,0-2.7Z" transform="translate(17.264 8.444)" fill="#279357"/><path d="M12,10h3.817v3.817H12Z" transform="translate(9.086 7.269)" fill="#279357"/><path d="M16,10h3.817v3.817H16Z" transform="translate(12.721 7.269)" fill="#279357"/><path d="M20,10h3.817v3.817H20Z" transform="translate(16.355 7.269)" fill="#279357"/></g></svg>