<svg xmlns="http://www.w3.org/2000/svg" width="114.517" height="114.517" viewBox="0 0 114.517 114.517"><g transform="translate(-2 -2)"><path d="M114.861,72.881l-4.773-1.115a32.345,32.345,0,0,0-.966-3.609l3.556-3.334a1.911,1.911,0,0,0,.435-2.18,38.273,38.273,0,0,0-3.8-6.568,1.906,1.906,0,0,0-2.105-.71l-4.626,1.4a32.383,32.383,0,0,0-2.661-2.659l1.409-4.625a1.909,1.909,0,0,0-.71-2.1q-1.54-1.111-3.184-2.063V11.543A9.554,9.554,0,0,0,87.888,2H11.543A9.554,9.554,0,0,0,2,11.543V61.167a9.554,9.554,0,0,0,9.543,9.543h20.18L25.476,87.888H15.36A1.908,1.908,0,0,0,13.452,89.8a9.554,9.554,0,0,0,9.543,9.543H46.557c.279.422.529.863.825,1.273a1.9,1.9,0,0,0,2.105.71l4.626-1.4a32.383,32.383,0,0,0,2.661,2.659L55.365,107.2a1.909,1.909,0,0,0,.71,2.1,38.011,38.011,0,0,0,6.569,3.806,1.9,1.9,0,0,0,2.18-.435l3.332-3.558a31.941,31.941,0,0,0,3.611.966l1.115,4.775a1.909,1.909,0,0,0,1.672,1.466c1.286.128,2.563.193,3.791.193s2.5-.065,3.792-.191a1.909,1.909,0,0,0,1.672-1.466l1.115-4.775a32.049,32.049,0,0,0,3.611-.966l3.332,3.558a1.907,1.907,0,0,0,2.18.435,38.161,38.161,0,0,0,6.566-3.806,1.909,1.909,0,0,0,.712-2.105l-1.407-4.627a32.683,32.683,0,0,0,2.661-2.659l4.626,1.407a1.911,1.911,0,0,0,2.105-.71,38.253,38.253,0,0,0,3.8-6.568,1.906,1.906,0,0,0-.435-2.18l-3.556-3.334a32.267,32.267,0,0,0,.966-3.611l4.773-1.115a1.907,1.907,0,0,0,1.466-1.67c.124-1.283.189-2.559.189-3.791s-.065-2.508-.193-3.794a1.905,1.905,0,0,0-1.464-1.67ZM11.543,5.817H87.888a5.733,5.733,0,0,1,5.726,5.726V43.457a1.9,1.9,0,0,0-1.746.554l-3.332,3.558a31.942,31.942,0,0,0-3.611-.966l-1.115-4.775a1.909,1.909,0,0,0-1.672-1.466,37.887,37.887,0,0,0-7.587,0,1.909,1.909,0,0,0-1.672,1.466L71.764,46.6a32.05,32.05,0,0,0-3.611.966L64.82,44.011a1.912,1.912,0,0,0-2.18-.435,38.162,38.162,0,0,0-6.566,3.806,1.909,1.909,0,0,0-.712,2.105l.653,2.138H17.269v-22.9H36.355V24.9H17.269V13.452H82.162v22.9h3.817V11.543a1.908,1.908,0,0,0-1.909-1.909H15.36a1.908,1.908,0,0,0-1.909,1.909V51.624H5.817V11.543a5.733,5.733,0,0,1,5.726-5.726Zm43.9,49.624c-.443.443-.914.861-1.33,1.328l-4.373-1.328ZM5.817,61.167V55.441H48.206a1.882,1.882,0,0,0-.825.634,38.253,38.253,0,0,0-3.8,6.568,1.906,1.906,0,0,0,.435,2.18l2.21,2.071H11.543a5.733,5.733,0,0,1-5.726-5.726ZM35.783,70.71h11.07c-.086.351-.178.7-.25,1.055l-4.773,1.115a1.907,1.907,0,0,0-1.466,1.67c-.126,1.286-.191,2.563-.191,3.794s.065,2.506.193,3.794a1.907,1.907,0,0,0,1.466,1.67L46.6,84.924c.206,1,.492,1.985.792,2.964H29.538ZM22.995,95.522a5.737,5.737,0,0,1-5.4-3.817H44.184l-.174.162a1.911,1.911,0,0,0-.435,2.18c.227.5.51.983.76,1.475Zm89.64-15.112L108,81.492a1.908,1.908,0,0,0-1.449,1.548,28.5,28.5,0,0,1-1.435,5.365,1.908,1.908,0,0,0,.483,2.063l3.447,3.231a34.306,34.306,0,0,1-2.067,3.569L102.495,95.9a1.9,1.9,0,0,0-2.029.613,28.811,28.811,0,0,1-3.949,3.949,1.91,1.91,0,0,0-.613,2.029l1.365,4.487a34.927,34.927,0,0,1-3.569,2.069L90.47,105.6a1.906,1.906,0,0,0-2.063-.481,28.54,28.54,0,0,1-5.367,1.435A1.908,1.908,0,0,0,81.492,108l-1.08,4.632a33.134,33.134,0,0,1-4.13,0L75.2,108a1.906,1.906,0,0,0-1.548-1.449,28.724,28.724,0,0,1-5.367-1.435,1.907,1.907,0,0,0-2.063.481l-3.229,3.449a34.152,34.152,0,0,1-3.571-2.069l1.367-4.485a1.914,1.914,0,0,0-.613-2.029,28.811,28.811,0,0,1-3.949-3.949,1.908,1.908,0,0,0-2.029-.613l-4.487,1.363A34.523,34.523,0,0,1,47.643,93.7l3.449-3.231a1.908,1.908,0,0,0,.483-2.063,28.561,28.561,0,0,1-1.435-5.367,1.905,1.905,0,0,0-1.449-1.548l-4.632-1.082c-.046-.7-.069-1.389-.069-2.063s.023-1.365.065-2.065L48.687,75.2a1.908,1.908,0,0,0,1.449-1.548,28.426,28.426,0,0,1,1.435-5.365,1.908,1.908,0,0,0-.481-2.065l-3.449-3.231a34.505,34.505,0,0,1,2.067-3.569L54.2,60.782a1.913,1.913,0,0,0,2.029-.613,28.918,28.918,0,0,1,3.949-3.949,1.91,1.91,0,0,0,.613-2.029L59.421,49.7a34.928,34.928,0,0,1,3.569-2.069l3.229,3.449a1.907,1.907,0,0,0,2.063.481A28.54,28.54,0,0,1,73.65,50.13,1.908,1.908,0,0,0,75.2,48.681l1.08-4.632a33.134,33.134,0,0,1,4.13,0l1.08,4.632a1.906,1.906,0,0,0,1.548,1.449A28.725,28.725,0,0,1,88.4,51.565a1.913,1.913,0,0,0,2.063-.481L93.7,47.635A34.152,34.152,0,0,1,97.267,49.7L95.9,54.189a1.914,1.914,0,0,0,.613,2.029,28.81,28.81,0,0,1,3.949,3.949,1.9,1.9,0,0,0,2.029.613l4.487-1.363a34.521,34.521,0,0,1,2.069,3.569L105.6,66.217a1.908,1.908,0,0,0-.483,2.063,28.56,28.56,0,0,1,1.435,5.367A1.905,1.905,0,0,0,108,75.2l4.632,1.082c.046.7.069,1.393.069,2.067s-.023,1.365-.065,2.065Z" transform="translate(0)" fill="#279357"/><path d="M61.721,48.36a13.36,13.36,0,1,0-13.36,13.36A13.376,13.376,0,0,0,61.721,48.36ZM48.36,57.9A9.543,9.543,0,1,1,57.9,48.36,9.554,9.554,0,0,1,48.36,57.9Z" transform="translate(29.985 29.985)" fill="#279357"/><path d="M36.366,37.208l-3.09-2.239a22.842,22.842,0,0,0-2.1,3.527l3.441,1.651A19.107,19.107,0,0,1,36.366,37.208Z" transform="translate(26.509 29.956)" fill="#279357"/><path d="M43.543,33.827l-.179-3.813a23.122,23.122,0,0,0-4.067.557l.857,3.72A19.312,19.312,0,0,1,43.543,33.827Z" transform="translate(33.888 25.454)" fill="#279357"/><path d="M50.581,32.593l-2.374,2.989a19.357,19.357,0,0,1,2.485,2.359l2.863-2.523a23.374,23.374,0,0,0-2.974-2.825Z" transform="translate(41.985 27.797)" fill="#279357"/><path d="M34.116,44.681,30.436,45.7a22.511,22.511,0,0,0,1.449,3.842l3.437-1.662a18.918,18.918,0,0,1-1.206-3.2Z" transform="translate(25.838 38.781)" fill="#279357"/><path d="M39.731,34.8l-1.823-3.355a23.219,23.219,0,0,0-3.415,2.271l2.39,2.977A19.115,19.115,0,0,1,39.731,34.8Z" transform="translate(29.525 26.755)" fill="#279357"/><path d="M51.841,45.448l3.758.678a23.123,23.123,0,0,0,.363-4.086v-.082l-3.817.082A19.285,19.285,0,0,1,51.841,45.448Z" transform="translate(45.287 36.306)" fill="#279357"/><path d="M42.459,52.208l.172,3.813a23.109,23.109,0,0,0,4.069-.55l-.849-3.722A19.252,19.252,0,0,1,42.459,52.208Z" transform="translate(36.762 45.204)" fill="#279357"/><path d="M50.094,49.272l3.086,2.246a22.9,22.9,0,0,0,2.107-3.523L51.85,46.338a19.393,19.393,0,0,1-1.756,2.934Z" transform="translate(43.699 40.286)" fill="#279357"/><path d="M52.207,41.616l3.68-1.021a22.438,22.438,0,0,0-1.46-3.842L51,38.425A18.65,18.65,0,0,1,52.207,41.616Z" transform="translate(44.52 31.577)" fill="#279357"/><path d="M46.745,51.7l1.811,3.359A22.8,22.8,0,0,0,51.978,52.8L49.6,49.816A19.312,19.312,0,0,1,46.745,51.7Z" transform="translate(40.656 43.447)" fill="#279357"/><path d="M37.295,54.715a22.74,22.74,0,0,0,3.911,1.264l.838-3.724a18.773,18.773,0,0,1-3.25-1.052Z" transform="translate(32.07 44.707)" fill="#279357"/><path d="M35.846,48.59l-2.871,2.516a23.035,23.035,0,0,0,2.972,2.832l2.374-2.987a18.92,18.92,0,0,1-2.475-2.361Z" transform="translate(28.145 42.333)" fill="#279357"/><path d="M48.944,31.546a22.634,22.634,0,0,0-3.913-1.256L44.2,34.014a18.785,18.785,0,0,1,3.252,1.046Z" transform="translate(38.339 25.705)" fill="#279357"/><path d="M34.113,40.553l-3.758-.67A23.029,23.029,0,0,0,30,43.924v.042l3.817-.042A19.463,19.463,0,0,1,34.113,40.553Z" transform="translate(25.441 34.421)" fill="#279357"/><path d="M52.887,11.293l-2.7,2.7,4.376,4.376H30.543A9.554,9.554,0,0,0,21,27.911V39.363h3.817V27.911a5.733,5.733,0,0,1,5.726-5.726H54.565l-4.376,4.376,2.7,2.7,7.634-7.634a1.906,1.906,0,0,0,0-2.7Z" transform="translate(17.264 8.444)" fill="#279357"/><path d="M12,10h3.817v3.817H12Z" transform="translate(9.086 7.269)" fill="#279357"/><path d="M16,10h3.817v3.817H16Z" transform="translate(12.721 7.269)" fill="#279357"/><path d="M20,10h3.817v3.817H20Z" transform="translate(16.355 7.269)" fill="#279357"/></g></svg>