<svg xmlns="http://www.w3.org/2000/svg" width="573.238" height="508.628" viewBox="0 0 573.238 508.628"><g transform="translate(-6.29 -41.147)"><g transform="translate(6.29 203.636)"><ellipse cx="286.619" cy="173.07" rx="286.619" ry="173.07" fill="#f5f5f5"/></g><g transform="translate(20.595 221.068)"><path d="M20.507,349.753l254.971,147.22a10.961,10.961,0,0,0,9.9,0l134.071-77.409c2.74-1.588,2.74-4.14,0-5.727L164.5,266.617a10.985,10.985,0,0,0-9.914,0L20.519,344.037C17.767,345.613,17.767,348.177,20.507,349.753Z" transform="translate(-18.454 -181.579)" fill="#e0e0e0"/><path d="M254.22,207.512c10.255,5.986,10.255,15.689,0,21.675s-26.873,5.986-37.128,0-10.255-15.689,0-21.675S243.965,201.526,254.22,207.512Z" transform="translate(15.165 -192.567)" fill="#e0e0e0"/><path d="M497.556,288.191,336.035,194.918a6.4,6.4,0,0,0-5.963-.094L240.21,246.9c-1.658.964-1.658,2.505,0,3.469l38.881,22.4-33.612,22.675c-10.773,7.256-13.09,16.853-5.175,21.416s26.5,4.892,38.14-.87l38.54-21.381,16.136,9.314,68.329,39.492a6.68,6.68,0,0,0,6.01,0l90.11-51.747C499.167,290.779,499.191,289.238,497.556,288.191Z" transform="translate(19.779 -194.132)" fill="#e0e0e0"/></g><g transform="translate(31.352 176.223)"><g transform="translate(0 119.488)"><path d="M403.976,418.262,285.429,486.7a12.725,12.725,0,0,1-12.36.223L34.409,349.121c-3.763-2.164-6.809-7.056-6.809-10.843s3.046-8.668,6.8-10.843L152.51,259.223a15.077,15.077,0,0,1,13.607,0L403.976,396.576c3.763,2.176,6.809,7.056,6.809,10.843S407.74,416.1,403.976,418.262Z" transform="translate(-27.6 -257.601)" fill="#279357"/><path d="M152.51,259.24,34.4,327.452c-3.752,2.176-6.809,7.056-6.8,10.843s3.046,8.679,6.8,10.843L273.068,486.915a13.019,13.019,0,0,0,5.88,1.47V324.406l-112.9-65.166a15.077,15.077,0,0,0-13.536,0Z" transform="translate(-27.6 -257.594)" opacity="0.5"/><path d="M247.795,476.7,366.342,408.26c3.763-2.164,6.809-7.056,6.809-10.843s-3.046-8.668-6.809-10.843L241.35,314.41V478.389a12.537,12.537,0,0,0,6.445-1.694Z" transform="translate(10.034 -247.598)" opacity="0.4"/><path d="M282.174,474.463a13.325,13.325,0,0,1-12.008,0L33.93,338.039c-5.081-2.94-5.081-7.738,0-10.667l118.124-68.129a15.1,15.1,0,0,1,13.619,0L403.521,396.572c3.752,2.164,3.752,5.7,0,7.856Z" transform="translate(-27.156 -257.597)" fill="#279357"/><path d="M282.174,474.463a13.325,13.325,0,0,1-12.008,0L33.93,338.039c-5.081-2.94-5.081-7.738,0-10.667l118.124-68.129a15.1,15.1,0,0,1,13.619,0L403.521,396.572c3.752,2.164,3.752,5.7,0,7.856Z" transform="translate(-27.156 -257.597)" opacity="0.3"/><path d="M267.444,458.871a14.254,14.254,0,0,1-12.937,0L51.236,341.512c-3.528-2.058-3.528-5.41,0-7.468l111.115-64.154a14.419,14.419,0,0,1,12.937,0l203.271,117.36c3.528,2.058,3.528,5.422,0,7.48Z" transform="translate(-23.904 -255.707)" fill="#37474f"/><path d="M168.431,268.37a13.171,13.171,0,0,0-6.08,1.517L51.236,334.041c-3.528,2.058-3.528,5.41,0,7.468l22.028,12.713,95.167-60.767Z" transform="translate(-23.904 -255.704)" fill="#263238"/><path d="M175.215,274.02a14.4,14.4,0,0,0-12.937,0L51.152,338.174a6.715,6.715,0,0,0-1.682,1.352,6.446,6.446,0,0,0,1.611,1.258l203.271,117.36a14.254,14.254,0,0,0,12.937,0L378.415,394a6.834,6.834,0,0,0,1.67-1.341,6.481,6.481,0,0,0-1.6-1.282Z" transform="translate(-23.749 -254.98)" fill="#279357"/><path d="M175.215,274.02a14.4,14.4,0,0,0-12.937,0L51.152,338.174a6.715,6.715,0,0,0-1.682,1.352,6.446,6.446,0,0,0,1.611,1.258l203.271,117.36a14.254,14.254,0,0,0,12.937,0L378.415,394a6.834,6.834,0,0,0,1.67-1.341,6.481,6.481,0,0,0-1.6-1.282Z" transform="translate(-23.749 -254.98)" fill="#fff" opacity="0.75"/><path d="M86.1,300.828l19.7-11.408c1.176-.682,1.176-1.741.129-2.352a4.54,4.54,0,0,0-4.116.082L82.135,298.523c-1.176.67-1.176,1.741-.129,2.352a4.575,4.575,0,0,0,4.093-.047Z" transform="translate(-18.157 -252.492)" fill="#37474f"/><path d="M114.9,282.543a1.176,1.176,0,0,0,0-2.352,4.41,4.41,0,0,0-3.987,0,1.176,1.176,0,1,0,0,2.352,4.41,4.41,0,0,0,3.987,0Z" transform="translate(-13.138 -253.707)" fill="#37474f"/><path d="M121.656,278.606a1.176,1.176,0,0,0,0-2.293,4.363,4.363,0,0,0-4,0,1.176,1.176,0,0,0,0,2.293,4.363,4.363,0,0,0,4,0Z" transform="translate(-11.905 -254.391)" fill="#37474f"/><path d="M67.383,309.973a1.176,1.176,0,1,0,0-2.352,4.41,4.41,0,0,0-3.987,0,1.176,1.176,0,1,0,0,2.352A4.41,4.41,0,0,0,67.383,309.973Z" transform="translate(-21.505 -248.877)" fill="#37474f"/><path d="M74.121,306.053c1.105-.647,1.105-1.67,0-2.352a4.41,4.41,0,0,0-3.987,0c-1.106.635-1.106,1.658,0,2.352a4.41,4.41,0,0,0,3.987,0Z" transform="translate(-20.257 -249.568)" fill="#37474f"/><path d="M101.677,367.971a4.54,4.54,0,0,1,2.129,3.528,1.341,1.341,0,0,1-.588,1.247c-.259.141-1.176.717-1.494.858a1.517,1.517,0,0,1-1.529-.176L72.569,357.457a4.563,4.563,0,0,1-2.129-3.528,1.352,1.352,0,0,1,.529-1.176l1.541-.894a1.576,1.576,0,0,1,1.541.176Z" transform="translate(-20.058 -241.027)" fill="#279357"/><path d="M101.677,367.971a4.54,4.54,0,0,1,2.129,3.528,1.341,1.341,0,0,1-.588,1.247c-.259.141-1.176.717-1.494.858a1.517,1.517,0,0,1-1.529-.176L72.569,357.457a4.563,4.563,0,0,1-2.129-3.528,1.352,1.352,0,0,1,.529-1.176l1.541-.894a1.576,1.576,0,0,1,1.541.176Z" transform="translate(-20.058 -241.027)" opacity="0.4"/><path d="M100.241,368.709,72.569,352.726c-1.176-.682-2.129-.2-2.129,1.07a4.563,4.563,0,0,0,2.129,3.528L100.241,373.3c1.176.682,2.129.2,2.129-1.07a4.54,4.54,0,0,0-2.129-3.516Z" transform="translate(-20.057 -240.907)" fill="#279357"/><path d="M100.241,368.709,72.569,352.726c-1.176-.682-2.129-.2-2.129,1.07a4.563,4.563,0,0,0,2.129,3.528L100.241,373.3c1.176.682,2.129.2,2.129-1.07a4.54,4.54,0,0,0-2.129-3.516Z" transform="translate(-20.057 -240.907)" opacity="0.3"/><path d="M68.035,348.518a4.563,4.563,0,0,1,2.129,3.528,1.317,1.317,0,0,1-.588,1.247l-1.494.87a1.576,1.576,0,0,1-1.529-.176L53.5,346.448a4.563,4.563,0,0,1-2.129-3.528,1.364,1.364,0,0,1,.541-1.176c.27-.165,1.27-.753,1.541-.894a1.564,1.564,0,0,1,1.541.165Z" transform="translate(-23.415 -242.966)" fill="#279357"/><path d="M68.035,348.518a4.563,4.563,0,0,1,2.129,3.528,1.317,1.317,0,0,1-.588,1.247l-1.494.87a1.576,1.576,0,0,1-1.529-.176L53.5,346.448a4.563,4.563,0,0,1-2.129-3.528,1.364,1.364,0,0,1,.541-1.176c.27-.165,1.27-.753,1.541-.894a1.564,1.564,0,0,1,1.541.165Z" transform="translate(-23.415 -242.966)" opacity="0.4"/><path d="M66.553,349.254,53.5,341.715c-1.176-.67-2.129-.188-2.129,1.082a4.563,4.563,0,0,0,2.129,3.528l13.054,7.539c1.176.67,2.129.188,2.129-1.082a4.539,4.539,0,0,0-2.129-3.528Z" transform="translate(-23.415 -242.844)" fill="#279357"/><path d="M66.553,349.254,53.5,341.715c-1.176-.67-2.129-.188-2.129,1.082a4.563,4.563,0,0,0,2.129,3.528l13.054,7.539c1.176.67,2.129.188,2.129-1.082a4.539,4.539,0,0,0-2.129-3.528Z" transform="translate(-23.415 -242.844)" opacity="0.3"/></g><g transform="translate(148.475 203.438)"><path d="M154.5,383.589l30.754,17.829a3.669,3.669,0,0,0,3.352,0l88.275-50.888a1.023,1.023,0,0,0,0-1.94L246.125,330.76a3.7,3.7,0,0,0-3.352,0L154.5,381.684a1.023,1.023,0,0,0,0,1.905Z" transform="translate(-153.848 -328.74)" opacity="0.15"/><g transform="translate(3.319)"><path d="M272.783,346.209a1.176,1.176,0,0,0-.682-.953l-27.508-15.877a3.587,3.587,0,0,0-3.281,0l-83.959,48.548a1.176,1.176,0,0,0-.682.953v2.881a1.176,1.176,0,0,0,.682.953l27.508,15.877a3.658,3.658,0,0,0,3.281,0L272.1,350.172a1.176,1.176,0,0,0,.682-.941Z" transform="translate(-156.67 -328.982)" fill="#263238"/><path d="M184.86,395.627l-27.508-15.806a1,1,0,0,1,0-1.893l83.959-48.548a3.587,3.587,0,0,1,3.281,0L272.1,345.256a1,1,0,0,1,0,1.893l-83.959,48.477A3.587,3.587,0,0,1,184.86,395.627Z" transform="translate(-156.669 -328.982)" fill="#37474f"/><path d="M186.387,388.571v2.952a3.316,3.316,0,0,1-1.541-.376l-27.485-15.877a1.176,1.176,0,0,1-.682-.953V371.4a1.176,1.176,0,0,0,.682.953l27.485,15.818a3.528,3.528,0,0,0,1.541.4Z" transform="translate(-156.668 -321.514)" fill="#263238"/><path d="M241.987,331.452h0l2.728,1.564-3.693,2.14-2.823-1.588,3.693-2.129Zm4.269,2.458h0l2.717,1.576-2.893,1.67-2.752-1.529,2.9-1.682Zm-9.409.517h.059L239.635,336l-2.9,1.67-2.811-1.564,2.893-1.682Zm13.689,1.94h0l2.729,1.576-4.7,2.7-2.811-1.576,4.7-2.7Zm-8.632.059h0L244.634,338l-2.352,1.329-2.811-1.576,2.352-1.329Zm-9.409.529h.059l2.728,1.564-2.9,1.682-2.811-1.588,2.893-1.67Zm5.645,1.658h.071l2.717,1.564-2.305,1.329-2.811-1.576,2.352-1.329Zm16.677.223h0l2.717,1.564-3.622,2.152-2.811-1.588,3.693-2.129Zm-26.685.635h0l2.717,1.576-20.958,12.1-2.823-1.588,20.969-12.09Zm16.265.447h.059l2.729,1.576-2.352,1.329-2.823-1.576,2.352-1.329Zm-10.02.87h0l2.728,1.564-2.352,1.329-2.823-1.576,2.352-1.329Zm24.7.506h0l2.728,1.576-2.352,1.329-2.823-1.588,2.352-1.329Zm-9.408.517h.059l2.717,1.576-2.352,1.329-2.811-1.588,2.352-1.329Zm-9.032.294h.059l2.728,1.564L241.07,345l-2.823-1.576L240.6,342.1Zm-10.02.859h0l2.728,1.576-2.352,1.329-2.823-1.588,2.352-1.329Zm24.7.506h.071l2.717,1.576-2.352,1.329-2.811-1.588,2.352-1.329Zm-9.409.517h.059l2.729,1.576-2.352,1.329-2.823-1.588,2.352-1.329Zm-9.032.294h.071l2.717,1.564-2.352,1.329L234.5,345.6l2.352-1.329Zm27.4,0h.059l2.729,1.564-2.9,1.682-2.811-1.588,2.893-1.67Zm-37.422.859h.012l2.717,1.576-2.352,1.329-2.717-1.576,2.293-1.329Zm24.7.506h.012l2.717,1.576-2.352,1.329-2.717-1.576,2.352-1.329Zm-9.409.517h0l2.728,1.576-2.352,1.329-2.717-1.564,2.352-1.329Zm-9.02.294h.059l2.717,1.576-2.352,1.329-2.811-1.588,2.352-1.329Zm-10.02.859h0l2.717,1.576-2.352,1.329-2.811-1.588,2.352-1.329Zm35.176.435h0L261,349.316l-2.352,1.341-2.823-1.588,2.352-1.329Zm-10.479.071h0l2.729,1.576-2.352,1.329-2.823-1.576,2.352-1.329Zm-9.409.517h.071l2.717,1.576-2.352,1.329-2.858-1.505,2.352-1.329Zm-9.02.294h0l2.728,1.576-2.352,1.329-2.823-1.588,2.352-1.329Zm-10.02.859h.059l2.728,1.576-2.352,1.329-2.823-1.576,2.352-1.329Zm35.176.435h.071l2.717,1.576-2.352,1.329-2.811-1.588,2.293-1.329ZM244.046,350h.059l2.728,1.576-2.352,1.329-2.823-1.576L244.01,350Zm-9.409.529h0l2.729,1.564-2.352,1.329-2.823-1.576,2.352-1.329Zm-9.032.282h0l2.728,1.576-2.352,1.329-2.811-1.623,2.293-1.329Zm-10.02.87h.059l2.729,1.564-2.352,1.329L213.209,353l2.293-1.329Zm35.188.423h0l2.717,1.576-2.352,1.329-2.811-1.588,2.352-1.329Zm-10.491.082h.071l2.717,1.564-2.352,1.329-2.811-1.576,2.352-1.329Zm-34.518.235h-.071L208.422,354l-2.9,1.67-2.811-1.576,2.893-1.682Zm25.1.282h.059l2.728,1.564-2.352,1.341-2.823-1.588,2.352-1.329Zm-9.02.282h.059l2.717,1.576-2.352,1.329-2.811-1.576,2.352-1.329Zm-10.02.87h0l2.717,1.564-2.352,1.329-2.811-1.576,2.352-1.329Zm35.176.423h.059l2.728,1.576-2.352,1.329L244.5,355.62l2.352-1.329Zm-10.479.082h0l2.728,1.564-2.352,1.341-2.811-1.588,2.352-1.329Zm-9.409.517h.071l2.717,1.576-2.352,1.329-2.811-1.588,2.352-1.329Zm-25.685.071h.059l2.728,1.564-2.9,1.682-2.811-1.588,2.893-1.67Zm16.665.212h0l2.658,1.635-2.352,1.329-2.823-1.576,2.352-1.329Zm-10.02.87h-.024l2.728,1.576-2.352,1.329-2.823-1.588,2.352-1.329Zm24.7.506h-.024l2.728,1.576-2.352,1.329-2.823-1.588,2.352-1.329Zm-9.409.517h0l2.728,1.576-2.352,1.329-2.811-1.588,2.352-1.329Zm-9.032.294h.059l2.729,1.564-2.352,1.329-2.823-1.576,2.352-1.329Zm27.3,0h0l2.717,1.576-2.352,1.329-2.811-1.588,2.352-1.329Zm-44.549.059h0l2.717,1.576-2.893,1.67-2.823-1.588,2.9-1.67Zm7.233.741h.059l2.729,1.576-2.352,1.329-2.811-1.588,2.293-1.329Zm24.7.506h.071l2.717,1.576-2.352,1.329-2.811-1.588,2.293-1.329Zm-9.409.517h.059l2.728,1.576-2.352,1.329-2.823-1.588,2.352-1.329Zm-9.032.294h.071l2.717,1.576L211,362.37l-2.952-1.517,2.352-1.329Zm27.3.059h.059l2.728,1.576-2.352,1.329-2.823-1.588,2.352-1.329Zm-45.149.4h0l2.728,1.576-3.693,2.129-2.823-1.576,3.693-2.129Zm7.833.4h.071l2.717,1.576-7.421,4.3-2.811-1.588,7.268-4.2Zm24.7.506h.059l2.717,1.576-2.352,1.329-2.811-1.588,2.352-1.317Zm-9.409.517h.071l2.717,1.576-2.352,1.329-2.811-1.576,2.293-1.329Zm-9.02.294h.059l2.729,1.576-2.352,1.329-2.823-1.588,2.352-1.329Zm27.285.059h.059l2.728,1.576-2.352,1.329-2.964-1.505,2.293-1.329Zm-12.607,1.305h.059l2.728,1.576-2.352,1.329-2.823-1.576,2.352-1.329Zm-34.717.365h0l2.728,1.564-2.352,1.329-2.823-1.576,2.352-1.329Zm25.3.165h.059l2.717,1.564-2.352,1.329-2.811-1.576,2.352-1.329Zm-9.032.282h.059l2.728,1.576-2.105,1.176a.442.442,0,0,0,.012.788l3.528,2.058-2.7,1.564-7.056-4.046,5.48-3.164Zm27.3.059h.059l2.717,1.576-2.352,1.329-2.811-1.576,2.352-1.329Zm-12.619,1.317h0l2.728,1.564-2.352,1.329-2.811-1.576,2.352-1.329ZM183,365.546h.059l2.728,1.564-2.434,1.447-2.811-1.588,2.293-1.329Zm25.3.165h.059l2.728,1.564-2.352,1.329-2.823-1.576,2.352-1.329ZM224.911,367h.071l2.717,1.576-2.352,1.329-2.811-1.588,2.293-1.329Zm-10.961.365h.059l2.717,1.564-2.352,1.341-2.811-1.588,2.352-1.329Zm-34.729.353h.071l2.717,1.576-2.352,1.329-2.811-1.588,2.352-1.329Zm8.044.282h.059l2.717,1.576-2.352,1.329-2.811-1.588,2.352-1.329Zm33.882,1.176h.059l2.717,1.576-2.352,1.329-2.94-1.505,2.352-1.329Zm-10.973.365h.059l2.729,1.564-4.093,2.352-2.823-1.576,4.093-2.352Zm-35.517.811h.059l2.728,1.576-6.08,3.528-2.811-1.588,6.068-3.528Zm24.9.388h.071l2.717,1.576-2.352,1.329-2.811-1.576,2.352-1.329Zm17.817.623h.059l2.729,1.576-2.352,1.329-2.823-1.576,2.352-1.329Zm-38.446,1.447h.059l2.717,1.576-2.352,1.329-2.811-1.576,2.352-1.329Zm16.865.118h.059l2.717,1.564-2.352,1.329-2.811-1.576,2.352-1.329Zm8.033.282h0l2.728,1.564-2.352,1.341-2.823-1.588,2.352-1.329Zm9.773.329h0l2.728,1.564-2.352,1.329-2.811-1.576,2.352-1.329Zm-46.478,1.176h.059l2.728,1.576-2.352,1.329-2.823-1.576,2.352-1.329Zm8.033.294h.059l2.728,1.564-2.352,1.329-2.823-1.576L175.116,375Zm16.865.106h.059l2.564,1.67-2.352,1.341-2.823-1.588,2.352-1.329Zm-8.832.176h.059l2.728,1.564-2.352,1.329-2.811-1.576,2.293-1.329Zm16.865.106h.059l2.728,1.576-2.352,1.329-2.823-1.588,2.352-1.329Zm8.95.811h.059l2.717,1.564-2.352,1.341-2.811-1.588,2.352-1.329Zm-45.655.694h.059l6.986,4.022-2.352,1.341-7.056-4.046,2.352-1.329Zm8.033.282h.071l2.717,1.564-2.352,1.341L169,378.506l2.352-1.329Zm8.033.282h.071l2.717,1.564-2.352,1.341-2.811-1.588,2.352-1.329Zm16.865.106h.071l2.717,1.576-2.352,1.329-2.811-1.588,2.293-1.329Zm-8.82.176h.059l2.717,1.576-2.352,1.329-2.928-1.517,2.352-1.329Zm17.77.635h0l2.728,1.576-2.352,1.329-2.823-1.588,2.352-1.329Zm-29.578,1.258h.059l2.728,1.576-2.352,1.329-2.823-1.588,2.352-1.329Zm8.033.282h.059l2.728,1.576-2.352,1.329-2.823-1.588,2.352-1.329Zm7.9.388h0l2.728,1.576-2.352,1.329-2.823-1.588,2.352-1.329Zm9.738.353h.059l2.728,1.576-2.352,1.329-2.811-1.588,2.293-1.329Zm-29.578,1.258h.059l6.986,4.034-2.352,1.329-7.056-4.046,2.352-1.329Zm8.033.282h0l2.728,1.576-2.352,1.329-2.681-1.635,2.352-1.317Zm8.033.282h.059l2.728,1.576-2.352,1.329-2.811-1.576,2.352-1.329Zm10.008,1.353h0l1.176.67-2.352,1.329-1.27-.682,2.352-1.329Zm-13.807.729h.059l2.717,1.576-2.352,1.329L181.62,385.9l2.352-1.329Zm10.032,1.447h.071l1.176.67-2.352,1.329-1.258-.682,2.282-1.329Zm-13.807.741h.059l2.728,1.564-2.352,1.329-2.823-1.576,2.352-1.329Zm10.044,1.435h.059l1.176.67-2.352,1.329-1.258-.682,2.352-1.317Zm-3.775,2.176h0l1.176.67-2.352,1.329-1.27-.682,2.352-1.317Z" transform="translate(-155.911 -328.55)" fill="#279357"/></g></g><g transform="translate(54.524)"><path d="M96.07,354.671c1.27,3.211,4.01,4.881,8.068,6.692,11.878,5.351,40.351,11.761,56.334,14.607,9.3,1.658,18.817,4.7,28.32,5.116,8.5.341,17.323-1.176,24.38-5.974a5.292,5.292,0,0,0,2.282-2.481,4.01,4.01,0,0,0-1.988-4.41,11.984,11.984,0,0,0-5.022-1.329A204.882,204.882,0,0,1,153.391,352.3c7.891-.835,15.912-1.693,23.251-4.7s14.113-8.5,16.653-16.006c.517-1.505.941-3.175,2.187-4.175a5.057,5.057,0,0,1,4.8-.447c5.163,1.846,7.209,7.891,8.738,13.16s4.069,11.278,9.409,12.49c-1.941-1.176-1.176-4.54.87-5.351s4.551.459,5.8,2.352,1.564,4.046,2.6,5.963,3.258,3.528,5.269,2.74a4.975,4.975,0,0,0,2.352-2.517c2.846-5.563,2.352-12.419-.165-18.147s-6.739-10.526-11.255-14.842c-6.292-6.01-13.372-11.408-21.522-14.466-17.053-6.41-36.235-1.741-53.135,5.081A220.828,220.828,0,0,0,112.676,332.3a61.285,61.285,0,0,0-12.043,9.409c-2.576,2.752-5.281,6.657-5.01,10.585A8.02,8.02,0,0,0,96.07,354.671Z" transform="translate(-70.151 -129.715)" opacity="0.1"/><g transform="translate(87.156 94.426)"><path d="M231.371,348.459c-2.493-3.857-6.962-11.761-8.362-13.384-3.822-4.351-11.7-11.231-11.7-11.231-7.433-6.057-30.26-26.215-30.26-26.215s-3.528-44.69-7.48-51.841c-4.563-8.327-13.242-8.668-22.228-9.209a175.248,175.248,0,0,0-3.269,17.641s8.08,50.124,9.044,54.781,3.328,6.7,8.138,9.8c7.35,4.7,33.941,18.993,33.941,18.993l1.305.906a5.222,5.222,0,0,1,1.929,2.564,15.124,15.124,0,0,1,.694,3.175c.423,3.7,0,4.7.318,8.75s1.176,3.916,2.764,7.386c1.423,3.211,1.846,5.222,3.023,5.339s2.681-2.493,2.681-5.139-1.611-5.563-1.67-6.68.529-2.505,3.046-1.023,4.869,5.986,6.739,9.1,2.87,7.233,4.763,9.479,2.6-.247,3.469-2.352,5.116-5.539,6.233-8.9S233.84,352.328,231.371,348.459Z" transform="translate(-148.07 -236.24)" fill="#ffa8a7"/><path d="M151.031,236.349c6.186,0,11.208-.682,16.653,2.634s6.915,7.856,8.15,14.913c1.117,6.421,3.387,28.531,3.387,28.531s-15.712,8.668-29.4,3.14Z" transform="translate(-147.762 -236.291)" fill="#37474f"/><path d="M206.75,339.19Z" transform="translate(-137.738 -218.174)" fill="#279357"/></g><path d="M161.917,210.56a34.9,34.9,0,0,1,7.456,3.458,6.574,6.574,0,0,1,2.27,8.915l-2.834-.564s1.458-3.328-.247-5.1-6.692-3.317-6.692-3.317Z" transform="translate(-58.484 -146.395)" fill="#263238"/><path d="M170.05,219.565c-2.352-1.117-3.411.318-5.034,4.222s-.506,4.975,1.47,5.751,3.528-.529,4.7-3.763C172.555,222.141,172.52,220.776,170.05,219.565Z" transform="translate(-58.067 -144.874)" fill="#279357"/><path d="M170.21,219.6c-2.352-1.117-3.411.318-5.034,4.222s-.506,4.975,1.47,5.751,3.528-.529,4.7-3.763C172.727,222.171,172.692,220.806,170.21,219.6Z" transform="translate(-58.039 -144.869)" opacity="0.1"/><path d="M134.732,239.179c-12.937,2.9-26.838,7.056-37.258,11.584,0,0-.835,44.585,6.386,65.86S109,362.137,109,362.137c35.282,5.7,78.079-10.69,77.021-28.473a78.8,78.8,0,0,0-5.951-10.7s-.882-14.289-.494-20.652c25.873-24.215-10.055-55.275-19.323-65.93C154.608,237.109,146.316,236.58,134.732,239.179Z" transform="translate(-69.827 -141.849)" fill="#455a64"/><path d="M136.738,187.812c-1.67,3-.976,6.539-.294,9.714.529,2.423,1.976,5.422,1.364,7.88a15.936,15.936,0,0,1-5.88,8.444,17.261,17.261,0,0,1-2.223,1.576c-.67.365-1.447.529-2.129.906a9.538,9.538,0,0,0-3.469,3.528,26.6,26.6,0,0,0-2.517,6.68,23.3,23.3,0,0,1-2.646,6.621,13.689,13.689,0,0,1-12.161,5.751,16.465,16.465,0,0,1-7.327-2.352,19.417,19.417,0,0,1-3.14-2.352,7.962,7.962,0,0,1-2.07-2.752,13.266,13.266,0,0,0,2.211,8.9,15.595,15.595,0,0,1-18.17-17.488c.423-3.011,1.705-5.88,2.352-8.809,1.788-8-5.386-12.372-6.562-19.664a11.3,11.3,0,0,1,5.763-11.525c2.458-1.294,5.692-1.94,6.715-4.516.788-1.976-.176-4.175-.141-6.3,0-4.21,3.975-7.421,7.974-8.691s8.338-1.258,12.372-2.458c4.3-1.27,8.232-3.893,12.607-4.7a16.253,16.253,0,0,1,14.348,4.892c1.658,1.764,2.564,3.822,4.034,5.645s3.716,2.764,4.8,4.9a9.891,9.891,0,0,1,.306,9.1C141.384,183.555,138.267,185.1,136.738,187.812Z" transform="translate(-73.962 -156.001)" fill="#37474f"/><path d="M172.312,195.866c-.494-14-8.621-33.965-38.693-31.413-29.308,2.493-37.928,28.637-35.282,42.832,3.728,19.593,17.982,20.852,21.687,33.659Z" transform="translate(-69.749 -154.552)" fill="#455a64"/><path d="M105.771,203.533a7.056,7.056,0,0,1,7.362-2.446,7.268,7.268,0,0,1,3.622,2.352c1.352,1.494,1.329,3.528,2.282,5.233a3.869,3.869,0,0,0,2.87,2.082c4.034.365,2.529-6.186,2.752-8.515,7.621-2.7,7.409-5.527,8.444-12.255,5.339-5.763,14.607-6.609,22.628-1.094,4.892-9.409,10.2-8.232,12.49-5.328a37.634,37.634,0,0,1,3.422,10.949,72.834,72.834,0,0,1,1.282,17.276c-.988,22.475-8.4,27.873-12.09,29.4s-8.232.423-15.018-.859v13.5c7.056,13.466,12.69,33.847,12.419,47.16-10.855-20.558-27.849-31.554-35.882-39.022a30.728,30.728,0,0,1-4.857-5.6V220.9s-2.964,3.164-7.668-.576C103.536,215.293,101.607,208.237,105.771,203.533Z" transform="translate(-68.75 -151.516)" fill="#ffa8a7"/><path d="M142.909,233.936c-5.88-1.529-12.172-3.752-16.465-7.056a20.322,20.322,0,0,1-6.374-8.95s.506,8.668,4.869,12.572,18.017,8.409,18.017,8.409Z" transform="translate(-65.844 -145.097)" fill="#f28f8f"/><path d="M141.2,205.321a3.117,3.117,0,1,1-3.528-2.787,3.175,3.175,0,0,1,3.528,2.787Z" transform="translate(-63.218 -147.812)" fill="#263238"/><path d="M159.885,202.937a2.858,2.858,0,0,1-2.352,3.281,2.705,2.705,0,0,1-3.2-2.529,2.824,2.824,0,1,1,5.6-.753Z" transform="translate(-59.815 -148.168)" fill="#263238"/><path d="M145.82,199.26l2.211,18.723,9.62-3.669Z" transform="translate(-61.31 -148.384)" fill="#f28f8f"/><path d="M139.956,197.226l-7.056,3.222a4.046,4.046,0,0,1,1.964-5.257,3.787,3.787,0,0,1,5.092,2.035Z" transform="translate(-63.643 -149.161)" fill="#263238"/><path d="M136.974,217.18l10.126,3.434a5.61,5.61,0,0,1-6.986,3.411,5.222,5.222,0,0,1-3.14-6.845Z" transform="translate(-62.931 -145.229)" fill="#b16668"/><path d="M137.207,219.19a5.257,5.257,0,0,1,4.963,4.7,5.234,5.234,0,0,1-2.07-.259,5.081,5.081,0,0,1-3.411-4.4A3.657,3.657,0,0,1,137.207,219.19Z" transform="translate(-62.917 -144.875)" fill="#f28f8f"/><path d="M160.887,198.389l-7.127-3.128a3.728,3.728,0,0,1,5.01-2.082A4.093,4.093,0,0,1,160.887,198.389Z" transform="translate(-59.912 -149.512)" fill="#263238"/><path d="M139.49,235.21c4.54,1.317,17.806,19.264,22.11,25.732l-4.869,12.419a57.343,57.343,0,0,1,7.68,9.914L154.5,312.148s.894-38.469-15.007-67.741Z" transform="translate(-62.424 -142.055)" fill="#263238"/><path d="M158.294,289.812c3.528,9.162,4.022,30.4,4.022,30.4s-3.528-19.817-20.193-26.755c0-.953.176-14.524.176-14.524s-22.345-5.669-27.05-7.8l-4.81-25.873s3.211-8.021,5.88-8.232v5.586a259.9,259.9,0,0,1,21.087,18.558C149.591,272.923,154.789,280.65,158.294,289.812Z" transform="translate(-67.539 -141.734)" fill="#37474f"/><path d="M220.976,379.053c-3.6-3.023-8.809-7.209-12.937-8.232a23.369,23.369,0,0,0-2.928-.647,31.386,31.386,0,0,0,4.1-1.176,7.456,7.456,0,0,0,3.34-2.634c.306-.482.494-1.176,0-1.552a.988.988,0,0,0-.6-.165c-3.046.153-5.48-.118-8.232-.094a11.9,11.9,0,0,0-3.716.376c-1.106.412-2.211.835-3.293,1.305-4.9,2.164-9.409,4.116-16.653,3.046l-3.034-.8L126.009,342.2l-9.679-52.688s-2.352-32.671-15.583-40.6c-7.056,2.681-14.783,9.314-16.877,16.465-2.47,8.5-1.505,20.581,2.7,39.316,3.528,15.677,7.209,31.754,11.2,43.691s5.516,16.159,13.348,18.5c13.137,3.928,60.532,16.924,60.532,16.924a31.138,31.138,0,0,0,2.964.976c1.635.459,3.164,1.588,7.056,2.434,4.622,1.011,10.244-1.094,14.113-1.635s10.667.729,14.419,1.905,7.644-4.775,9.514-4.246S224.587,382.088,220.976,379.053Z" transform="translate(-72.453 -139.643)" fill="#ffa8a7"/><path d="M185.959,350.528a13.819,13.819,0,0,0-5.469,1.352,30.365,30.365,0,0,1,7.327.659,31.385,31.385,0,0,0,4.1-1.176,7.868,7.868,0,0,0,3.046-2.223C192.85,350.81,188.617,350.575,185.959,350.528Z" transform="translate(-55.206 -121.996)" fill="#f28f8f"/><path d="M100.29,248.61c-9.138,3.9-15.195,8.679-17.641,18.735s-.717,18.888,1.341,29.531,6.88,27.943,6.88,27.943,19.558,1.176,30.836-6.645l-6.174-40.127s-3.258-23.827-14.618-29.072" transform="translate(-72.643 -139.696)" fill="#37474f"/><path d="M112.638,169.46c-6.868,6.363-13.454,15.383-8.574,36.258a11.326,11.326,0,0,0-2.834,11.761c1.882,6.445,8.068,10.69,13.819,9.409s8.868-7.421,6.986-13.878c-1.423-4.822-6.6-9.491-10.855-9.185,0,0-4.081-8.926-.259-21.581,5.222-17.241,25.321-18.676,34.165-17.276C142.122,160.769,121.717,161.051,112.638,169.46Z" transform="translate(-69.266 -154.889)" fill="#279357"/><path d="M112.638,169.46c-6.868,6.363-13.454,15.383-8.574,36.258a11.326,11.326,0,0,0-2.834,11.761c1.882,6.445,8.068,10.69,13.819,9.409s8.868-7.421,6.986-13.878c-1.423-4.822-6.6-9.491-10.855-9.185,0,0-4.081-8.926-.259-21.581,5.222-17.241,25.321-18.676,34.165-17.276C142.122,160.769,121.717,161.051,112.638,169.46Z" transform="translate(-69.266 -154.889)" opacity="0.4"/><path d="M123.794,206.836c-2.093-7.15-8.95-11.843-15.289-10.5a9.725,9.725,0,0,0-2.764,1.035c-.717.4-2.881,1.882-3.3,2.164-4.069,2.693-5.88,8.232-4.269,13.925,2.093,7.15,8.95,11.843,15.289,10.5a9.961,9.961,0,0,0,3.293-1.341c.517-.329,2.54-1.682,3.034-2.035C123.676,217.844,125.429,212.446,123.794,206.836Z" transform="translate(-69.803 -148.94)" fill="#279357"/><path d="M123.794,206.836c-2.093-7.15-8.95-11.843-15.289-10.5a9.725,9.725,0,0,0-2.764,1.035c-.717.4-2.881,1.882-3.3,2.164-4.069,2.693-5.88,8.232-4.269,13.925,2.093,7.15,8.95,11.843,15.289,10.5a9.961,9.961,0,0,0,3.293-1.341c.517-.329,2.54-1.682,3.034-2.035C123.676,217.844,125.429,212.446,123.794,206.836Z" transform="translate(-69.803 -148.94)" opacity="0.3"/><path d="M121.2,208.315c-2.093-7.139-8.95-11.843-15.289-10.491s-9.832,8.232-7.739,15.371,8.95,11.843,15.289,10.5S123.292,215.466,121.2,208.315Z" transform="translate(-69.806 -148.678)" fill="#279357"/><path d="M121.2,208.315c-2.093-7.139-8.95-11.843-15.289-10.491s-9.832,8.232-7.739,15.371,8.95,11.843,15.289,10.5S123.292,215.466,121.2,208.315Z" transform="translate(-69.806 -148.678)" opacity="0.1"/><path d="M114.167,208.568c-.988-3.375-4.234-5.586-7.233-4.951s-4.7,3.881-3.658,7.256,4.234,5.586,7.233,4.951S115.155,211.931,114.167,208.568Z" transform="translate(-68.855 -147.637)" fill="#37474f"/></g><g transform="translate(215.138 155.036)"><path d="M235.486,433.408l-23.78-13.925a1.176,1.176,0,1,1,0-2.352l93.25-53.84a4.34,4.34,0,0,1,3.952,0l23.757,13.819a1.176,1.176,0,0,1,0,2.282L239.426,433.42a4.316,4.316,0,0,1-3.94-.012Z" transform="translate(-210.53 -274.624)" opacity="0.1"/><g transform="translate(5.871)"><path d="M321.389,368.168l6.245-74.092a6.339,6.339,0,0,0-2.776-5.551,7.056,7.056,0,0,0-6.351.118l-93.144,53.781a8.127,8.127,0,0,0-3.6,5.669l-6.233,74.092a6.292,6.292,0,0,0,2.764,5.551,7.056,7.056,0,0,0,6.363-.118L317.8,373.883a8.08,8.08,0,0,0,3.587-5.716Z" transform="translate(-215.522 -287.827)" fill="#263238"/><path d="M326.494,294.056l-6.233,74.092,4.528-73.551c.165-2.082-.588-2.87-2.352-1.835l-92,53.17a7.421,7.421,0,0,0-2.352,2.411l-6.151-3.528a7.2,7.2,0,0,1,2.352-2.352l93.133-53.782a7.115,7.115,0,0,1,6.374-.118,6.327,6.327,0,0,1,2.7,5.492Z" transform="translate(-214.394 -287.82)" fill="#37474f"/><path d="M220.762,425.07l6.245-74.092a8.08,8.08,0,0,1,3.587-5.669l92-53.241c1.811-1.047,2.564-.247,2.352,1.835l-4.528,73.551a8.08,8.08,0,0,1-3.587,5.68L223.69,426.9C221.926,428,220.6,427.163,220.762,425.07Z" transform="translate(-214.602 -287.161)" fill="#455a64"/><path d="M259.777,368.632l-.717,22.322,25.873-14.877-6.3-18.276Z" transform="translate(-207.857 -275.507)" fill="#263238"/><path d="M263.34,370.936,281.4,360.446l-3.081-1.776-18.053,10.5Z" transform="translate(-207.644 -275.354)" fill="#455a64"/><path d="M292.131,391.522l-9.879-31.342-18.064,10.5-3.058-1.788,2.023,24.133.506,6.939.294,1.482-1.317-.753-5.88-3.364a.988.988,0,0,0-.882-.118h0a.906.906,0,0,0-.412.859v.529a2.822,2.822,0,0,0,1.27,2.235h0l9.667,5.586h0a2.824,2.824,0,0,0,1.176.306,2.706,2.706,0,0,0,1.4-.318l22-12.7A2.27,2.27,0,0,0,292.131,391.522Zm-13.889-2.681a3.8,3.8,0,0,1-5.88-2.352A7.28,7.28,0,0,1,275.6,378.8a3.775,3.775,0,0,1,5.88,2.352A7.268,7.268,0,0,1,278.241,388.841Z" transform="translate(-208.492 -275.088)" fill="#37474f"/><path d="M255.83,392.328l7.5-4.328,1.517,10.091Z" transform="translate(-208.426 -270.19)"/><path d="M264.185,369.376l-3.07-1.776,2.54,31.048c.165.823-.306,1.176-1.011.729l-5.88-3.364c-.717-.423-1.294-.071-1.294.753v.517a2.846,2.846,0,0,0,1.247,2.246h0l9.691,5.586h0a2.7,2.7,0,0,0,1.176.306Z" transform="translate(-208.489 -273.782)" fill="#263238"/><path d="M275.566,386.154a3.775,3.775,0,0,1-4.916-.529,4.292,4.292,0,0,0,2.74-.635,7.245,7.245,0,0,0,3.234-7.68,4.493,4.493,0,0,0-.976-1.87,3.834,3.834,0,0,1,3.14,3.023A7.268,7.268,0,0,1,275.566,386.154Z" transform="translate(-205.816 -272.401)" fill="#263238"/><path d="M261.847,344.837l-1.176,14.289c-.082.941.435,1.376,1.176.964a3.387,3.387,0,0,0,1.435-2.434l1.176-14.277c.082-.953-.435-1.376-1.176-.976a3.446,3.446,0,0,0-1.435,2.434Z" transform="translate(-207.575 -278.245)" fill="#279357"/><path d="M265.787,342.568l-1.176,14.277c-.082.941.435,1.376,1.176.976a3.434,3.434,0,0,0,1.435-2.446L268.4,341.1c.082-.941-.435-1.376-1.176-.964a3.422,3.422,0,0,0-1.435,2.434Z" transform="translate(-206.881 -278.645)" fill="#279357"/><path d="M269.727,340.287l-1.176,14.289c-.082.941.435,1.376,1.176.964a3.387,3.387,0,0,0,1.435-2.434l1.176-14.277c.082-.953-.435-1.376-1.176-.976A3.446,3.446,0,0,0,269.727,340.287Z" transform="translate(-206.187 -279.046)" fill="#279357"/><path d="M273.667,338.018,272.491,352.3c-.071.941.435,1.376,1.176.976a3.434,3.434,0,0,0,1.435-2.446l1.176-14.277c.082-.941-.435-1.376-1.176-.964a3.422,3.422,0,0,0-1.435,2.434Z" transform="translate(-205.493 -279.446)" fill="#279357"/></g></g></g><g transform="translate(225.873 133.319)"><g transform="translate(23.087 64.113)"><path d="M221,224.894c-7.527-7.774-11.961-39.41-4.61-45.584H253.78c7.35,6.163,2.928,37.8-4.6,45.573l-.212.212-.259.259a8.673,8.673,0,0,1-.682.612l-.176.141c-.188.153-.365.294-.564.435a11.468,11.468,0,0,1-.976.635c-6.2,3.611-16.241,3.611-22.439,0h0c-.341-.188-.659-.412-.988-.635a5,5,0,0,1-.529-.412,2.35,2.35,0,0,1-.223-.176c-.071-.071-.447-.388-.659-.588l-.294-.294Z" transform="translate(-212.631 -173.106)" fill="#279357"/><path d="M221,224.894c-7.527-7.774-11.961-39.41-4.61-45.584H253.78c7.35,6.163,2.928,37.8-4.6,45.573l-.212.212-.259.259a8.673,8.673,0,0,1-.682.612l-.176.141c-.188.153-.365.294-.564.435a11.468,11.468,0,0,1-.976.635c-6.2,3.611-16.241,3.611-22.439,0h0c-.341-.188-.659-.412-.988-.635a5,5,0,0,1-.529-.412,2.35,2.35,0,0,1-.223-.176c-.071-.071-.447-.388-.659-.588l-.294-.294Z" transform="translate(-212.631 -173.106)" opacity="0.3"/><path d="M250.444,177.757c8.526,4.987,8.526,13.054,0,18.041s-22.345,4.975-30.9,0-8.526-13.054,0-18.041S241.917,172.818,250.444,177.757Z" transform="translate(-212.54 -174.035)" fill="#279357"/><path d="M250.444,177.757c8.526,4.987,8.526,13.054,0,18.041s-22.345,4.975-30.9,0-8.526-13.054,0-18.041S241.917,172.818,250.444,177.757Z" transform="translate(-212.54 -174.035)" opacity="0.1"/><path d="M245.467,179.651c6.268,3.658,6.268,9.585,0,13.242s-16.465,3.658-22.686,0-6.268-9.585,0-13.242S239.211,175.993,245.467,179.651Z" transform="translate(-211.669 -173.529)" fill="#455a64"/><path d="M222.642,184.991c6.268-3.658,16.465-3.658,22.686,0a10.431,10.431,0,0,1,3.752,3.528,10.326,10.326,0,0,1-3.752,3.528c-6.257,3.658-16.465,3.658-22.686,0a10.42,10.42,0,0,1-3.752-3.528,10.585,10.585,0,0,1,3.752-3.528Z" transform="translate(-211.529 -172.589)" fill="#f5f5f5"/></g><path d="M253.657,134.656l-14.948,10.22,14.113-5.351a25.721,25.721,0,0,1-2.8,10.867s-9.338,4.528-14.407,9.3l12.431-3.9a60.73,60.73,0,0,1-2.011,13.689c-1.07,3.952-4.7,11.3-6.939,15.1a46.6,46.6,0,0,1-3.422,5.057c-.071.106-.153.2-.235.306-2.352-1.541-4.7-3.058-7.2-4.528-1.447-3.669-3.023-12.584-3.317-19.817-1.082-27.7,20.8-41.974,37.881-46.078a49.96,49.96,0,0,0-9.15,15.136Z" transform="translate(-187.386 -119.52)" fill="#279357"/><path d="M253.657,134.656l-14.948,10.22,14.113-5.351a25.721,25.721,0,0,1-2.8,10.867s-9.338,4.528-14.407,9.3l12.431-3.9a60.73,60.73,0,0,1-2.011,13.689c-1.07,3.952-4.7,11.3-6.939,15.1a46.6,46.6,0,0,1-3.422,5.057c-.071.106-.153.2-.235.306-2.352-1.541-4.7-3.058-7.2-4.528-1.447-3.669-3.023-12.584-3.317-19.817-1.082-27.7,20.8-41.974,37.881-46.078a49.96,49.96,0,0,0-9.15,15.136Z" transform="translate(-187.386 -119.52)" opacity="0.2"/><path d="M240.911,132.65a20.687,20.687,0,0,0-3.881,4.7,40.8,40.8,0,0,0-2.74,5.457,56.372,56.372,0,0,0-3.352,11.7,51.747,51.747,0,0,0,1.317,24.074h0a.4.4,0,0,1-.753.235h0a52.3,52.3,0,0,1-.941-24.38,56.6,56.6,0,0,1,3.528-11.761,39.737,39.737,0,0,1,2.834-5.433,21.051,21.051,0,0,1,3.987-4.6Z" transform="translate(-186.565 -117.208)" fill="#fafafa"/><path d="M193,139.36h0a212.965,212.965,0,0,1,14.183,21.287l14.324,2.764-10.667,1.529,5.422,9.2,14.113,3.375-11.114,1.458s2.74,10.89,10.514,15.63c4.293,2.623,6.421,3.07,7.774,1.858.941-.847,1.317-6.021,2.223-10.585s1.176-12.1-2.881-21.31a28.225,28.225,0,0,0-4.328-6.8C222.46,145.758,202.832,139.525,193,139.36Z" transform="translate(-193 -116.027)" fill="#279357"/><path d="M193,139.36h0a212.965,212.965,0,0,1,14.183,21.287l14.324,2.764-10.667,1.529,5.422,9.2,14.113,3.375-11.114,1.458s2.74,10.89,10.514,15.63c4.293,2.623,6.421,3.07,7.774,1.858.941-.847,1.317-6.021,2.223-10.585s1.176-12.1-2.881-21.31a28.225,28.225,0,0,0-4.328-6.8C222.46,145.758,202.832,139.525,193,139.36Z" transform="translate(-193 -116.027)" fill="#fff" opacity="0.3"/><path d="M233.876,169.271h0a43.351,43.351,0,0,1,2.94,12h0a128.741,128.741,0,0,1-.071,15.618,2.411,2.411,0,0,0,.811-.459c.941-.847,1.317-6.021,2.223-10.585s1.176-12.1-2.881-21.31a28.226,28.226,0,0,0-4.328-6.8c-10.126-12-29.754-18.229-39.551-18.394,14.96,2.928,30.813,13.419,38.434,25.3a30.211,30.211,0,0,1,2.423,4.634Z" transform="translate(-192.996 -116.03)" opacity="0.1"/><path d="M205.721,143.76a58.686,58.686,0,0,1,19.593,14.454,38.811,38.811,0,0,1,6.551,10.385,37.023,37.023,0,0,1,2.764,11.9h0a47.55,47.55,0,0,0-3.422-11.62,45.137,45.137,0,0,0-6.292-10.3,51.994,51.994,0,0,0-8.809-8.35,69.317,69.317,0,0,0-10.338-6.433h0S205.7,143.76,205.721,143.76Z" transform="translate(-190.761 -115.252)" fill="#fafafa"/><path d="M275.83,148.058h0a30.425,30.425,0,0,0-3.622,0,57.874,57.874,0,0,0-14.019,2.564c-1.694.529-3.387,1.176-5.057,1.823-.847.341-1.67.706-2.493,1.094a40.456,40.456,0,0,0-11.055,7.433,25.379,25.379,0,0,0-3.928,4.928l-.435.694h0c-.341.612-.647,1.176-.953,1.811a34.67,34.67,0,0,0-4.057,16.865c-.082,4.14,1.059,8.926,1.823,9.75a1.976,1.976,0,0,0,.341.282c1.176.823,3.034.482,6.633-1.282,7.233-3.528,10.585-13.3,10.585-13.3l-9.644-2.2,12.643-1.8,5.516-7.644-9.326-2.258,12.772-1.176a189.342,189.342,0,0,1,14.207-17.547Z" transform="translate(-186.449 -114.505)" fill="#279357"/><path d="M272.161,148a57.875,57.875,0,0,0-13.972,2.623c-1.694.529-3.387,1.176-5.057,1.823-.847.341-1.67.706-2.493,1.094a40.456,40.456,0,0,0-11.055,7.433,25.379,25.379,0,0,0-3.928,4.928l-.435.694h0c-.341.612-.647,1.176-.953,1.811a34.67,34.67,0,0,0-4.057,16.865c-.082,4.14,1.059,8.926,1.823,9.75a1.976,1.976,0,0,0,.341.282,2.07,2.07,0,0,0,.753.329c-.506-6.445,3.528-22.5,8.668-28.908,5.351-6.668,17.641-16.077,34.024-18.664h0a29.82,29.82,0,0,0-3.658-.059Z" transform="translate(-186.449 -114.51)" opacity="0.1"/><path d="M232.61,195.093a54.91,54.91,0,0,1,1.705-14.113,45.655,45.655,0,0,1,5.433-13.16,32.175,32.175,0,0,1,4.6-5.5,45.494,45.494,0,0,1,5.492-4.575,52.678,52.678,0,0,1,12.631-6.621h0a69.388,69.388,0,0,0-12.149,7.209,56.752,56.752,0,0,0-5.422,4.5,31.2,31.2,0,0,0-4.61,5.281,45.583,45.583,0,0,0-5.586,12.937,55.1,55.1,0,0,0-2,14h0Z" transform="translate(-186.026 -113.956)" fill="#fafafa"/></g><g transform="translate(283.013 81.514)"><g transform="translate(1.64 38.564)"><path d="M326.27,272.3h11.937l-1.917,11.643h0a2.152,2.152,0,0,1-1.176,1.447,6.4,6.4,0,0,1-5.774,0,2.176,2.176,0,0,1-1.176-1.447h0Z" transform="translate(-228.315 -79.379)" fill="#fafafa"/><path d="M382,242.44h11.937l-1.905,11.643h0a2.187,2.187,0,0,1-1.176,1.435,6.4,6.4,0,0,1-5.775,0,2.164,2.164,0,0,1-1.176-1.435h0Z" transform="translate(-218.503 -84.637)" fill="#fafafa"/><path d="M251.08,230.19h11.937l-1.905,11.643h0a2.1,2.1,0,0,1-1.176,1.435,6.327,6.327,0,0,1-5.775,0,2.105,2.105,0,0,1-1.176-1.435h0Z" transform="translate(-241.554 -86.793)" fill="#fafafa"/><path d="M302.71,200.16h11.937L312.742,211.8h0a2.129,2.129,0,0,1-1.176,1.435,6.4,6.4,0,0,1-5.774,0,2.129,2.129,0,0,1-1.176-1.435h0Z" transform="translate(-232.464 -92.081)" fill="#fafafa"/><path d="M243,190.467v55.6a12.855,12.855,0,0,0,5.763,10.067l4.7,2.728h.082a13.078,13.078,0,0,0,7.233,1.235l70.858,37.493a12.937,12.937,0,0,0,5.716,9.62h.059l4.7,2.7a2.638,2.638,0,0,0,.435.235l.247.118h.071a13.125,13.125,0,0,0,8.973.412,9.408,9.408,0,0,0,1.011-.365.883.883,0,0,1,.153-.071,5.307,5.307,0,0,0,.682-.353L421.9,270.639a12.843,12.843,0,0,0,5.786-10.02l.094-70.387V163.523A12.937,12.937,0,0,0,422,153.491l-76.256-43.938a11.961,11.961,0,0,0-11.173.188l-4.7,2.717a15.4,15.4,0,0,0-6.668,9.973l-4.54,29.79-4.2-2.423a12.56,12.56,0,0,0-12.6,0l-53.1,30.648A12.854,12.854,0,0,0,243,190.467Z" transform="translate(-242.976 -108.261)" fill="#37474f"/><path d="M317.209,112.458l4.7-2.717a11.961,11.961,0,0,1,11.173-.188l76.244,43.938c.341.2.706.459.6.376a13.219,13.219,0,0,1,5.128,8.679c-.423-2.964-2.834-4.034-5.716-2.352l-4.7,2.728a12.784,12.784,0,0,1-11.572,0l-75.845-43.75C314.01,117.363,314.01,114.3,317.209,112.458Z" transform="translate(-230.333 -108.261)" fill="#455a64"/><path d="M243,184.5v55.6a12.854,12.854,0,0,0,5.763,10.067l4.7,2.728h.082a12.419,12.419,0,0,0,6.786,1.282,11.466,11.466,0,0,0,4.7-1.329l53.605-30.907a12.855,12.855,0,0,0,5.786-10.032V156.288a12.831,12.831,0,0,0-5.786-10.032l-4.2-2.423a12.56,12.56,0,0,0-12.6,0l-53.088,30.648A12.854,12.854,0,0,0,243,184.5Z" transform="translate(-242.976 -102.296)" fill="#263238"/><path d="M314.438,143.829l4.21,2.423c3.187,1.835,3.187,4.845,0,6.68l-53.582,30.942a12.843,12.843,0,0,0-5.8,10.032V249.5c0,3.681-2.611,5.186-5.8,3.352l-4.7-2.728a12.854,12.854,0,0,1-5.786-10.02V184.5a12.937,12.937,0,0,1,5.786-10.032l53.088-30.578a12.537,12.537,0,0,1,12.584-.059Z" transform="translate(-242.98 -102.292)" fill="#455a64"/><path d="M259.268,188.422v55.593c0,3.681-2.611,5.186-5.8,3.352l-4.7-2.728a12.854,12.854,0,0,1-5.786-10.02v-55.6a11.878,11.878,0,0,1,1.705-5.7l16.289,9.409a11.843,11.843,0,0,0-1.705,5.7Z" transform="translate(-242.98 -96.808)" fill="#37474f"/><path d="M259.04,244.321a13.725,13.725,0,0,0,2.117,3.175,24.6,24.6,0,0,0,5.445,3.81c20.358,11.761,35.047,20.2,55.4,31.965a6.421,6.421,0,0,0,5.786,0l18.817-10.879,37.634-21.734a10.879,10.879,0,0,0,0-19.229l-21.334-12.29-16.289-9.409-17.7-10.185a12.784,12.784,0,0,0-11.584,0l-53.57,30.907a12.419,12.419,0,0,0-5.8,9.608A10.256,10.256,0,0,0,259.04,244.321Z" transform="translate(-240.341 -92.433)" fill="#263238"/><path d="M322.009,265.21l-61.155-35.282c-1.588-.917-2.893-.165-2.893,1.682v5.88a6.445,6.445,0,0,0,2.893,5.01l61.155,35.282c1.6.917,2.893.165,2.893-1.67v-5.88a6.374,6.374,0,0,0-2.893-5.022Z" transform="translate(-240.343 -86.908)" fill="#37474f"/><path d="M328.922,175.141l55.357,31.918a12.8,12.8,0,0,1,5.786,10.032v11.761a12.819,12.819,0,0,1-5.786,10.02l-53.593,30.9a12.784,12.784,0,0,1-11.572,0l-55.357-31.93a12.819,12.819,0,0,1-5.786-10.02V216.056a12.831,12.831,0,0,1,5.786-10.032l53.593-30.931a12.784,12.784,0,0,1,11.573.047Z" transform="translate(-240.341 -96.734)" fill="#37474f"/><path d="M314.88,241.019v25.1a11.76,11.76,0,0,0,5.786-1.4l53.593-30.931a12.819,12.819,0,0,0,5.786-10.02V212.005a12.937,12.937,0,0,0-5.2-9.656c2.587,1.858,2.352,4.587-.588,6.315L320.666,239.6A11.76,11.76,0,0,1,314.88,241.019Z" transform="translate(-230.321 -91.695)" fill="#263238"/><path d="M318.645,244.678l-55.357-31.93c-3.187-1.846-3.187-4.834,0-6.68l53.593-30.931a12.784,12.784,0,0,1,11.572,0l55.357,31.918c3.2,1.846,3.2,4.845,0,6.692l-53.593,30.931a12.784,12.784,0,0,1-11.573,0Z" transform="translate(-239.825 -96.73)" fill="#455a64"/></g><path d="M276.35,236.923s4.469,14.3,4.3,19.781c-.188,5.716,1.035,7.715-.459,13.819-.318,1.329-1.258,3.963-1.517,5.045a1.611,1.611,0,0,0,1.282,2.141c2.423.717,6.915-3.528,9.291-8.456a151.05,151.05,0,0,0,6.386-17.359,7.844,7.844,0,0,0-.447-4.046,11.761,11.761,0,0,0-.964-2.164c-.612-2.54-.6-7.28-1.011-10.585Z" transform="translate(-235.464 -47.365)" fill="#b16668"/><path d="M301.341,254.13a5.879,5.879,0,0,1,.506,1.917c0,1.176-2.917,4.7-4.034,5.939a9.138,9.138,0,0,0-2.352,6.3,15.771,15.771,0,0,1-4.645,9.8,25.074,25.074,0,0,1-13.09,7.056c-6.139,1.341-8-1.835-8-1.835s-1.623-3.046-.4-4.14S301.341,254.13,301.341,254.13Z" transform="translate(-236.781 -44.015)" fill="#263238"/><path d="M295.577,244.1c.188,0,.506,0,.929.6.165.223,1.023,3.011,1.811,4.5s2.94,4.375,3.058,6.692c-1.764,4.316-6.186,7.056-7.162,11.2s-1.47,9-8.338,13.584-13.536,4.563-15.806,3-1.835-4.093,1.893-8.668c3.952-4.857,7.268-15.83,7.268-15.83a37.942,37.942,0,0,0,1.023-4.7,31.9,31.9,0,0,0,0-4.7,3.528,3.528,0,0,1,.482-2.105,3.658,3.658,0,0,1,1.87-1.082,15.7,15.7,0,0,1,3.411-.835,5.269,5.269,0,0,1,3.375.694,25.3,25.3,0,0,0,2.011,1.541,3.07,3.07,0,0,0,3.211-.294,2.646,2.646,0,0,0,1.105-2.834,6.856,6.856,0,0,0-.141-.753Z" transform="translate(-236.815 -45.781)" fill="#455a64"/><path d="M290.014,272.889a10.314,10.314,0,0,0-8.915-5.88c-6.845-.541-9.5,2.74-10.714,4.7-1.447,2.352-3.1,6.645-.388,8.15,2.928,1.623,6.492,1.505,12.29-.811S290.014,272.889,290.014,272.889Z" transform="translate(-236.839 -41.758)" fill="#fafafa"/><path d="M288.835,254.738a.729.729,0,0,1-.623-.059c-1.011-.623-6.5-2.27-10.008.482-.4-.376-.259-.988.353-1.811,4.022-2.105,9.22-.576,10.444.188a.659.659,0,0,1,.188.929.717.717,0,0,1-.353.27Z" transform="translate(-235.178 -44.34)" fill="#fafafa"/><path d="M277.285,258.466a2.141,2.141,0,0,1,.565-1.846,12.784,12.784,0,0,1,9.926.435.659.659,0,0,1,.188.929.717.717,0,0,1-.964.212C286.011,257.6,280.8,256.031,277.285,258.466Z" transform="translate(-235.305 -43.717)" fill="#fafafa"/><path d="M274.25,266.237a3.963,3.963,0,0,1,1.082-2.411c3.987-1.964,9.067-.47,10.279.271a.67.67,0,0,1,.188.941.8.8,0,0,1-.353.271.729.729,0,0,1-.623-.059C283.764,264.59,277.708,262.8,274.25,266.237Z" transform="translate(-235.834 -42.479)" fill="#fafafa"/><path d="M286.5,261.767a.682.682,0,0,1-.623,0c-1-.623-6.374-2.223-9.891.388a2.352,2.352,0,0,1,.741-1.976,12.784,12.784,0,0,1,9.926.435.682.682,0,0,1-.153,1.176Z" transform="translate(-235.532 -43.09)" fill="#fafafa"/><path d="M273.425,250.65s-4.222,16.641-7.88,22.922-5.527,9.314-10.232,13.9c-1.023,1-3.317,2.823-4.152,3.634a1.693,1.693,0,0,0,0,2.611c1.752,1.988,9.8,3.093,14.607.082s9.55-9.891,12.478-12.4c1.105-.941,2.14-1.905,3.152-2.94s.811-2.046.988-3.234c.082-.588.129-2.176.129-2.176.859-2.787,2.917-7.056,4.034-9.8Z" transform="translate(-240.007 -44.627)" fill="#b16668"/><path d="M284.529,280.65a6.173,6.173,0,0,1-.388,2.046c-.541,1.058-4.834,3.1-6.468,3.81a9.6,9.6,0,0,0-5.022,4.9,16.465,16.465,0,0,1-8.773,7.186,26.121,26.121,0,0,1-15.548.847c-6.41-1.482-6.739-5.316-6.739-5.316s-.176-3.6,1.47-4.093S284.529,280.65,284.529,280.65Z" transform="translate(-241.585 -39.345)" fill="#263238"/><path d="M284.242,269.539c.176.094.494.223.623.976a49.232,49.232,0,0,0-.294,5.069c.082,1.752.823,5.457-.106,7.7-3.6,3.3-9.009,3.916-11.761,7.4s-5.4,7.868-13.96,9.138-14.842-1.741-16.288-4.222.082-4.7,5.657-7.362c5.88-2.834,13.948-11.761,13.96-11.761a38.9,38.9,0,0,0,3.058-3.987,33.345,33.345,0,0,0,2.082-4.5,3.681,3.681,0,0,1,1.388-1.776,3.775,3.775,0,0,1,2.258-.176,16.972,16.972,0,0,1,3.6.717,5.563,5.563,0,0,1,2.881,2.176c.459.753.682,1.647,1.176,2.352a3.234,3.234,0,0,0,3.175,1.176,2.74,2.74,0,0,0,2.352-2.187A6.533,6.533,0,0,0,284.242,269.539Z" transform="translate(-241.522 -41.936)" fill="#455a64"/><path d="M264.383,294.951a10.761,10.761,0,0,0-5.822-9.5c-6.233-3.587-10.208-1.67-12.231-.353-2.411,1.564-5.88,4.892-4.01,7.539,2.046,2.846,5.48,4.316,12,4.7S264.383,294.951,264.383,294.951Z" transform="translate(-241.55 -38.863)" fill="#fafafa"/><path d="M270.763,277.625a.753.753,0,0,1-.565-.329c-.67-1.047-5.139-5.057-9.691-4.022-.2-.529.2-1.047,1.176-1.552,4.7-.188,8.973,3.528,9.8,4.834a.682.682,0,0,1-.247.964.765.765,0,0,1-.47.106Z" transform="translate(-238.263 -40.919)" fill="#fafafa"/><path d="M258.18,276.024a2.211,2.211,0,0,1,1.341-1.494,13.454,13.454,0,0,1,9.209,4.845.682.682,0,0,1-.247.964.753.753,0,0,1-1.011-.223C266.824,279.1,262.578,275.306,258.18,276.024Z" transform="translate(-238.664 -40.423)" fill="#fafafa"/><path d="M251.88,281.97a4.187,4.187,0,0,1,2.105-1.8c4.7-.071,8.8,3.611,9.6,4.857a.682.682,0,0,1-.235.964.753.753,0,0,1-.447.094.717.717,0,0,1-.564-.329C261.618,284.674,256.725,280.252,251.88,281.97Z" transform="translate(-239.773 -39.43)" fill="#fafafa"/><path d="M265.422,283.266a.705.705,0,0,1-.565-.329c-.67-1.035-5.045-4.951-9.538-4.046a2.517,2.517,0,0,1,1.576-1.541A13.5,13.5,0,0,1,266.1,282.2a.694.694,0,0,1-.235.976.753.753,0,0,1-.447.094Z" transform="translate(-239.167 -39.926)" fill="#fafafa"/><path d="M315.59,171.64c-7.35,4.481-32.612,16.359-43.15,24.592-3.046,2.352-4.269,5.739-4.21,13.3.082,10.267,5.163,45.643,5.163,45.643.941,2.058,3.187-1.505,3.187-1.505l42.256-45.231Z" transform="translate(-236.894 -58.538)" fill="#279357"/><path d="M315.59,171.64c-7.35,4.481-32.612,16.359-43.15,24.592-3.046,2.352-4.269,5.739-4.21,13.3.082,10.267,5.163,45.643,5.163,45.643.941,2.058,3.187-1.505,3.187-1.505l42.256-45.231Z" transform="translate(-236.894 -58.538)" opacity="0.3"/><path d="M274.8,243.241C284.209,236.608,316.586,194,316.586,194h0c-3.611-3.611-4.7-15.159-4.7-15.159-1.905,4.257-.847,11.02.153,13.536-2.411,1.752-15.983,11.126-25.391,17.359a12.643,12.643,0,0,0-5.88,7.456C278.164,226.576,274.765,241.289,274.8,243.241Z" transform="translate(-235.737 -57.271)" opacity="0.3"/><path d="M315.678,171.64h0L363.9,186.658c-3.152,8.82-4.234,13.419-7.139,17.959s-6.127,9.409-19.429,14.607c-12.819,5.022-28.378,10-31.507,11.173-2.352.882-3.81,5.328-5.339,11.114-1.588,6.069-2.093,10.89-9.279,23.3-7.056,12.161-8.479,14.795-8.479,14.795s-9.314.176-14.995-5.727c0,0,12.019-42.7,14.466-50.371,1.364-4.281,1.576-6.574,7.4-10.914,5-3.728,27.05-17.641,27.05-17.641S309.351,183.142,315.678,171.64Z" transform="translate(-236.982 -58.538)" fill="#279357"/><path d="M315.678,171.64h0L363.9,186.658c-3.152,8.82-4.234,13.419-7.139,17.959s-6.127,9.409-19.429,14.607c-12.819,5.022-28.378,10-31.507,11.173-2.352.882-3.81,5.328-5.339,11.114-1.588,6.069-2.093,10.89-9.279,23.3-7.056,12.161-8.479,14.795-8.479,14.795s-9.314.176-14.995-5.727c0,0,12.019-42.7,14.466-50.371,1.364-4.281,1.576-6.574,7.4-10.914,5-3.728,27.05-17.641,27.05-17.641S309.351,183.142,315.678,171.64Z" transform="translate(-236.982 -58.538)" opacity="0.3"/><path d="M315.684,117.374c-.929-.553-1.341-6.751-.353-11.173s-1.058-5.5-2.07-4.116a7.257,7.257,0,0,0-1.247,2.576,12.325,12.325,0,0,0-5.763,3.07c-2.482,2.458-5.4,5.457-4.54,12.008a17.075,17.075,0,0,1-.447,6.515c-3.528,9.62-16.065,21.663-18.888,34.494-2.611,11.761,6.6,12.937,14.642,9.409,9.244-4.152,26.955-19.876,26.955-19.876l7.68-25.768c-4.881,0-8.515.788-14.995,7.056-1.082,1.047-5.586,4.892-5.586,4.892a52.926,52.926,0,0,1,4.61-9.032" transform="translate(-234.483 -70.884)" fill="#b16668"/><path d="M301.854,145.61a56.038,56.038,0,0,1-4.7,8.526,16.806,16.806,0,0,0,6.033-7.056Z" transform="translate(-231.802 -63.121)" fill="#9a4a4d"/><path d="M329.329,121.079c-5.292-.494-9.573.329-13.725,4.34-3.822,3.7-7.915,7.609-7.915,7.609-2.74,6.374-4.7,12.56-6.539,16.924a23.062,23.062,0,0,0,4.916,9.256l21.451-17.229Z" transform="translate(-231.098 -67.463)" fill="#fafafa"/><path d="M309.941,122.234c1.482-2.352-.694-4.634-.694-4.634l3.528-2.352V115.1h0l-14.113-.635a16.947,16.947,0,0,0,.129,3.022,22.116,22.116,0,0,1,.106,3.058l1.835,1.094a1.376,1.376,0,0,0,1.317,0l5.939-3.07C310.024,119.423,309.941,122.234,309.941,122.234Z" transform="translate(-231.539 -68.606)" fill="#9a4a4d"/><path d="M298.824,106.133l24.7-11.655a1.376,1.376,0,0,1,1.388,0c.306.2,1.576.988,1.929,1.176a1.317,1.317,0,0,1,.623,1.176l.8,12.784a3.14,3.14,0,0,1-1.694,2.8l-24.7,11.655a1.458,1.458,0,0,1-1.305,0c-.353-.2-1.729-1.047-2.093-1.282a1.388,1.388,0,0,1-.541-1.082c-.2-3.211-.6-9.573-.8-12.784A3.128,3.128,0,0,1,298.824,106.133Z" transform="translate(-231.806 -72.157)" fill="#37474f"/><path d="M325.918,109.561a1.729,1.729,0,0,1-.847,1.4L301.7,122v.565l-.953-13.607a1.682,1.682,0,0,1,.835-1.376l23.9-11.326h0l-.517.247Z" transform="translate(-231.168 -71.81)" fill="#279357"/><path d="M325.918,109.561a1.729,1.729,0,0,1-.847,1.4L301.7,122v.565l-.953-13.607a1.682,1.682,0,0,1,.835-1.376l23.9-11.326h0l-.517.247Z" transform="translate(-231.168 -71.81)" fill="#fff" opacity="0.75"/><path d="M326.346,109.877a1.741,1.741,0,0,1-.847,1.388l-23.909,11.3V122l23.368-11.043a1.729,1.729,0,0,0,.847-1.4l-.917-13.043.517-.247Z" transform="translate(-231.021 -71.808)" fill="#263238"/><path d="M300.635,122.242h-.071c-.353-.2-1.729-1.047-2.093-1.282a1.388,1.388,0,0,1-.541-1.082c-.2-3.211-.6-9.573-.8-12.784a3.081,3.081,0,0,1,.859-2.164L300,106.106a3.07,3.07,0,0,0-.87,2.176l.8,12.8A1.305,1.305,0,0,0,300.635,122.242Z" transform="translate(-231.806 -70.284)" fill="#263238"/><path d="M326.715,95.654a1.47,1.47,0,0,0-1.27,0l-24.7,11.667a2.635,2.635,0,0,0-.835.612l-2.023-1.176a2.9,2.9,0,0,1,.847-.635l24.7-11.655a1.423,1.423,0,0,1,1.376,0A20.4,20.4,0,0,0,326.715,95.654Z" transform="translate(-231.672 -72.157)" fill="#455a64"/><path d="M300.352,112.309a.917.917,0,0,0-.482.835.353.353,0,0,0,.553.318.941.941,0,0,0,.482-.835.353.353,0,0,0-.553-.318Z" transform="translate(-231.324 -68.995)" opacity="0.35"/><path d="M311.056,115.83c.741-.612,1.011-2.529,2.27-4.257,1.458-1.988,4.822-1.47,3.775.141s-1.411,3.07-2.176,7.174-2.411,4.7-4.246,7.056v-9.891Z" transform="translate(-229.42 -69.341)" fill="#b16668"/><path d="M345.792,123.025c4.057,1.07,17.171,6.245,17.171,6.245,2.823,2.211,1.635,7.056,1.588,12.619-1.094,40.339-8.08,58.309-8.08,58.309-15.783,3.458-44.608-6.574-49.971-18.617,4.822-7.327,8.068-18.276,8.75-39.775.506-15.959,7.762-20.781,12.466-20.746a77.421,77.421,0,0,1,18.076,1.964Z" transform="translate(-230.156 -67.444)" fill="#ebebeb"/><path d="M323.305,97.862a5.739,5.739,0,0,0,0-2.823c-.282-1-.659-1.964-.906-2.964-.318-1.352-.682-2.7-1.082-4.034A19.394,19.394,0,0,1,320,82.3a3.136,3.136,0,0,1,4.41-3.128,10.432,10.432,0,0,1,3.117,1.87,6.5,6.5,0,0,1,1.176-4.057,3.763,3.763,0,0,1,3.8-1.435c1.317.365,2.223,1.552,3.281,2.423,1.929,1.588,4.469,2.152,6.892,2.776a17.1,17.1,0,0,1,7,2.975,10.961,10.961,0,0,1,4.14,8.232c0,1.176-.494,4.081-.682,5.633-.294,2.352-.541,4.7-.917,6.974-1.929,11.761-5.774,20.3-17.641,19.429-4.516-.341-10.82-3.14-12-8.056a17.173,17.173,0,0,1-.223-2.576c-.118-1.729-.165-3.528-.129-5.2a62.185,62.185,0,0,1,1.082-10.3Z" transform="translate(-227.779 -75.47)" fill="#263238"/><path d="M350.259,89.52s2.282.082,3.528,3.058c1.047,2.587,1.529,6.668-1.011,12.937-2.681,6.645-4.787,8.726-6.245,11.2-1.047,1.776-2.717,5.116-2.717,5.116l.741-7.809.67-5.422s-3.34-.764-4.3-6.186c-1.094-6.092.059-6.856.059-6.856Z" transform="translate(-224.179 -72.997)" fill="#455a64"/><path d="M348.906,108.137a1.352,1.352,0,0,0,1.282-.094c1.082-.635,1.588-2,2.505-2.823,1.176-1.07,4.892-2.352,6.41,1.529s-2.293,8.985-5.069,10.044c-4.081,1.552-5.563-2.552-5.563-2.552l-1.576,16.465c-4.7,7.2-9.75,7.774-14.571,7.433s-4.457-4.822-1.364-7.9l.412-5.363a31.5,31.5,0,0,1-6.609-.141c-3.528-.823-5.234-3.658-6.033-7.633a52.925,52.925,0,0,1-.565-13.96,58.145,58.145,0,0,1,2.7-12.654s2.046-1.858,7.985-1.952c4.2,0,9.491-.353,11.69,2.282a6.01,6.01,0,0,0,4.351,5.01C343.625,104.245,348.2,107.832,348.906,108.137Z" transform="translate(-228.142 -73.173)" fill="#b16668"/><path d="M341.148,93.269c-.87-1.6-3.963-2.352-5.751-2.093a41.714,41.714,0,0,0-7.245,2.235,17.053,17.053,0,0,1-5.433.906,9.8,9.8,0,0,1-5.057-1.294,5.882,5.882,0,0,1-.247-9.1,2.423,2.423,0,0,0,1.176,1.976,7.257,7.257,0,0,0,2.223.847,4.387,4.387,0,0,1-1.47-4.128,5.775,5.775,0,0,1,3.375-3.869c1.411-.4,3.046-.823,6.174,1.764S342.653,84.649,341.148,93.269Z" transform="translate(-228.593 -74.947)" fill="#263238"/><path d="M329.385,120.27s8.127-1.023,11.031-2.352a9.315,9.315,0,0,0,4.163-3.528,12.656,12.656,0,0,1-2.54,4.351c-2.234,2.47-12.819,3.622-12.819,3.622Z" transform="translate(-226.156 -68.618)" fill="#9a4a4d"/><path d="M332.21,101.943a1.611,1.611,0,1,0,1.729-1.552,1.646,1.646,0,0,0-1.729,1.552Z" transform="translate(-225.63 -71.083)" fill="#263238"/><path d="M333.1,96.81l3.411,1.858a2.058,2.058,0,0,0-.835-2.728,1.917,1.917,0,0,0-2.576.87Z" transform="translate(-225.473 -71.902)" fill="#263238"/><path d="M333.5,110.26l-6.9,2.046a3.528,3.528,0,0,0,4.4,2.564A3.763,3.763,0,0,0,333.5,110.26Z" transform="translate(-226.617 -69.345)" fill="#9a4a4d"/><path d="M330.62,114.594a3.528,3.528,0,0,1-1.87,0,3.258,3.258,0,0,1,3.469-2.893,2.9,2.9,0,0,1,.906.2A3.7,3.7,0,0,1,330.62,114.594Z" transform="translate(-226.239 -69.093)" fill="#f28f8f"/><path d="M320.011,97.393l3.81-1.176a1.893,1.893,0,0,0-2.352-1.376,2.082,2.082,0,0,0-1.458,2.552Z" transform="translate(-227.79 -72.072)" fill="#263238"/><path d="M321,101.071a1.623,1.623,0,0,0,1.482,1.788A1.67,1.67,0,1,0,321,101.071Z" transform="translate(-227.605 -71.235)" fill="#263238"/><path d="M329.139,99.25l-1.164,10.867L322.53,107.8Z" transform="translate(-227.334 -71.284)" fill="#9a4a4d"/><path d="M332.21,298.972v-55.6A12.937,12.937,0,0,1,338,233.336L391.66,202.37a3.822,3.822,0,0,0,0-6.609l-1.317-.753,4.551-29.79a15.4,15.4,0,0,1,6.668-9.973l4.7-2.717c3.187-1.846,5.786-.341,5.786,3.34v26.755l-.118,70.4a12.819,12.819,0,0,1-5.786,10.02l-68.212,39.269C334.821,304.147,332.21,302.641,332.21,298.972Z" transform="translate(-225.63 -62.042)" fill="#263238"/><path d="M318.37,227.988v55.981a12.937,12.937,0,0,0,5.716,9.62h.059l4.7,2.7a2.641,2.641,0,0,0,.435.235l.247.118h.071a2.812,2.812,0,0,0,.459.176,13.431,13.431,0,0,0,8.515.235,9.4,9.4,0,0,0,1.011-.365c-2.787,1.176-4.939-.423-4.951-3.752h0V237.4a12.854,12.854,0,0,1,5.786-10.032l10.514-6.068,43.15-24.9a3.822,3.822,0,0,0,0-6.609l-4.787-2.764a12.854,12.854,0,0,0-11.572,0l-43.079,24.909-10.491,6.057a12.819,12.819,0,0,0-5.786,10Z" transform="translate(-228.066 -56.072)" fill="#455a64"/><path d="M334.645,231.912v55.593h0c0,3.328,2.164,4.892,4.951,3.752a9.392,9.392,0,0,1-1.011.365,13.431,13.431,0,0,1-8.515-.235,2.811,2.811,0,0,1-.459-.176h-.071l-.247-.118a2.636,2.636,0,0,1-.435-.235l-4.7-2.7H324.1a12.937,12.937,0,0,1-5.716-9.62c0-.118,0-.259,0-.376V222.5a11.855,11.855,0,0,1,1.693-5.7l16.289,9.409a11.761,11.761,0,0,0-1.717,5.7Z" transform="translate(-228.064 -50.587)" fill="#37474f"/><g transform="translate(86.334 61.778)"><path d="M383.06,184.233c-1.564-12.255-2.87-18.629-4.481-26.85-3.752-19.076-2.87-24.556-16.665-28.143,0,0-5,4.4-5.21,15.689-.153,8.526,2.352,13.219,2.352,13.219l5.88,28.226c-5.092,4.7-18.147,14.96-21.334,16.641-4.293,2.282-9.056,3.164-13.642,4.7-3.046,1.047-5.88,2.352-8.868,3.6a1.175,1.175,0,0,0-.447.247.917.917,0,0,0-.188.976,1.776,1.776,0,0,0,.682.788,5.7,5.7,0,0,0,4.94.67c1.4-.318,2.6-1.058,4.257-1.011.318,0,.659.094.529.494a2.868,2.868,0,0,1-.506.753,11.49,11.49,0,0,1-4.634,2.235,18.912,18.912,0,0,1-4.939.706,20,20,0,0,0-4.022.271,3.058,3.058,0,0,0-1.176.506c-1.823,1.423,1.07,2.517,1.658,3.528.306.517.847,1.435,1.176,1.917a3.905,3.905,0,0,0,1.411.894,19.285,19.285,0,0,1,1.893,1.364,9.209,9.209,0,0,0,5.21,1.352,29.215,29.215,0,0,0,4.634-.482,19.746,19.746,0,0,0,8.95-3.481,26.865,26.865,0,0,0,3.058-2.834c.823-.859,1.635-1.741,2.517-2.564a52.162,52.162,0,0,1,4.54-3.446c2.293-1.329,15.442-7.55,28.625-16.747C385.047,193.394,383.754,189.6,383.06,184.233Z" transform="translate(-314.994 -127.782)" fill="#b16668"/><path d="M355.423,128c9.773,3.175,12.431,7.3,13.36,10.432,1.352,4.5,2.352,9.644,3.975,17.253,2.352,11.384,2.775,15.889,2.775,15.889s-5.386,4.363-19.382,4.187l-4.7-18.511S344.638,141.054,355.423,128Z" transform="translate(-308.949 -128)" fill="#fafafa"/></g></g><g transform="translate(422.582 185.971)"><g transform="translate(0 43.268)"><path d="M366.64,285.692l7.492-4.328L366.64,279.2Z" transform="translate(-359.137 -187.326)" fill="#279357"/><path d="M366.64,285.692l7.492-4.328L366.64,279.2Z" transform="translate(-359.137 -187.326)" fill="#fff" opacity="0.6"/><path d="M366.64,285.692l7.492-4.328L366.64,279.2Z" transform="translate(-359.137 -187.326)" opacity="0.05"/><path d="M367.2,286.016l-3.752-2.164V277.36l3.752,2.164Z" transform="translate(-359.698 -187.65)" fill="#279357"/><path d="M367.2,286.016l-3.752-2.164V277.36l3.752,2.164Z" transform="translate(-359.698 -187.65)" fill="#fff" opacity="0.75"/><path d="M398.56,302.315v6.9l54.217-31.3v-6.9Z" transform="translate(-353.517 -188.766)" fill="#279357"/><path d="M398.56,302.315v6.9l54.217-31.3v-6.9Z" transform="translate(-353.517 -188.766)" fill="#fff" opacity="0.6"/><path d="M398.56,302.315v6.9l54.217-31.3v-6.9Z" transform="translate(-353.517 -188.766)" opacity="0.1"/><path d="M399.122,304.857l-3.752-2.164v-6.9l3.752,2.164Z" transform="translate(-354.078 -184.405)" fill="#279357"/><path d="M399.122,304.857l-3.752-2.164v-6.9l3.752,2.164Z" transform="translate(-354.078 -184.405)" fill="#fff" opacity="0.75"/><path d="M455.968,225.03l-54.228,31.3v56.251l54.228-31.3Z" transform="translate(-352.957 -196.863)" fill="#279357"/><path d="M455.968,225.03l-54.228,31.3v56.251l54.228-31.3Z" transform="translate(-352.957 -196.863)" fill="#fff" opacity="0.6"/><path d="M409.043,255.857,360.26,227.69v56.251l48.783,28.167Z" transform="translate(-360.26 -196.395)" fill="#279357"/><path d="M409.043,255.857,360.26,227.69v56.251l48.783,28.167Z" transform="translate(-360.26 -196.395)" fill="#fff" opacity="0.75"/><path d="M360.26,232.375l54.228-31.3,48.783,28.167-54.228,31.3Z" transform="translate(-360.26 -201.08)" fill="#279357"/><path d="M360.26,232.375l54.228-31.3,48.783,28.167-54.228,31.3Z" transform="translate(-360.26 -201.08)" fill="#fff" opacity="0.85"/><path d="M404.742,271.769,363.45,247.93v30.284l41.292,23.839Z" transform="translate(-359.698 -192.831)" fill="#279357"/><path d="M404.742,271.769,363.45,247.93v30.284l41.292,23.839Z" transform="translate(-359.698 -192.831)" fill="#fff" opacity="0.7"/><path d="M363.45,275.962,389.5,260.72l15.242,8.8V299.8Z" transform="translate(-359.698 -190.579)" opacity="0.1"/><path d="M363.45,278.214l26.05-15.242L363.45,247.93Z" transform="translate(-359.698 -192.831)" opacity="0.05"/><path d="M404.742,257.049,363.45,233.21v12.984l41.292,23.839Z" transform="translate(-359.698 -195.423)" fill="#279357"/><path d="M404.742,257.049,363.45,233.21v12.984l41.292,23.839Z" transform="translate(-359.698 -195.423)" fill="#fff" opacity="0.85"/><path d="M389.913,250.985c0,.6-1.788,0-3.987-1.176l-7-4.14c-2.211-1.27-4-2.787-4-3.387V241.2l14.983,8.656Z" transform="translate(-357.677 -194.016)" fill="#455a64"/></g><g transform="translate(62.061 62.121)" opacity="0.1"><path d="M426.908,233.787a18.605,18.605,0,0,0,10.185-2.775c2.352-1.576,3.681-3.528,3.681-5.563s-1.305-3.987-3.681-5.563a20.1,20.1,0,0,0-20.381,0c-2.352,1.576-3.681,3.528-3.681,5.563s1.305,3.987,3.681,5.563A18.617,18.617,0,0,0,426.908,233.787Z" transform="translate(-413.03 -217.11)"/></g><g transform="translate(56.999)"><path d="M417.08,224.72a3.705,3.705,0,0,1,.071-.717,10.843,10.843,0,0,1,4.4-6.562h9.209a10.843,10.843,0,0,1,4.4,6.562,3.732,3.732,0,0,1,.071.729v.118a4.634,4.634,0,0,1-2.646,3.528,14.172,14.172,0,0,1-12.831,0,4.634,4.634,0,0,1-2.646-3.528,1.177,1.177,0,0,1-.023-.129Z" transform="translate(-407.255 -154.931)" fill="#37474f"/><path d="M430.071,217.466c2.411,1.4,2.411,3.646,0,5.045a9.667,9.667,0,0,1-8.726,0c-2.352-1.4-2.352-3.646,0-5.045A9.667,9.667,0,0,1,430.071,217.466Z" transform="translate(-406.815 -155.11)" fill="#455a64"/><path d="M423.73,191.21h2.505v32.259h0a.565.565,0,0,1-.353.565,1.964,1.964,0,0,1-1.776,0,.564.564,0,0,1-.353-.564h0Z" transform="translate(-406.084 -159.55)" fill="#263238"/><path d="M409.119,190.426h0l8.715-22.216h19.593l8.715,22.216h0c1.235,3.528-.47,7.233-5.139,9.938-7.386,4.257-19.346,4.257-26.732,0C409.589,197.659,407.872,193.907,409.119,190.426Z" transform="translate(-408.726 -163.599)" fill="#279357"/><path d="M433.381,174.216a15.665,15.665,0,0,1-14.172,0c-3.916-2.258-3.916-5.88,0-8.232a15.665,15.665,0,0,1,14.172,0C437.3,168.289,437.3,171.958,433.381,174.216Z" transform="translate(-407.397 -164.289)" fill="#279357"/><path d="M433.381,174.216a15.665,15.665,0,0,1-14.172,0c-3.916-2.258-3.916-5.88,0-8.232a15.665,15.665,0,0,1,14.172,0C437.3,168.289,437.3,171.958,433.381,174.216Z" transform="translate(-407.397 -164.289)" fill="#fff" opacity="0.3"/><path d="M426.116,174.576a13.313,13.313,0,0,0,6.515-1.541c1.517-.882,2.352-1.976,2.352-3.093a3.9,3.9,0,0,0-2.352-3.081,14.525,14.525,0,0,0-13.019,0,3.9,3.9,0,0,0-2.352,3.081c0,1.117.835,2.211,2.352,3.093a13.29,13.29,0,0,0,6.5,1.541Z" transform="translate(-407.223 -164.108)" fill="#279357"/><path d="M426.116,174.576a13.313,13.313,0,0,0,6.515-1.541c1.517-.882,2.352-1.976,2.352-3.093a3.9,3.9,0,0,0-2.352-3.081,14.525,14.525,0,0,0-13.019,0,3.9,3.9,0,0,0-2.352,3.081c0,1.117.835,2.211,2.352,3.093a13.29,13.29,0,0,0,6.5,1.541Z" transform="translate(-407.223 -164.108)" opacity="0.15"/></g></g><g transform="translate(455.324 41.147)"><g transform="translate(28.661 48.283)"><path d="M457.179,103.91,420.3,82.611a2.129,2.129,0,0,0-2.176-.2l-4.7,2.74a2.14,2.14,0,0,0-.906,1.988v53.629a6.751,6.751,0,0,0,3.058,5.292l36.881,21.3a2.152,2.152,0,0,0,2.176.2l4.763-2.752a2.14,2.14,0,0,0,.894-1.976V109.2a6.739,6.739,0,0,0-3.1-5.292Z" transform="translate(-412.465 -82.202)" fill="#455a64"/><path d="M453.939,105.611v53.617a2.176,2.176,0,0,1-.894,1.988l-4.622,2.658a2.246,2.246,0,0,0,.741-1.882V108.363a6.292,6.292,0,0,0-.894-3.011l4.775-2.752A6.221,6.221,0,0,1,453.939,105.611Z" transform="translate(-406.167 -78.611)" fill="#263238"/><path d="M415.528,145.636l36.881,21.3c1.694.964,3.058.176,3.058-1.764V111.554a6.715,6.715,0,0,0-3.058-5.292l-36.881-21.3c-1.694-.976-3.058-.188-3.058,1.764v53.629A6.786,6.786,0,0,0,415.528,145.636Z" transform="translate(-412.47 -81.79)" fill="#455a64"/><path d="M459.193,106.19l-4.775,2.752a6.328,6.328,0,0,0-2.164-2.282L415.373,85.374a2.258,2.258,0,0,0-2.023-.294c.858-.494,4.116-2.352,4.622-2.67a2.14,2.14,0,0,1,2.176.212l36.881,21.287a6.139,6.139,0,0,1,2.164,2.282Z" transform="translate(-412.315 -82.201)" fill="#37474f"/><g transform="translate(5.331 18.045)"><path d="M443.273,138.3c-.812-1.47-1.682-2.881-2.54-4.293-1.694-2.823-3.258-3.869-4.528-1.635a2.352,2.352,0,0,1-3.846,0,34.823,34.823,0,0,1-6.41-13.325c-.576-2.352.518-4.7,1.858-5.351a2.176,2.176,0,0,0,1.376-2.458c-.071-2.176-3.422-11.22-4.7-12.725a2.352,2.352,0,0,0-1.646-.964c-3.1-.176-6.821,3.681-5.586,9.044,3.669,16.006,6.7,24.427,16.947,37.8,4.363,5.739,9.961,2.587,10.961.341.659-2.493-.729-4.434-1.835-6.445Z" transform="translate(-417.003 -97.545)" fill="#fafafa"/><path d="M432.687,103.182c6.5,5.3,9.5,11.761,10.338,22.345.071.976-.153,2.246.717,2.775s.682-.964.694-1.893c-.165-10.843-4.563-20.887-11.561-25.309-.423-.259-1.447-1.341-1.505.247,0,1.082.776,1.376,1.317,1.811Z" transform="translate(-414.474 -97.025)" fill="#fafafa"/><path d="M433.012,106.317c-.623-.47-1.458-1.411-1.6-.153s.764,1.705,1.364,2.246c4.01,3.7,5.41,6.762,6.08,13.29.094.953-.106,2.235.882,2.564.741.259.47-1.094.529-1.752,0-5.88-3.246-13.137-7.256-16.194Z" transform="translate(-414.469 -96.138)" fill="#fafafa"/><path d="M432.4,110.761c-.423-.223-.823-.4-.976.2a1.682,1.682,0,0,0,.741,1.835,7.962,7.962,0,0,1,2.681,5.974,1.79,1.79,0,0,0,.764,1.611c.435.176.647-.553.623-1.341,0-2.834-2.058-7.327-3.834-8.232Z" transform="translate(-414.473 -95.255)" fill="#fafafa"/></g></g><g transform="translate(25.41)"><path d="M455.514,88.346l-2.105-4.7a1.964,1.964,0,0,0-1.047-.882,12.232,12.232,0,0,1-1.611-.659.376.376,0,0,0-.294,0,.27.27,0,0,0-.165.188l-1.058,2.823a1.306,1.306,0,0,1-.882.835,1.27,1.27,0,0,1-1.176-.341l-3.646-3.281a2.693,2.693,0,0,1-.811-2.187l.47-3.646a2.235,2.235,0,0,0-.376-1.4,24.652,24.652,0,0,1-1.658-2.529,1.411,1.411,0,0,0-1.023-.612h-2.493a2.152,2.152,0,0,1-1.893-1.341l-1.988-5.375a1.576,1.576,0,0,1,.059-1.176,1.505,1.505,0,0,1,.906-.811l2.058-.717a.682.682,0,0,0,.388-.706c-.129-.87-.223-1.741-.27-2.576a2.446,2.446,0,0,0-.565-1.376l-3.234-3.54a2.587,2.587,0,0,1-.6-2.258l.882-3.681a1.176,1.176,0,0,1,1.952-.694l3.269,2.47a.423.423,0,0,0,.588-.118,6.588,6.588,0,0,1,.776-.835,1.176,1.176,0,0,0,.341-1.011l-1.329-4.81a1.446,1.446,0,0,1,.153-1.176,1.493,1.493,0,0,1,1.023-.659l2.611-.4a1.988,1.988,0,0,1,2.035,1.105l2.105,4.7a1.976,1.976,0,0,0,1.035.882,11.761,11.761,0,0,1,1.623.659.376.376,0,0,0,.294,0,.329.329,0,0,0,.165-.188L451.08,45.5a1.306,1.306,0,0,1,.882-.835,1.282,1.282,0,0,1,1.176.341l3.646,3.281a2.693,2.693,0,0,1,.811,2.187l-.47,3.646a2.235,2.235,0,0,0,.376,1.4,24.642,24.642,0,0,1,1.658,2.529,1.388,1.388,0,0,0,1.023.612h2.493A2.152,2.152,0,0,1,464.57,60l1.988,5.375a1.576,1.576,0,0,1,0,1.176,1.541,1.541,0,0,1-.906.811l-2.058.717a.694.694,0,0,0-.4.706,22.32,22.32,0,0,1,.271,2.576,2.622,2.622,0,0,0,.565,1.376l3.093,3.516a2.67,2.67,0,0,1,.6,2.258l-.882,3.622a1.176,1.176,0,0,1-.776.917,1.246,1.246,0,0,1-1.176-.223l-3.258-2.47a.435.435,0,0,0-.588.118,7.493,7.493,0,0,1-.776.835,1.176,1.176,0,0,0-.341,1.011l1.4,4.857a1.447,1.447,0,0,1-.153,1.176,1.494,1.494,0,0,1-1.023.659l-2.611.4h-.259a2.011,2.011,0,0,1-1.764-1.07Zm6.8-8.856,3.269,2.47.094.059V81.9l.894-3.669a1.529,1.529,0,0,0-.318-1.176l-3.211-3.364a3.681,3.681,0,0,1-.882-2.117,20.3,20.3,0,0,0-.259-2.458,1.811,1.811,0,0,1,1.176-1.964l2.058-.729a.376.376,0,0,0,.235-.212.4.4,0,0,0,0-.329l-1.976-5.375a1.07,1.07,0,0,0-.835-.588h-2.481a2.552,2.552,0,0,1-2.011-1.176,27.172,27.172,0,0,0-1.564-2.482,3.528,3.528,0,0,1-.588-2.235l.47-3.646a1.564,1.564,0,0,0-.435-1.176L452.3,45.925c-.071-.059-.106-.071-.118-.071a.4.4,0,0,0-.071.118l-1.058,2.823a1.411,1.411,0,0,1-.812.847,1.47,1.47,0,0,1-1.235,0,13.806,13.806,0,0,0-1.47-.6,3.046,3.046,0,0,1-1.741-1.505L443.683,42.7a.835.835,0,0,0-.8-.435l-2.611.4a.365.365,0,0,0-.223.141.317.317,0,0,0,0,.259l1.435,4.81a2.27,2.27,0,0,1-.67,2.187,7.442,7.442,0,0,0-.659.706,1.564,1.564,0,0,1-2.2.318l-3.258-2.47H434.6a.343.343,0,0,0,0,.118l-.894,3.669h0a1.529,1.529,0,0,0,.318,1.176l3.211,3.364a3.681,3.681,0,0,1,.882,2.117,20.06,20.06,0,0,0,.259,2.458,1.823,1.823,0,0,1-1.176,1.964l-2.058.729a.376.376,0,0,0-.235.212.4.4,0,0,0,0,.329l1.976,5.363a1.035,1.035,0,0,0,.835.6H440.2a2.576,2.576,0,0,1,2.011,1.176,27.152,27.152,0,0,0,1.6,2.434,3.528,3.528,0,0,1,.588,2.235l-.47,3.646a1.564,1.564,0,0,0,.435,1.176l3.646,3.281a.258.258,0,0,0,.106.071l.071-.118,1.07-2.823a1.376,1.376,0,0,1,.811-.847,1.435,1.435,0,0,1,1.176.059,15.053,15.053,0,0,0,1.482.6,3.081,3.081,0,0,1,1.741,1.505l2.105,4.7a.835.835,0,0,0,.8.435l2.611-.4a.294.294,0,0,0,.247-.4l-1.435-4.81a2.27,2.27,0,0,1,.67-2.187,6.352,6.352,0,0,0,.682-.67,1.646,1.646,0,0,1,1.27-.623,1.494,1.494,0,0,1,.894.329Zm-14.454-5.88h0c-4.093-3.669-6.539-10.338-5.457-14.854a5.08,5.08,0,0,1,3.281-3.952c2-.623,4.446.2,6.727,2.258,4.093,3.669,6.539,10.338,5.457,14.854a5.081,5.081,0,0,1-3.281,3.952,4.786,4.786,0,0,1-1.364.2,8.315,8.315,0,0,1-5.363-2.505Zm-1.835-17.641a3.916,3.916,0,0,0-2.493,3.117c-1.023,4.034,1.329,10.2,5.092,13.642,1.976,1.776,4.022,2.505,5.622,2.011a3.916,3.916,0,0,0,2.493-3.187c1-4.14-1.294-10.3-5.1-13.725a7.221,7.221,0,0,0-4.575-2.164,3.339,3.339,0,0,0-1.023.2Z" transform="translate(-405.703 -41.147)" fill="#279357"/><path d="M426.281,76.08l-1.517-3.422a1.282,1.282,0,0,0-.682-.576,10.782,10.782,0,0,1-1.176-.482h-.188l-.764,2.129a.953.953,0,0,1-1.611.388l-2.623-2.352a2.058,2.058,0,0,1-.612-1.646l.341-2.623a1.657,1.657,0,0,0-.259-.929,17.222,17.222,0,0,1-1.176-1.823.964.964,0,0,0-.647-.4l-1.788-.024a1.658,1.658,0,0,1-1.447-1.035l-1.423-3.857a1.162,1.162,0,0,1,.706-1.576l1.482-.517a.365.365,0,0,0,.212-.4,17.157,17.157,0,0,1-.188-1.858,1.646,1.646,0,0,0-.376-.917l-2.352-2.352a2.023,2.023,0,0,1-.447-1.717l.635-2.634a.941.941,0,0,1,1.552-.553l2.352,1.764a.2.2,0,0,0,.282-.071,5.625,5.625,0,0,1,.576-.6.706.706,0,0,0,.212-.623l-1.023-3.458a1.146,1.146,0,0,1,.929-1.47l1.87-.282a1.506,1.506,0,0,1,1.564.847l1.517,3.422a1.282,1.282,0,0,0,.682.576,10.653,10.653,0,0,1,1.176.47.392.392,0,0,0,.188-.059l.764-2.023a1.023,1.023,0,0,1,.694-.659,1.035,1.035,0,0,1,.929.259l2.611,2.352A2.011,2.011,0,0,1,427.869,49l-.329,2.623a1.564,1.564,0,0,0,.247.929,16.1,16.1,0,0,1,1.176,1.823.964.964,0,0,0,.647.4H431.4a1.658,1.658,0,0,1,1.447,1.035l1.494,3.81A1.176,1.176,0,0,1,433.6,61.2l-1.482.517a.376.376,0,0,0-.224.388,14.857,14.857,0,0,1,.2,1.87,1.776,1.776,0,0,0,.376.917l2.352,2.352a2.046,2.046,0,0,1,.459,1.705l-.635,2.646a1.011,1.011,0,0,1-.623.729,1,1,0,0,1-.941-.176l-2.352-1.764c-.106-.094-.235,0-.282.071a5.577,5.577,0,0,1-.576.6.706.706,0,0,0-.212.623l1.023,3.458a1.112,1.112,0,0,1-.929,1.458l-1.87.294h-.188a1.552,1.552,0,0,1-1.411-.811Zm5.034-6.48,2.258,1.835.635-2.646a.953.953,0,0,0-.212-.753L431.7,65.613a2.681,2.681,0,0,1-.659-1.576,15.594,15.594,0,0,0-.188-1.752,1.423,1.423,0,0,1,.894-1.517l1.482-.517a.212.212,0,0,0,.118-.106.223.223,0,0,0,0-.153l-1.4-3.9a.659.659,0,0,0-.506-.365h-1.776a1.952,1.952,0,0,1-1.517-.894,20.27,20.27,0,0,0-1.176-1.741,2.576,2.576,0,0,1-.435-1.67l.341-2.623a1.105,1.105,0,0,0-.282-.753l-2.587-2.352-.764,2.023a1.106,1.106,0,0,1-.647.67,1.176,1.176,0,0,1-.953,0,10.858,10.858,0,0,0-1.047-.423,2.282,2.282,0,0,1-1.305-1.176l-1.517-3.411a.494.494,0,0,0-.47-.259l-1.87.294-.071-.506v.659l1.023,3.458a1.729,1.729,0,0,1-.506,1.67,6.272,6.272,0,0,0-.47.494,1.176,1.176,0,0,1-1.705.247l-2.282-1.8-.635,2.646h0a.976.976,0,0,0,.212.753l2.293,2.352a2.787,2.787,0,0,1,.659,1.588,11.224,11.224,0,0,0,.188,1.752,1.411,1.411,0,0,1-.894,1.517l-1.482.517a.212.212,0,0,0-.118.106.224.224,0,0,0,0,.153l1.423,3.858a.623.623,0,0,0,.506.353h1.776a2,2,0,0,1,1.529.894,19.28,19.28,0,0,0,1.176,1.741,2.576,2.576,0,0,1,.435,1.67l-.376,2.67a1.105,1.105,0,0,0,.282.753L421,73.3l.812-1.929a1.212,1.212,0,0,1,1.611-.67,9.588,9.588,0,0,0,1.035.423,2.282,2.282,0,0,1,1.305,1.176l1.517,3.411a.506.506,0,0,0,.47.259l1.87-.294.094-.153-1.023-3.458a1.717,1.717,0,0,1,.506-1.67,6.271,6.271,0,0,0,.47-.494,1.174,1.174,0,0,1,1.647-.271Zm-10.5-4.1h0c-2.964-2.658-4.7-7.48-3.94-10.749a3.717,3.717,0,0,1,2.423-2.9c1.458-.459,3.258.141,4.916,1.635,2.964,2.658,4.7,7.48,3.94,10.749a3.728,3.728,0,0,1-2.411,2.9,3.292,3.292,0,0,1-1.011.153,6.092,6.092,0,0,1-3.916-1.788Zm-1.176-12.678a2.717,2.717,0,0,0-1.717,2.164c-.706,2.94.917,7.315,3.622,9.75h0c1.388,1.247,2.823,1.764,3.94,1.423A2.74,2.74,0,0,0,427.2,63.99c.706-2.94-.917-7.315-3.622-9.75a5.1,5.1,0,0,0-3.222-1.529,2.47,2.47,0,0,0-.764.153Z" transform="translate(-409.706 -40.971)" fill="#279357"/></g><g transform="translate(0 24.994)"><path d="M397.391,133.176a5.092,5.092,0,0,1-2.587-.776l-.317-.2a.917.917,0,0,1-.271-1.176l2.94-5.88-1.505-4.963-2.693-1.588-2.623,5.339a.541.541,0,0,1-.553.306c-.529,0-.929-.894-1.058-1.4a18.616,18.616,0,0,1-.623-4.8c0-3.963,1.47-6.692,3.81-7.268V81.37a20.181,20.181,0,0,1-3.81-11.608c0-3.352,1.07-5.88,2.881-6.892a4.3,4.3,0,0,1,4.41.294l.318.2a.953.953,0,0,1,.271,1.176l-2.94,5.88,1.505,4.963,2.693,1.588,2.67-5.363a.541.541,0,0,1,.553-.306c.529,0,.929.894,1.058,1.411a19.113,19.113,0,0,1,.623,4.787c0,3.963-1.47,6.692-3.81,7.268v29.4a20.264,20.264,0,0,1,3.81,11.608c0,3.352-1.07,5.88-2.881,6.892a3.67,3.67,0,0,1-1.87.506Zm-4.7-15.842,3.8,2.246L398.2,125.2l-3.164,6.21a.647.647,0,0,0,.247.223,3.411,3.411,0,0,0,3.528.294c1.505-.859,2.352-3.152,2.434-6.139a19.311,19.311,0,0,0-3.716-11.173l-.094-.129V84.075h.376c2.07-.294,3.411-2.834,3.434-6.48a18.509,18.509,0,0,0-.6-4.563,2.059,2.059,0,0,0-.188-.482l-2.87,5.763-3.8-2.27-1.705-5.622L395.18,64.2a.588.588,0,0,0-.235-.212,3.411,3.411,0,0,0-3.528-.294c-1.505.859-2.423,3.152-2.434,6.139a19.147,19.147,0,0,0,3.7,11.149l.094.118v30.425h-.388c-2.058.294-3.411,2.834-3.422,6.48h0a17.875,17.875,0,0,0,.588,4.563,2.059,2.059,0,0,0,.188.482Z" transform="translate(-388.1 -62.399)" fill="#279357"/></g></g><g transform="translate(106.973 49.758)"><g transform="translate(185.007)"><path d="M254.9,48.682l43,24.815a1.929,1.929,0,0,1,.87,1.505V105.11a1.917,1.917,0,0,1-.87,1.494l-3.07,1.776a1.905,1.905,0,0,1-1.729,0L250.069,83.552a1.952,1.952,0,0,1-.859-1.505V51.893a1.87,1.87,0,0,1,.87-1.482l3.093-1.741a1.905,1.905,0,0,1,1.729.012Z" transform="translate(-249.21 -48.469)" fill="#279357"/><path d="M293.936,107.469V77.292a1.929,1.929,0,0,0-.87-1.505l-43-24.768c-.47-.282-.859-.059-.859.494V81.6a1.952,1.952,0,0,0,.859,1.505l43,24.838C293.548,108.222,293.936,108,293.936,107.469Z" transform="translate(-249.21 -48.041)" fill="#279357"/><path d="M293.936,107.469V77.292a1.929,1.929,0,0,0-.87-1.505l-43-24.768c-.47-.282-.859-.059-.859.494V81.6a1.952,1.952,0,0,0,.859,1.505l43,24.838C293.548,108.222,293.936,108,293.936,107.469Z" transform="translate(-249.21 -48.041)" fill="#279357"/><path d="M286.5,104.532a1.964,1.964,0,0,0,1.741,0l3.093-1.776a1.917,1.917,0,0,0,.87-1.494V71.132a1.659,1.659,0,0,0-.282-.882l-4.834,2.776a1.811,1.811,0,0,1,.259.859v30.178C287.37,104.544,287.006,104.826,286.5,104.532Z" transform="translate(-242.645 -44.634)" opacity="0.2"/><path d="M249.22,51.739c.071-.435.423-.588.847-.341l43,24.815a1.8,1.8,0,0,1,.612.647l4.822-2.74a1.705,1.705,0,0,0-.6-.623l-43-24.815a1.905,1.905,0,0,0-1.729,0L250.137,50.4a1.917,1.917,0,0,0-.917,1.341Z" transform="translate(-249.208 -48.468)" fill="#fff" opacity="0.4"/><path d="M294.436,91.64l4.7-2.681a.8.8,0,0,0,.165-1.235l-7.35-9.173-4.7,2.7,7.339,9.173a.812.812,0,0,1-.153,1.211Z" transform="translate(-242.512 -43.172)" fill="#279357"/><path d="M294.436,91.64l4.7-2.681a.8.8,0,0,0,.165-1.235l-7.35-9.173-4.7,2.7,7.339,9.173a.812.812,0,0,1-.153,1.211Z" transform="translate(-242.512 -43.172)" fill="#fff" opacity="0.4"/><path d="M287.24,80.85l7.35,9.173a.776.776,0,0,1-.494,1.329l-6.856.741Z" transform="translate(-242.514 -42.767)" fill="#279357"/><path d="M282.589,79.581c0,1.176-.847,1.576-1.882.964l-23.886-13.76a4.151,4.151,0,0,1-1.882-3.2c0-1.176.847-1.576,1.882-.964l23.886,13.783a4.152,4.152,0,0,1,1.882,3.175Z" transform="translate(-248.201 -46.027)" fill="#fafafa"/><path d="M287.94,90.543c0,1.176-.847,1.576-1.882.964L256.822,74.666a4.151,4.151,0,0,1-1.882-3.2c0-1.176.847-1.576,1.882-.964l29.214,16.853a4.152,4.152,0,0,1,1.905,3.187Z" transform="translate(-248.201 -44.639)" fill="#fafafa"/></g><g transform="translate(0 18.489)"><path d="M128.85,131.059l-4.7-8.679,3.716-10.726V105.08l-11.373,6.574v6.562l4.881,8.468a.694.694,0,0,0,.341.294h0Z" transform="translate(-87.571 -56.991)" fill="#279357"/><path d="M128.85,131.059l-4.7-8.679,3.716-10.726V105.08l-11.373,6.574v6.562l4.881,8.468a.694.694,0,0,0,.341.294h0Z" transform="translate(-87.571 -56.991)" opacity="0.2"/><path d="M162.582,72.5a7.562,7.562,0,0,0-3.411-5.88l-2.776-1.6a7.5,7.5,0,0,0-6.821,0l-54.264,31.3A7.527,7.527,0,0,0,91.9,102.2v33.259a7.527,7.527,0,0,0,3.411,5.88l2.776,1.611a7.574,7.574,0,0,0,6.821,0l23.1-13.442,4.881,8.444a.729.729,0,0,0,1.317-.118l5.151-14.889,19.793-11.314a7.562,7.562,0,0,0,3.411-5.88Z" transform="translate(-91.9 -64.188)" fill="#279357"/><path d="M91.9,130.293a7.527,7.527,0,0,0,3.411,5.88l2.776,1.611a7.656,7.656,0,0,0,6.233.271c-1.6.612-2.823-.294-2.823-2.246V102.573a6.857,6.857,0,0,1,1-3.352L92.9,93.67a6.939,6.939,0,0,0-1,3.364Z" transform="translate(-91.9 -59)" opacity="0.2"/><path d="M162.285,71.54c-.4-1.447-1.717-1.905-3.293-1l-54.2,31.319a6.833,6.833,0,0,0-2.352,2.552L92.85,98.872a6.774,6.774,0,0,1,2.352-2.54L149.442,65a7.574,7.574,0,0,1,6.821,0l2.787,1.611a7.55,7.55,0,0,1,3.234,4.928Z" transform="translate(-91.733 -64.19)" fill="#fff" opacity="0.4"/><path d="M112.521,104.214a10.032,10.032,0,0,0-4.551,7.88c0,2.9,2.035,4.081,4.551,2.623a10.032,10.032,0,0,0,4.551-7.88C117.073,103.931,115.062,102.755,112.521,104.214Z" transform="translate(-89.071 -57.254)" fill="#fafafa"/><path d="M126.781,95.964a10.067,10.067,0,0,0-4.551,7.88c0,2.893,2.046,4.069,4.551,2.623a10.032,10.032,0,0,0,4.587-7.88C131.368,95.681,129.3,94.505,126.781,95.964Z" transform="translate(-86.56 -58.706)" fill="#fafafa"/><path d="M141.051,87.7a10.067,10.067,0,0,0-4.551,7.88c0,2.9,2.035,4.081,4.551,2.634a10.067,10.067,0,0,0,4.551-7.88C145.6,87.432,143.568,86.256,141.051,87.7Z" transform="translate(-84.047 -60.159)" fill="#fafafa"/></g></g></g></svg>