<svg xmlns="http://www.w3.org/2000/svg" width="129.949" height="127.845" viewBox="0 0 129.949 127.845"><g transform="translate(-895.025 -4531)"><g transform="translate(0 -2.5)"><g transform="translate(895.025 4533.5)"><path d="M120.954,0H16.995A13.01,13.01,0,0,0,4,12.995V96.162a13,13,0,0,0,9.749,12.584l1.3-5.032A7.8,7.8,0,0,1,9.2,96.162V12.995a7.8,7.8,0,0,1,7.8-7.8H120.954a7.8,7.8,0,0,1,7.8,7.8v2.6h5.2v-2.6A13.011,13.011,0,0,0,120.954,0Z" transform="translate(-4)" fill="#1a495e"/></g><g transform="translate(911.954 4550.565)"><g transform="translate(0 0)"><rect width="5.063" height="5.063" fill="#1a495e"/></g></g><g transform="translate(922.079 4550.565)"><g transform="translate(0 0)"><rect width="5.063" height="5.063" fill="#1a495e"/></g></g><g transform="translate(909.54 4539.836)"><g transform="translate(22.666 10.729)"><rect width="5.063" height="80.084" fill="#1a495e"/></g><g transform="translate(32.792 32.631)"><rect width="5.063" height="58.182" fill="#1a495e"/></g><g transform="translate(43.93 42.008)"><rect width="5.063" height="48.805" fill="#1a495e"/></g><g transform="translate(55.069 56.5)"><rect width="5.063" height="34.313" fill="#1a495e"/></g><g transform="translate(0 0)"><g transform="translate(0)"><path d="M37.517,105.5a6.018,6.018,0,0,0-.869-3.2,6.755,6.755,0,0,0-9.071-2.4A16.621,16.621,0,0,1,5.715,94.136L2,87.783A15.8,15.8,0,0,1,7.9,66.436a6.671,6.671,0,0,0,2.4-2.346,6.337,6.337,0,0,0,1.088-5.162A6.5,6.5,0,0,0,8.176,54.7,15.8,15.8,0,0,1,2.271,33.355,4.767,4.767,0,0,1,5.305,31.37a4.855,4.855,0,0,1,3.582.7,4.525,4.525,0,0,1,1.362,6.2,6.38,6.38,0,0,0,2.461,8.8,15.711,15.711,0,0,1-.219,27.159,6.386,6.386,0,0,0-2.461,8.809L13.8,89.385a6.481,6.481,0,0,0,4.024,3.062,6.626,6.626,0,0,0,5.047-.716,16.085,16.085,0,0,1,8.032-2.078A16.2,16.2,0,0,1,47.3,105.663a6.6,6.6,0,0,0,6.671,6.458l-.055.1a4.784,4.784,0,0,1,4.117,2.324,4.556,4.556,0,0,1,0,4.642,4.791,4.791,0,0,1-4.117,2.318A16.209,16.209,0,0,1,37.517,105.5Zm30.549.481a15.965,15.965,0,0,1,8.18-13.528,16.758,16.758,0,0,1,16.087-.186,6.642,6.642,0,0,0,5.025.694,6.831,6.831,0,0,0,4.046-3.04l3.713-6.354a6.274,6.274,0,0,0,.683-4.894,6.431,6.431,0,0,0-3.089-3.91,15.621,15.621,0,0,1-5.955-6.348,15.8,15.8,0,0,1,5.9-21.347,4.93,4.93,0,0,1,6.452,1.761,4.581,4.581,0,0,1-1.64,6.348,6.7,6.7,0,0,0-2.406,2.351,6.3,6.3,0,0,0-.683,4.916,6.475,6.475,0,0,0,3.089,3.942,15.8,15.8,0,0,1,5.681,21.877l-3.713,6.348a16.617,16.617,0,0,1-21.861,5.763,6.7,6.7,0,0,0-6.665-.06,6.379,6.379,0,0,0-3.281,5.665,4.822,4.822,0,0,1-9.563,0Zm-24.9-30.992a19.668,19.668,0,0,1-4.478-21.872,20.5,20.5,0,0,1,18.99-12.4h.066a20.608,20.608,0,0,1,14.457,5.84,19.656,19.656,0,0,1,6.026,14.173A19.992,19.992,0,0,1,65.584,79.3a20.911,20.911,0,0,1-22.413-4.314Zm3.582-14.206a10.934,10.934,0,1,0,10.93-10.673A10.814,10.814,0,0,0,46.752,60.782ZM101.4,32.07a6.755,6.755,0,0,0-9.071-2.346,16.73,16.73,0,0,1-16.065-.175,15.945,15.945,0,0,1-8.2-13.484,6.378,6.378,0,0,0-1.859-4.708,6.66,6.66,0,0,0-4.752-1.963H53.97A6.734,6.734,0,0,0,49.2,11.357a6.418,6.418,0,0,0-1.9,4.708,15.683,15.683,0,0,1-8.158,13.55,16.46,16.46,0,0,1-16.1-.1l-.219-.213a4.588,4.588,0,0,1-1.531-6.4A4.831,4.831,0,0,1,27.85,21.4a6.99,6.99,0,0,0,3.275.9,6.736,6.736,0,0,0,4.8-1.711,6.467,6.467,0,0,0,2.143-4.527A16.192,16.192,0,0,1,53.97,0h7.486A16.2,16.2,0,0,1,77.849,16.01a6.01,6.01,0,0,0,.875,3.2,6.586,6.586,0,0,0,4.024,3.051,6.766,6.766,0,0,0,5.047-.645,16.617,16.617,0,0,1,21.861,5.763,4.69,4.69,0,0,1-1.75,6.348,4.884,4.884,0,0,1-2.38.618A4.824,4.824,0,0,1,101.4,32.07Z" fill="#279357"/></g></g></g></g></g></svg>