<svg xmlns="http://www.w3.org/2000/svg" width="142.939" height="118.059" viewBox="0 0 142.939 118.059"><g transform="translate(-1386.722 -2299.441)"><g transform="translate(1386.722 2299.441)"><path d="M53.279,0C30.772,0,0,17.011,0,53.279c0,35.344,29.6,53.279,53.279,53.279,40.63,0,53.279-35.6,53.279-53.279C106.558,27.185,86.589,0,53.279,0ZM40.924,5.013C35.365,9.754,30.751,17.6,27.772,27.332A49.5,49.5,0,0,1,17.221,18.92,49.919,49.919,0,0,1,40.924,5.013ZM14.935,21.479a52.235,52.235,0,0,0,11.893,9.271A90.083,90.083,0,0,0,24.1,51.559H3.482A49.624,49.624,0,0,1,14.935,21.479Zm0,63.6A49.5,49.5,0,0,1,3.482,55H24.1a89.93,89.93,0,0,0,2.727,20.808A53.779,53.779,0,0,0,14.935,85.078Zm2.286,2.58a49.5,49.5,0,0,1,10.551-8.411c2.979,9.712,7.593,17.578,13.152,22.318A50.259,50.259,0,0,1,17.221,87.658Zm34.338,15.333c-8.936-1.133-16.634-11.117-20.787-25.423A50.137,50.137,0,0,1,51.559,72.22v30.772Zm0-34.191a53.366,53.366,0,0,0-21.668,5.391A89.98,89.98,0,0,1,27.52,55H51.559V68.8Zm0-17.242H27.52a89.98,89.98,0,0,1,2.37-19.193,53.535,53.535,0,0,0,21.668,5.391Zm0-17.221a49.737,49.737,0,0,1-20.787-5.349C34.925,14.662,42.623,4.7,51.559,3.566ZM91.623,21.479a49.624,49.624,0,0,1,11.453,30.079h-20.6A89.931,89.931,0,0,0,79.75,30.751,53.186,53.186,0,0,0,91.623,21.479ZM89.336,18.9a49.5,49.5,0,0,1-10.551,8.411C75.807,17.6,71.192,9.754,65.634,4.992A50.259,50.259,0,0,1,89.336,18.9ZM55,3.566C63.935,4.7,71.633,14.683,75.786,28.989A50.054,50.054,0,0,1,55,34.338Zm0,34.191a53.366,53.366,0,0,0,21.668-5.391,89.979,89.979,0,0,1,2.37,19.193H55ZM55,55H79.037a89.98,89.98,0,0,1-2.37,19.193A52.7,52.7,0,0,0,55,68.8Zm0,47.993V72.22a49.736,49.736,0,0,1,20.787,5.349C71.633,91.9,63.935,101.859,55,102.992Zm10.635-1.447C71.192,96.8,75.807,88.959,78.786,79.226a49.5,49.5,0,0,1,10.551,8.411A49.919,49.919,0,0,1,65.634,101.544ZM91.623,85.078A53.186,53.186,0,0,0,79.75,75.807,90.084,90.084,0,0,0,82.477,55h20.6A49.624,49.624,0,0,1,91.623,85.078Z" fill="#279357"/></g><g transform="translate(1529.74 2396.23) rotate(154)"><path d="M106.586,209.207,93.435,222.357a1.1,1.1,0,1,0,1.55,1.55l13.151-13.151a1.1,1.1,0,0,0-1.55-1.55Z" transform="translate(-82.829 -185.988)" fill="#279357"/><path d="M44.277,4.25A14.512,14.512,0,0,0,20.7,20.282L.421,40.563a1.1,1.1,0,0,0-.321.773l-.012,6c0,.01,0,.021,0,.031h0a1.1,1.1,0,0,0,1.076,1.066h0a.054.054,0,0,1,.017,0l11.644.013h0a1.1,1.1,0,0,0,1.1-1.1V42.788h4.567a1.1,1.1,0,0,0,1.1-1.1V37.125h4.567a1.1,1.1,0,0,0,1.1-1.1V30.819l2.994-2.994A14.512,14.512,0,0,0,44.277,4.25Zm-1.55,18.969A12.3,12.3,0,0,1,28.5,25.527a1.1,1.1,0,0,0-1.266.205L23.38,29.59a1.1,1.1,0,0,0-.321.775v4.567H18.492a1.1,1.1,0,0,0-1.1,1.1V40.6H12.828a1.1,1.1,0,0,0-1.1,1.1v4.566l-7.9-.009L9.056,41.02a1.1,1.1,0,1,0-1.55-1.55l-5.22,5.22.006-2.9,20.5-20.5A1.1,1.1,0,0,0,23,20.023a12.319,12.319,0,1,1,19.727,3.2Z" transform="translate(0)" fill="#279357"/><path d="M291.143,59.888h0a5.152,5.152,0,1,0,7.286,0A5.158,5.158,0,0,0,291.143,59.888Zm5.736,5.736a2.96,2.96,0,0,1-4.186-4.186h0a2.96,2.96,0,0,1,4.186,4.186Z" transform="translate(-257.809 -51.982)" fill="#279357"/></g></g></svg>