<svg xmlns="http://www.w3.org/2000/svg" width="38.632" height="38.632" viewBox="0 0 38.632 38.632"><path d="M35.846,0H2.786A2.786,2.786,0,0,0,0,2.786v33.06a2.786,2.786,0,0,0,2.786,2.786h33.06a2.786,2.786,0,0,0,2.786-2.786V2.786A2.786,2.786,0,0,0,35.846,0ZM13.7,29.2H9V15.047h4.7ZM11.351,13.115h-.031a2.452,2.452,0,1,1,.062-4.89,2.453,2.453,0,1,1-.031,4.89ZM30.666,29.2h-4.7V21.629c0-1.9-.681-3.2-2.383-3.2a2.575,2.575,0,0,0-2.414,1.72,3.222,3.222,0,0,0-.155,1.148v7.9h-4.7s.062-12.825,0-14.153h4.7v2a4.67,4.67,0,0,1,4.24-2.336c3.1,0,5.416,2.023,5.416,6.37Zm0,0" transform="translate(0)" fill="#1a495e"/></svg>