<svg xmlns="http://www.w3.org/2000/svg" width="20" height="18" viewBox="0 0 20 18"><g transform="translate(-156.213 -153)"><path d="M11.186.16,7.073,3.475a1.425,1.425,0,0,1-1.769,0L1.146.16A.7.7,0,0,0,.156.267.725.725,0,0,0,.262,1.274h0L4.384,4.6a2.841,2.841,0,0,0,3.582,0L12.08,1.274A.711.711,0,1,0,11.2.16h-.009Z" transform="translate(159.879 158.383)" fill="#279357"/><path d="M19.292,8.02A.71.71,0,0,0,20,7.307h0V5.846A5.842,5.842,0,0,0,14.2,0H5.8A5.824,5.824,0,0,0,0,5.846v6.309A5.833,5.833,0,0,0,5.8,18H14.2A5.842,5.842,0,0,0,20,12.154a.716.716,0,0,0-1.424,0A4.439,4.439,0,0,1,14.2,16.565H5.8a4.439,4.439,0,0,1-4.379-4.411V5.846A4.439,4.439,0,0,1,5.8,1.435H14.2a4.439,4.439,0,0,1,4.379,4.411V7.289a.716.716,0,0,0,.207.5.705.705,0,0,0,.5.209h0Z" transform="translate(156.213 153)" fill="#279357"/></g></svg>