<svg xmlns="http://www.w3.org/2000/svg" width="872" height="731.327" viewBox="0 0 872 731.327"><g transform="translate(0 -55)"><g transform="translate(0 55)"><rect width="57.761" height="0.496" transform="translate(87.374 681.304)" fill="#ebebeb"/><rect width="15.155" height="0.496" transform="translate(294.352 686.699)" fill="#ebebeb"/><rect width="33.467" height="0.496" transform="translate(146.88 662.897)" fill="#ebebeb"/><rect width="75.323" height="0.496" transform="translate(705.186 666.23)" fill="#ebebeb"/><rect width="11.04" height="0.496" transform="translate(678.608 666.23)" fill="#ebebeb"/><rect width="163.378" height="0.496" transform="translate(479.338 674.6)" fill="#ebebeb"/><path d="M48.168,615.927H384.9c5.5,0,9.958-5.071,9.958-11.326V66.226C394.81,60.01,390.366,55,384.9,55H48.168c-5.5,0-9.958,5.071-9.958,11.326V604.6C38.21,610.856,42.668,615.927,48.168,615.927ZM384.9,55.4c5.255.011,9.513,4.853,9.522,10.83V604.6c-.01,5.977-4.267,10.819-9.522,10.83H48.168c-5.255-.011-9.513-4.853-9.522-10.83V66.226c.01-5.977,4.267-10.819,9.522-10.83Z" transform="translate(410.504 -55)" fill="#ebebeb"/><path d="M264.423,615.927H601.19c5.5-.011,9.949-5.075,9.958-11.326V66.226c-.057-6.212-4.5-11.216-9.958-11.226H264.423c-5.452.021-9.876,5.026-9.923,11.226V604.6C254.5,610.841,258.937,615.905,264.423,615.927ZM601.19,55.4c5.255.011,9.513,4.853,9.522,10.83V604.6c-.01,5.977-4.267,10.819-9.522,10.83H264.423c-5.255-.011-9.513-4.853-9.522-10.83V66.226c.01-5.977,4.267-10.819,9.522-10.83Z" transform="translate(-182.996 -55)" fill="#ebebeb"/><rect width="872" height="0.496" transform="translate(0 649.39)" fill="#ebebeb"/><rect width="210.675" height="568.722" transform="translate(536.507 80.033)" fill="#ebebeb"/><rect width="192.764" height="558.428" transform="translate(545.471 90.327)" fill="#f5f5f5"/><rect width="77.277" height="204.516" transform="translate(646.361 163.994)" fill="#fafafa"/><rect width="77.277" height="204.516" transform="translate(559.022 163.994)" fill="#fafafa"/><rect width="164.616" height="204.516" transform="translate(559.022 430.375)" fill="#fafafa"/><path d="M219.55,108H115.206c-16.644,0-30.136,15.345-30.136,34.274v13.984H249.686V142.314a36.808,36.808,0,0,0-8.814-24.261A28.42,28.42,0,0,0,219.55,108Z" transform="translate(473.952 -2.876)" fill="#fafafa"/><rect width="14.057" height="41.653" transform="translate(709.581 377.713)" fill="#e6e6e6"/><rect width="2.756" height="41.653" transform="translate(706.826 377.733)" fill="#e0e0e0"/><path d="M83.66,257.014c-.01,3.727,2.641,6.756,5.918,6.764s5.938-3.01,5.941-6.737-2.652-6.75-5.93-6.75S83.67,253.3,83.66,257.014Z" transform="translate(630.578 137.063)" fill="#e0e0e0"/><rect width="3.052" height="8.43" transform="translate(715.371 405.74)" fill="#e0e0e0"/><ellipse cx="8.284" cy="9.422" rx="8.284" ry="9.422" transform="translate(717.098 384.655)" fill="#ebebeb"/><path d="M382.337,393.381S358.27,367.6,358.671,350.637s15.033,22.77,15.382,14.42-16.638-32.331-17.353-48.714,17.283,29.4,18.242,21.818-16.481-41.752-16.341-53.653,15.242,30.169,17.44,22.731-12.574-35.246-8.72-56.053,11.807,33.719,13.028,26.856-9-42.506-1.744-56.708,5.232,38.46,7.656,32.331,3.959-36.317,13.15-46.592-2.424,30.407.4,32.47,15.94-28.245,19.48-22.493-18.643,38.3-18.853,46.076,17.893-12.992,19.515-4.562-25.2,21.7-26.579,29.752S415.7,281.949,415.6,290.3s-22.55,12.774-23.893,22.215,21.992-6.843,20.7,4.245-16.969,8.906-18.766,19.835,16.219-1.527,15.539,8.846-18.678,11.524-20.562,19.438,17.178-3.689,16.655,4.721S386.087,378.961,382.337,393.381Z" transform="translate(-170.075 92.927)" fill="#e0e0e0"/><path d="M373.5,410.106a367.387,367.387,0,0,1-5.058-57.917c-.907-42.228,3.767-84.813,16.132-124.741.907-2.916,5.075-1.864,4.168,1.071-12.208,39.67-16.917,81.66-16.027,123.511a359.624,359.624,0,0,0,4.866,56.728c.541,3.035-3.488,4.5-4.081,1.448Z" transform="translate(-159.253 112.897)" fill="#f0f0f0"/><path d="M462.734,391.057s16.725-36.417,11.388-61.091-9.243,32.767-11.737,19.022,7.9-40.4-1.779-60.238-.715,37.21-7.116,24.674,1.1-44.509-7.831-56.688-2.843,26.3-7.1,20.231-3.209-34.374-9.976-40.86-.7,27.114-4.255,20.628-11.737-36-23.125-39.669,7.464,18.188,0,16.165-24.538-6.466-25.968,2.44,35.926,18.605,40.2,29.534-17.074-8.509-20.928-.417,32.735,19.418,35.578,31.557-30.241-10.116-29.526,2.44,38.071,14.955,39.85,25.884-30.607-12.139-29.526-1.21,33.432,19.418,35.56,31.141-23.823-10.909-24.538-1.607S462.734,391.057,462.734,391.057Z" transform="translate(-257.517 103.979)" fill="#ebebeb"/><path d="M334.167,389.708s-16.184-32.826-11.353-48.853,8.354,27.035,10.952,19.1-7.377-36.5-3.75-52.364,8.72,33.917,11.7,26.9-4.761-45.422-1.5-56.727,6.627,33.977,10.691,27.61-2.738-37.9,6.348-56.489,2.389,36.258,5.372,30.07,2.581-43.636,13.219-54.7-5.232,38.46-1.2,33.441,13.342-33.3,24.817-39.987-10.307,28.205-8.162,31.121,22.672-21.521,24.5-14.836-27.9,30.208-30.1,37.567,20.492-6.327,19.829,2.281-29.77,12.139-33.136,19.359,22.968,1.527,20.684,9.422-24.869,4.522-28.636,13.071,22.777.952,18.643,11.088-18.539,2.737-23.125,12.555,15.87,3.967,12.487,13.726-20.841,4.641-24.713,11.564,17.44,2.3,14.65,10.155S341.527,377.291,334.167,389.708Z" transform="translate(-105.302 104.177)" fill="#ebebeb"/><path d="M337.243,407.074a365.776,365.776,0,0,1,10.464-56.985c10.255-40.6,25.9-79.656,48.2-113.574a2.213,2.213,0,1,1,3.68,2.46c-22.1,33.6-37.618,72.159-47.768,112.4a358.008,358.008,0,0,0-10.307,55.7C341.254,410.149,336.981,410.168,337.243,407.074Z" transform="translate(-116.139 122.514)" fill="#f0f0f0"/><path d="M450.7,411.1a394.909,394.909,0,0,0-5.232-50.321c-5.127-32.073-13.307-64.84-29.072-92.39-8.982-15.729-20.754-29.2-35.8-37.23-2.494-1.329-.331-5.514,2.145-4.2,26.927,14.4,43.059,45.045,53.3,75.551,9.5,28.4,14.772,58.651,17.562,88.82.61,6.565,1.151,13.17,1.343,19.835.087,3.134-4.168,3.114-4.273,0Z" transform="translate(-244.773 113.866)" fill="#f5f5f5"/><path d="M351.32,314.92h88.212l-9.958,107.326V448.13h-68.3V422.246Z" transform="translate(-180.234 200.625)" fill="#ebebeb"/><rect width="63.36" height="56.807" transform="translate(150.891 185.475)" fill="#f0f0f0"/><rect width="3.418" height="56.807" transform="translate(147.473 185.475)" fill="#e0e0e0"/><rect width="50.436" height="45.223" transform="translate(157.344 191.267)" fill="#fafafa"/><rect width="42.135" height="37.785" transform="translate(161.494 194.995)" fill="#ebebeb"/><rect width="69.743" height="100.582" transform="translate(227.313 93.283)" fill="#ebebeb"/><rect width="3.331" height="100.582" transform="translate(223.982 93.283)" fill="#e0e0e0"/><rect width="55.512" height="80.073" transform="translate(234.428 103.537)" fill="#f5f5f5"/><rect width="46.373" height="66.903" transform="translate(238.998 110.142)" fill="#fafafa"/><path d="M341.81,128.863s8.2,13.19,12.417,12.972c3.854-.2,10.464-12.972,10.464-12.972s-8.2-13.19-12.417-12.972C348.367,116.11,341.81,128.863,341.81,128.863Z" transform="translate(-88.808 4.883)" fill="#ebebeb"/><path d="M371.2,145.2c2.424-5.316-10.237-16.483-15.5-16.225-4.831.238-14.894,11.167-13.01,16.225C345.443,152.675,367.923,152.4,371.2,145.2Z" transform="translate(-96.748 17.746)" fill="#f0f0f0"/><ellipse cx="31.479" cy="49.924" rx="31.479" ry="49.924" transform="translate(138.805 55.656)" fill="#e0e0e0"/><ellipse cx="31.479" cy="49.924" rx="31.479" ry="49.924" transform="translate(142.555 55.656)" fill="#ebebeb"/><ellipse cx="26.823" cy="42.526" rx="26.823" ry="42.526" transform="translate(147.211 63.055)" fill="#e6e6e6"/><ellipse cx="23.963" cy="38.003" rx="23.963" ry="38.003" transform="translate(150.071 67.577)" fill="#fafafa"/><path d="M416.949,141.555a29.467,29.467,0,0,0,7.395-21.1s-9.888-1.309-9.592,17.534c0,0-11.144-13.15-7.848-21.5,5.127-13.012,5.127-13.012,1.5-21.144,0,0-9.714,4.463-5.232,19.5a53.3,53.3,0,0,0,1.4,11.564s-9.784-10.651-12.923-3.669c0,0,5.232,11.286,12.923,6.585C404.567,129.257,413.287,146.553,416.949,141.555Z" transform="translate(-235.399 -15.327)" fill="#ebebeb"/></g><g transform="translate(106.262 741.421)"><ellipse cx="338.144" cy="22.453" rx="338.144" ry="22.453" fill="#f5f5f5"/></g><g transform="translate(343.585 234.088)"><path d="M245.332,348.726c0-1.666.087-3.312.209-4.939l-8.511-5.375a73.294,73.294,0,0,1,3.157-13.428l9.732.2a57.847,57.847,0,0,1,4.343-8.569l-5.005-9.481a63.228,63.228,0,0,1,8.72-9.818l8.336,5.693a47.788,47.788,0,0,1,7.517-4.959L273.671,287a52.717,52.717,0,0,1,11.79-3.61l4.726,9.679c1.448-.139,2.878-.218,4.343-.218a28.731,28.731,0,0,1,4.343.218l4.726-9.679A52.6,52.6,0,0,1,315.405,287l-.157,11.048a48.549,48.549,0,0,1,7.517,4.959l8.336-5.693a62.187,62.187,0,0,1,8.72,9.818l-4.988,9.481a57.863,57.863,0,0,1,4.343,8.569l9.714-.2a73.316,73.316,0,0,1,3.174,13.428l-8.511,5.375c.122,1.626.192,3.273.192,4.939a42.177,42.177,0,0,1-.192,4.939l8.511,5.375a73.112,73.112,0,0,1-3.174,13.408l-9.714-.178a56.708,56.708,0,0,1-4.343,8.549l4.988,9.481a63.345,63.345,0,0,1-8.72,9.917l-8.336-5.693a50.023,50.023,0,0,1-7.517,4.959l.157,11.048a51.544,51.544,0,0,1-11.807,3.59l-4.726-9.679a39.361,39.361,0,0,1-4.343.238,26.472,26.472,0,0,1-4.343-.238l-4.726,9.679a51.676,51.676,0,0,1-11.79-3.59l.157-11.048a49.158,49.158,0,0,1-7.517-4.959l-8.336,5.693a64.4,64.4,0,0,1-8.72-9.917l5.005-9.481a56.7,56.7,0,0,1-4.343-8.549l-9.732.179a73.083,73.083,0,0,1-3.157-13.408l8.511-5.375C245.419,352.038,245.332,350.392,245.332,348.726ZM294.46,386.65c18.43.011,33.377-16.976,33.38-37.937s-14.944-37.958-33.374-37.951-33.357,17-33.351,37.957,14.933,37.934,33.351,37.931Z" transform="translate(-237.03 -9.472)" fill="#279357"/><path d="M245.332,348.726c0-1.666.087-3.312.209-4.939l-8.511-5.375a73.294,73.294,0,0,1,3.157-13.428l9.732.2a57.847,57.847,0,0,1,4.343-8.569l-5.005-9.481a63.228,63.228,0,0,1,8.72-9.818l8.336,5.693a47.788,47.788,0,0,1,7.517-4.959L273.671,287a52.717,52.717,0,0,1,11.79-3.61l4.726,9.679c1.448-.139,2.878-.218,4.343-.218a28.731,28.731,0,0,1,4.343.218l4.726-9.679A52.6,52.6,0,0,1,315.405,287l-.157,11.048a48.549,48.549,0,0,1,7.517,4.959l8.336-5.693a62.187,62.187,0,0,1,8.72,9.818l-4.988,9.481a57.863,57.863,0,0,1,4.343,8.569l9.714-.2a73.316,73.316,0,0,1,3.174,13.428l-8.511,5.375c.122,1.626.192,3.273.192,4.939a42.177,42.177,0,0,1-.192,4.939l8.511,5.375a73.112,73.112,0,0,1-3.174,13.408l-9.714-.178a56.708,56.708,0,0,1-4.343,8.549l4.988,9.481a63.345,63.345,0,0,1-8.72,9.917l-8.336-5.693a50.023,50.023,0,0,1-7.517,4.959l.157,11.048a51.544,51.544,0,0,1-11.807,3.59l-4.726-9.679a39.361,39.361,0,0,1-4.343.238,26.472,26.472,0,0,1-4.343-.238l-4.726,9.679a51.676,51.676,0,0,1-11.79-3.59l.157-11.048a49.158,49.158,0,0,1-7.517-4.959l-8.336,5.693a64.4,64.4,0,0,1-8.72-9.917l5.005-9.481a56.7,56.7,0,0,1-4.343-8.549l-9.732.179a73.083,73.083,0,0,1-3.157-13.408l8.511-5.375C245.419,352.038,245.332,350.392,245.332,348.726ZM294.46,386.65c18.43.011,33.377-16.976,33.38-37.937s-14.944-37.958-33.374-37.951-33.357,17-33.351,37.957,14.933,37.934,33.351,37.931Z" transform="translate(-237.03 -9.472)" fill="#fff" opacity="0.5"/><path d="M110,192.735a27.332,27.332,0,0,1,.157-3.59l-6.191-3.967a54.228,54.228,0,0,1,2.3-9.759l7.063.139a40.244,40.244,0,0,1,3.174-6.208l-3.645-6.9a46.132,46.132,0,0,1,6.278-7.141l6.069,4.126a34.5,34.5,0,0,1,5.459-3.59l-.1-7.934a36.489,36.489,0,0,1,8.563-2.618l3.488,7.021c1.046-.1,2.093-.159,3.157-.159a20.809,20.809,0,0,1,3.157.159l3.488-7.021A36.628,36.628,0,0,1,161,147.908l-.122,7.934a34.649,34.649,0,0,1,5.476,3.59l6.052-4.126a46.241,46.241,0,0,1,6.3,7.14l-3.645,6.9a41.857,41.857,0,0,1,3.174,6.208l6.976-.139a54.224,54.224,0,0,1,2.3,9.759l-6.191,3.967c0,1.19.14,2.38.14,3.59a30.718,30.718,0,0,1-.14,3.59l6.139,3.927a53.827,53.827,0,0,1-2.3,9.759l-6.976-.139A43.076,43.076,0,0,1,175,216.1l3.645,6.883a46.236,46.236,0,0,1-6.3,7.141L166.3,226a34.649,34.649,0,0,1-5.476,3.59l.122,8.033a36.626,36.626,0,0,1-8.581,2.618l-3.488-7.021c-1.029,0-2.093.159-3.157.159a20.926,20.926,0,0,1-3.157-.159l-3.488,7.021a36.49,36.49,0,0,1-8.563-2.618l.1-8.033A34.5,34.5,0,0,1,125.16,226l-6.069,4.126a46.132,46.132,0,0,1-6.278-7.141l3.7-6.863a41.3,41.3,0,0,1-3.174-6.228l-7.063.139a53.828,53.828,0,0,1-2.3-9.759l6.191-3.967C110.074,195.135,110,193.945,110,192.735Zm35.717,16.007c7.773,0,14.074-7.166,14.074-16.007s-6.3-16.007-14.074-16.007-14.074,7.166-14.074,16.007,6.3,16.007,14.074,16.007Z" transform="translate(159.583 -145.29)" fill="#279357"/><path d="M110,192.735a27.332,27.332,0,0,1,.157-3.59l-6.191-3.967a54.228,54.228,0,0,1,2.3-9.759l7.063.139a40.244,40.244,0,0,1,3.174-6.208l-3.645-6.9a46.132,46.132,0,0,1,6.278-7.141l6.069,4.126a34.5,34.5,0,0,1,5.459-3.59l-.1-7.934a36.489,36.489,0,0,1,8.563-2.618l3.488,7.021c1.046-.1,2.093-.159,3.157-.159a20.809,20.809,0,0,1,3.157.159l3.488-7.021A36.628,36.628,0,0,1,161,147.908l-.122,7.934a34.649,34.649,0,0,1,5.476,3.59l6.052-4.126a46.241,46.241,0,0,1,6.3,7.14l-3.645,6.9a41.857,41.857,0,0,1,3.174,6.208l6.976-.139a54.224,54.224,0,0,1,2.3,9.759l-6.191,3.967c0,1.19.14,2.38.14,3.59a30.718,30.718,0,0,1-.14,3.59l6.139,3.927a53.827,53.827,0,0,1-2.3,9.759l-6.976-.139A43.076,43.076,0,0,1,175,216.1l3.645,6.883a46.236,46.236,0,0,1-6.3,7.141L166.3,226a34.649,34.649,0,0,1-5.476,3.59l.122,8.033a36.626,36.626,0,0,1-8.581,2.618l-3.488-7.021c-1.029,0-2.093.159-3.157.159a20.926,20.926,0,0,1-3.157-.159l-3.488,7.021a36.49,36.49,0,0,1-8.563-2.618l.1-8.033A34.5,34.5,0,0,1,125.16,226l-6.069,4.126a46.132,46.132,0,0,1-6.278-7.141l3.7-6.863a41.3,41.3,0,0,1-3.174-6.228l-7.063.139a53.828,53.828,0,0,1-2.3-9.759l6.191-3.967C110.074,195.135,110,193.945,110,192.735Zm35.717,16.007c7.773,0,14.074-7.166,14.074-16.007s-6.3-16.007-14.074-16.007-14.074,7.166-14.074,16.007,6.3,16.007,14.074,16.007Z" transform="translate(159.583 -145.29)" fill="#fff" opacity="0.6"/></g><g transform="translate(367.256 159.7)"><path d="M252.153,107.793H297.5L343.1,701.467H297.758c-21.406-.445-39.149-19-41.333-43.22L217.465,151.013a42.511,42.511,0,0,1,8.755-30.527C232.859,112.214,242.306,107.59,252.153,107.793Z" transform="translate(-217.26 -107.786)" fill="#263238"/><path d="M191.468,701.468H378.076c9.853.215,19.31-4.4,25.957-12.678a42.508,42.508,0,0,0,8.766-30.542L373.769,151.014c-2.177-24.226-19.924-42.784-41.333-43.22H145.828c-9.856-.221-19.318,4.4-25.969,12.67a42.507,42.507,0,0,0-8.772,30.55l39.048,507.234C152.312,682.474,170.06,701.032,191.468,701.468Z" transform="translate(-101.64 -107.786)" fill="#279357"/><path d="M142.82,112.793h48.5c3.275.066,6.068,2.715,6.714,6.367l.314,1.726c1.727,8.811,8.528,15.136,16.463,15.312h46.146c7.6.167,13.9-6.669,14.109-15.312V119.16c.076-3.542,2.658-6.345,5.773-6.268h48.57c16.5.335,30.171,14.635,31.845,33.3L400.339,653.33a32.753,32.753,0,0,1-6.747,23.526,25.021,25.021,0,0,1-19.988,9.776H187c-16.493-.344-30.163-14.64-31.845-33.3L116.067,146.1a32.752,32.752,0,0,1,6.753-23.534,25.017,25.017,0,0,1,20-9.769Z" transform="translate(-97.9 -102.868)" fill="#279357"/><path d="M142.82,112.793h48.5c3.275.066,6.068,2.715,6.714,6.367l.314,1.726c1.727,8.811,8.528,15.136,16.463,15.312h46.146c7.6.167,13.9-6.669,14.109-15.312V119.16c.076-3.542,2.658-6.345,5.773-6.268h48.57c16.5.335,30.171,14.635,31.845,33.3L400.339,653.33a32.753,32.753,0,0,1-6.747,23.526,25.021,25.021,0,0,1-19.988,9.776H187c-16.493-.344-30.163-14.64-31.845-33.3L116.067,146.1a32.752,32.752,0,0,1,6.753-23.534,25.017,25.017,0,0,1,20-9.769Z" transform="translate(-97.9 -102.868)" fill="#fff" opacity="0.7"/><g transform="translate(119.929 11.333)" opacity="0.2"><path d="M199.206,117.705a4.386,4.386,0,0,0,4.046,4.225,3.159,3.159,0,0,0,2.526-1.244,4.136,4.136,0,0,0,.84-2.981,4.367,4.367,0,0,0-4.029-4.2,3.174,3.174,0,0,0-2.523,1.237,4.152,4.152,0,0,0-.86,2.968Z" transform="translate(-169.208 -113.5)"/><path d="M212.49,113.5H225.2a4.367,4.367,0,0,1,4.029,4.2,4.155,4.155,0,0,1-.853,2.981,3.174,3.174,0,0,1-2.531,1.243H213.135a4.389,4.389,0,0,1-4.029-4.225,4.151,4.151,0,0,1,.86-2.968,3.174,3.174,0,0,1,2.523-1.237Z" transform="translate(-209.088 -113.5)"/></g><path d="M154.755,126.713h-3.924l-.331-4.463h3.924Z" transform="translate(87.516 -93.561)" fill="#279357"/><path d="M159.273,124.463l.331,4.463H155.68l-.331-4.463L155,120h3.924Z" transform="translate(74.82 -95.774)" fill="#279357"/><path d="M163.424,117.75l.349,4.463.349,4.463.331,4.463h-3.924l-.331-4.463-.349-4.463-.349-4.463Z" transform="translate(62.123 -97.987)" fill="#279357"/><path d="M272.565,117.9l.244,3.273h1.918l.506,6.545h-1.918l.262,3.273H256.311L255.3,117.9Zm-6.976,9.818h5.755l-.506-6.545h-5.755Z" transform="translate(-215.733 -97.839)" fill="#279357"/><g transform="translate(18.168 9.919)" opacity="0.4"><path d="M149.66,124.54,278.472,669.262a24.9,24.9,0,0,1-16.08,5.812H252.33L122.14,124.54Z" transform="translate(-4.908 -101.228)" fill="#fff"/><path d="M174.8,112.793h48.5c3.275.066,6.068,2.715,6.714,6.367l.314,1.726c1.688,8.56,8.169,14.8,15.87,15.293L376.427,686.632H277.106L148.05,140.839C148.917,124.847,160.717,112.476,174.8,112.793Z" transform="translate(-148.05 -112.787)" fill="#fff"/></g></g><g transform="translate(401.011 219.965)"><path d="M153.685,233.8H210.47a5.933,5.933,0,0,0,4.759-2.327,7.771,7.771,0,0,0,1.589-5.607l-5.424-70.453c-.38-4.442-3.628-7.854-7.551-7.934h-56.8a5.918,5.918,0,0,0-4.754,2.327,7.753,7.753,0,0,0-1.577,5.607l5.406,70.453c.4,4.441,3.645,7.846,7.569,7.934Z" transform="translate(8.808 -129.014)" fill="#fff"/><path d="M202.852,295.685H326.9a5.933,5.933,0,0,0,4.759-2.327,7.771,7.771,0,0,0,1.589-5.607L323.066,155.374c-.38-4.442-3.628-7.854-7.551-7.934H191.464a5.952,5.952,0,0,0-4.752,2.334,7.791,7.791,0,0,0-1.6,5.6L195.3,287.752C195.681,292.194,198.928,295.606,202.852,295.685Z" transform="translate(-185.076 -129.053)" fill="#fff"/><path d="M147.363,337.362H353.626a5.952,5.952,0,0,0,4.752-2.334,7.791,7.791,0,0,0,1.6-5.6L352.807,236.2c-.4-4.441-3.645-7.846-7.569-7.934H138.975a5.952,5.952,0,0,0-4.752,2.334,7.791,7.791,0,0,0-1.6,5.6l7.168,93.223c.4,4.441,3.645,7.846,7.569,7.934Z" transform="translate(-120.258 -49.558)" fill="#fff"/><path d="M144.29,467.269H350.552a5.952,5.952,0,0,0,4.752-2.334,7.791,7.791,0,0,0,1.6-5.6L344.431,297.3c-.381-4.449-3.639-7.864-7.569-7.934H130.582a5.918,5.918,0,0,0-4.754,2.327,7.753,7.753,0,0,0-1.577,5.607L136.7,459.335C137.1,463.783,140.359,467.191,144.29,467.269Z" transform="translate(-102.569 10.532)" fill="#fff"/><path d="M141.035,224.511H197.82a5.933,5.933,0,0,0,4.759-2.327,7.771,7.771,0,0,0,1.589-5.607L198.744,146.1c-.389-4.445-3.642-7.855-7.569-7.934H134.3a5.952,5.952,0,0,0-4.752,2.334,7.791,7.791,0,0,0-1.6,5.6l5.424,70.473C133.772,221.06,137.075,224.483,141.035,224.511Z" transform="translate(43.693 -138.169)" fill="#279357"/><path d="M141.035,224.511H197.82a5.933,5.933,0,0,0,4.759-2.327,7.771,7.771,0,0,0,1.589-5.607L198.744,146.1c-.389-4.445-3.642-7.855-7.569-7.934H134.3a5.952,5.952,0,0,0-4.752,2.334,7.791,7.791,0,0,0-1.6,5.6l5.424,70.473C133.772,221.06,137.075,224.483,141.035,224.511Z" transform="translate(43.693 -138.169)" fill="#fff" opacity="0.4"/><path d="M130.943,143.173a1.949,1.949,0,0,1,.393-1.393,1.491,1.491,0,0,1,1.176-.591h56.8a2.042,2.042,0,0,1,1.866,1.983l5.424,70.473a1.929,1.929,0,0,1-.387,1.4,1.473,1.473,0,0,1-1.183.584h-56.8a2.042,2.042,0,0,1-1.866-1.983Z" transform="translate(46.025 -135.199)" fill="#fff" opacity="0.8"/><path d="M143.662,165.688c.628,8.073,4.953,14.618,12.051,14.618s10.464-6.545,9.784-14.618-4.936-14.618-12.034-14.618S143.052,157.615,143.662,165.688Z" transform="translate(54.984 -125.482)" fill="#279357"/><path d="M133.861,178.711c1.788-7.275,7.678-12.252,14.318-12.1h21.5c6.993.139,13.288,4.85,16.167,12.1l4.517,11.306a1.472,1.472,0,0,1-1.168.575H132.4a1.77,1.77,0,0,1-1.256-.575Z" transform="translate(51.914 -110.201)" fill="#279357"/><path d="M126.708,457.268H332.971a5.952,5.952,0,0,0,4.752-2.334,7.791,7.791,0,0,0,1.6-5.6L326.849,287.3c-.38-4.442-3.628-7.854-7.552-7.934H113.035a5.952,5.952,0,0,0-4.752,2.334,7.791,7.791,0,0,0-1.6,5.6l12.47,162.03C119.544,453.772,122.787,457.18,126.708,457.268Z" transform="translate(-54.363 0.697)" fill="#279357"/><path d="M126.708,457.268H332.971a5.952,5.952,0,0,0,4.752-2.334,7.791,7.791,0,0,0,1.6-5.6L326.849,287.3c-.38-4.442-3.628-7.854-7.552-7.934H113.035a5.952,5.952,0,0,0-4.752,2.334,7.791,7.791,0,0,0-1.6,5.6l12.47,162.03C119.544,453.772,122.787,457.18,126.708,457.268Z" transform="translate(-54.363 0.697)" fill="#fff" opacity="0.4"/><path d="M111.245,282.39H317.508a2,2,0,0,1,1.866,1.984l12.47,162.03a1.929,1.929,0,0,1-.387,1.4,1.472,1.472,0,0,1-1.183.584H124.011a2.06,2.06,0,0,1-1.866-1.984l-12.47-162.03a1.93,1.93,0,0,1,.387-1.4,1.472,1.472,0,0,1,1.183-.584Z" transform="translate(-52.119 3.668)" fill="#263238"/><path d="M31.878,55.464C48.475,56.533,61.136,45,60.157,29.7S44.93,1.137,28.332.069-.926,10.535.053,25.832,15.281,54.4,31.878,55.464Z" transform="translate(171.195 409.889) rotate(-136.25)" fill="#279357"/><path d="M168.57,331.98l22.48,15.669-2.424-31.319Z" transform="translate(-14.047 37.047)" fill="#fff" opacity="0.9"/><path d="M116.632,354.786H289.515l-.122-1.646H116.51Z" transform="translate(-21.719 73.249)" fill="#fff" opacity="0.8"/><path d="M114.574,354.652a2.3,2.3,0,0,0,2.128,2.241h65.871a1.659,1.659,0,0,0,1.321-.669,2.171,2.171,0,0,0,.423-1.572h0a2.3,2.3,0,0,0-2.128-2.221H116.318a1.658,1.658,0,0,0-1.314.662A2.168,2.168,0,0,0,114.574,354.652Z" transform="translate(86.862 72.551)" fill="#279357"/><g transform="translate(74.543 421.014)" opacity="0.8"><path d="M229.113,351.759H226.9l.157,2.182h-1.866l-.279-3.511h4.1Z" transform="translate(-224.91 -350.43)" fill="#fff"/><path d="M219.654,353.941l-.174-2.182h-2.215l-.1-1.329h4.1l.279,3.511Z" transform="translate(-203.818 -350.43)" fill="#fff"/><path d="M216.77,357.092H219l-.174-2.182h1.884l.279,3.511h-4.116Z" transform="translate(-202.591 -346.024)" fill="#fff"/><path d="M226.3,354.91l.174,2.182h2.215l.1,1.329h-4.1l-.279-3.511Z" transform="translate(-223.74 -346.024)" fill="#fff"/></g><g transform="translate(169.852 435.493)" opacity="0.8"><path d="M174.357,367.072l-6.7-4.661,5.982-4.681Z" transform="translate(-165.619 -357.73)" fill="#fff" opacity="0.9"/><path d="M173.029,357.98l.331,4.185.314,4.165h-1.709l-.645-8.35Z" transform="translate(-171.32 -357.484)" fill="#fff" opacity="0.9"/></g><g transform="translate(157.121 435.989)" opacity="0.8"><path d="M178.948,366.33h-2.232l-.645-8.35H178.3Z" transform="translate(-172.146 -357.98)" fill="#fff" opacity="0.9"/><path d="M180.545,357.98l.645,8.35h-2.215l-.645-8.35Z" transform="translate(-178.33 -357.98)" fill="#fff" opacity="0.9"/></g><path d="M160.46,362.411l6.7,4.661-.715-9.342Z" transform="translate(23.99 77.763)" fill="#fff" opacity="0.8"/><path d="M129.116,326.352H335.431a5.952,5.952,0,0,0,4.752-2.334,7.791,7.791,0,0,0,1.6-5.6l-7.168-93.223c-.4-4.441-3.645-7.846-7.569-7.934H120.727a5.933,5.933,0,0,0-4.759,2.327,7.771,7.771,0,0,0-1.589,5.607l7.168,93.223c.4,4.441,3.645,7.846,7.569,7.934Z" transform="translate(-70.234 -60.387)" fill="#279357"/><path d="M129.116,326.352H335.431a5.952,5.952,0,0,0,4.752-2.334,7.791,7.791,0,0,0,1.6-5.6l-7.168-93.223c-.4-4.441-3.645-7.846-7.569-7.934H120.727a5.933,5.933,0,0,0-4.759,2.327,7.771,7.771,0,0,0-1.589,5.607l7.168,93.223c.4,4.441,3.645,7.846,7.569,7.934Z" transform="translate(-70.234 -60.387)" fill="#fff" opacity="0.4"/><path d="M119.267,219.8H325.53a3.051,3.051,0,0,1,2.825,2.936l7.168,93.223a2.919,2.919,0,0,1-.6,2.083,2.233,2.233,0,0,1-1.769.872H126.889a3.092,3.092,0,0,1-2.825-2.955L116.9,222.736a2.9,2.9,0,0,1,.6-2.077,2.213,2.213,0,0,1,1.769-.859Z" transform="translate(-68.391 -57.888)" fill="#fff" opacity="0.3"/><path d="M239.128,269.347H139.72l4.883-27.253,6.54-22.294h100.3Z" transform="translate(-24.124 -57.888)" fill="#fff" opacity="0.4"/><path d="M129.2,244.78l48.692,1.983,3.488,44.608a2.919,2.919,0,0,1-.6,2.083,2.233,2.233,0,0,1-1.769.872H116.853Z" transform="translate(85.804 -33.321)" fill="#fff" opacity="0.4"/><path d="M119.55,301.281l-.82-10.612,56.924-25.706,5.511-18.169-17.457-27h8.319l11.388,17.613,3.941-17.613H194.8L189,246.041l-5.581,18.347h94.176L287.9,219.8h7.395l-10.307,44.589H328.15l.767,9.917H282.683l-10.307,44.589H265l10.307-44.589H223.562l-27.119,44.589H187.6l27.119-44.589h-35.4Z" transform="translate(-64.993 -57.888)" fill="#fff"/><ellipse cx="10.899" cy="2.711" rx="10.899" ry="2.711" transform="translate(164.539 202.226) rotate(-179.75)" opacity="0.2"/><path d="M186.557,222.8c6.129.159,11.2,5.464,11.859,12.4.523,6.843-9.348,20.331-9.348,20.331S177.14,242.04,176.616,235.2a12.2,12.2,0,0,1,2.511-8.75,9.324,9.324,0,0,1,7.43-3.647Zm1.4,18.05a4.248,4.248,0,0,0,3.39-1.661,5.56,5.56,0,0,0,1.144-3.992c-.29-3.166-2.608-5.59-5.406-5.653a4.248,4.248,0,0,0-3.39,1.661,5.56,5.56,0,0,0-1.144,3.992c.275,3.174,2.6,5.608,5.406,5.653Z" transform="translate(-35.366 -54.938)" fill="#279357"/></g><g transform="translate(190.561 174.586)"><path d="M324.91,380.99l2.738,35.623h14.2l1.465-35.623Z" transform="translate(-228.513 146.017)" fill="#b97964"/><path d="M324.251,400.567a5.775,5.775,0,0,0,4.36-1.388,1.7,1.7,0,0,0,0-1.745,1.773,1.773,0,0,0-1.116-.912c-2.494-.734-7.639,2.757-7.865,2.9a.483.483,0,0,0-.174.436.428.428,0,0,0,.3.317A23.478,23.478,0,0,0,324.251,400.567Zm2.319-3.352a1.858,1.858,0,0,1,.663.1.979.979,0,0,1,.715.535c.262.5.174.734,0,.873-.663,1.131-4.43,1.23-7.2.893A14.943,14.943,0,0,1,326.571,397.214Z" transform="translate(-204.537 161.191)" fill="#279357"/><path d="M322.152,402.123h.157c1.744-.932,5.232-4.681,4.936-6.585,0-.456-.349-1.012-1.326-1.091a2.385,2.385,0,0,0-1.953.714c-1.866,1.8-2.2,6.387-2.215,6.6a.4.4,0,0,0,.157.357A.355.355,0,0,0,322.152,402.123Zm3.488-6.942h.209c.628,0,.68.337.7.436.1,1.15-2.2,4.066-4.011,5.355a10.039,10.039,0,0,1,1.9-5.236,1.635,1.635,0,0,1,1.2-.535Z" transform="translate(-206.955 159.238)" fill="#279357"/><path d="M332.83,397.139l-16.254.317a1.348,1.348,0,0,0-1.256,1.19L312.6,413.74a2.781,2.781,0,0,0,.336,1.88,2.2,2.2,0,0,0,1.408,1.056,1.888,1.888,0,0,0,.471,0c5.842-.218,11.057-.694,18.347-.813,8.615-.159,6.435,1.051,16.568,1.012,6.1,0,7.1-7.934,4.5-8.271-11.859-1.468-13.15-5.494-17.789-10.235a4.8,4.8,0,0,0-3.61-1.23Z" transform="translate(-219.237 161.881)" fill="#263238"/><path d="M369.343,228.747,346.1,552.609H326.737s-11.284-89.772-3.488-146.222a77.462,77.462,0,0,0,.314-18.089c-2.407-24.317-8.3-86.678-7.517-107.762,0,0-9.854-25.349-2.023-60.6h55.32Z" transform="translate(-230.288 -12.372)" fill="#263238"/><path d="M323.649,384.6l.8,6.069-1.761,4.959h24.538l-.645-4.959,2.093-6.069Z" transform="translate(-230.008 149.567)" fill="#263238"/><path d="M323.649,384.6l.8,6.069-1.761,4.959h24.538l-.645-4.959,2.093-6.069Z" transform="translate(-230.008 149.567)" fill="#fff" opacity="0.3"/><path d="M341.529,239.7l-10.185,15.531a53.914,53.914,0,0,0,1.744,5.95c-.488,13.19,1.2,37.051,3,57.679,19.76-52.681,14.126-73.131,14.126-73.131Z" transform="translate(-247.382 7.062)" opacity="0.5"/><path d="M268.154,175.338l6.871-13.21-4.273-8.41a4.855,4.855,0,0,1-.262-3.63l.331-.952a3.756,3.756,0,0,1,3.366-2.7l6.732-.218a3.645,3.645,0,0,1,3.349,2.2l1.378,2.836a5.569,5.569,0,0,1,.122,4.483l-2.9,7.121L277.5,179.246Z" transform="translate(-72.401 -84.874)" fill="#b97964"/><path d="M278,163.074l39.223,32.47,18.434-39.213,10.464,5.157s-16.132,59.5-25.515,57.025S284.7,201.3,276.132,191c-4.343-5.137-7.639-14.6-3.349-26.3a3.661,3.661,0,0,1,2.268-2.222A3.149,3.149,0,0,1,278,163.074Z" transform="translate(-136.92 -74.931)" fill="#279357"/><path d="M315.763,120.76s13.865,4.126,7.447,23.127c0,0-6.889-1.983-8.022-7.141s-2.18-12.2-2.18-12.2Z" transform="translate(-189.352 -109.913)" fill="#263238"/><path d="M315.763,120.76s13.865,4.126,7.447,23.127c0,0-6.889-1.983-8.022-7.141s-2.18-12.2-2.18-12.2Z" transform="translate(-189.352 -109.913)" opacity="0.3"/><path d="M321.777,159.242l25.305-.932,10.464,1.706,1.413,21.7-20.387,7.716-21.748-4.939-1.134-20.906,1.552-4.165Z" transform="translate(-228.083 -72.983)" fill="#b97964"/><path d="M397,381.071l-9.365,36.536H375.44L377.9,379.98Z" transform="translate(-370.324 145.024)" fill="#b97964"/><path d="M378.335,400.567c1.849,0,3.732-.456,4.29-1.388a1.7,1.7,0,0,0-.14-1.745,1.974,1.974,0,0,0-1.151-.912c-2.546-.734-7.517,2.757-7.743,2.9a.441.441,0,0,0,.157.754A23.767,23.767,0,0,0,378.335,400.567Zm2.163-3.352a2.027,2.027,0,0,1,.68.1,1.028,1.028,0,0,1,.733.536c.279.5.209.734.122.873-.628,1.131-4.378,1.23-7.168.893a14.2,14.2,0,0,1,5.668-2.4Z" transform="translate(-352.639 161.191)" fill="#279357"/><path d="M376.226,402.124h.157c1.744-.932,5.075-4.681,4.639-6.585,0-.456-.4-1.012-1.378-1.091a2.277,2.277,0,0,0-1.918.714c-1.744,1.8-1.918,6.387-1.918,6.6a.453.453,0,0,0,.174.357.356.356,0,0,0,.244,0Zm3.226-6.942h.192c.645,0,.7.337.732.436.157,1.15-2.006,4.066-3.767,5.355a9.669,9.669,0,0,1,1.657-5.236,1.637,1.637,0,0,1,1.186-.535Z" transform="translate(-355.031 159.237)" fill="#279357"/><path d="M385.717,397.133l-16.237.317a1.3,1.3,0,0,0-1.221,1.19l-2.006,15.094A2.646,2.646,0,0,0,368,416.67a1.751,1.751,0,0,0,.453,0c5.86-.218,11.039-.694,18.329-.813,8.6-.159,6.488,1.051,16.6,1.012,6.1,0,6.732-7.934,4.133-8.271-11.929-1.468-13.411-5.494-18.26-10.235A5.094,5.094,0,0,0,385.717,397.133Z" transform="translate(-366.23 161.887)" fill="#263238"/><path d="M435.216,219.94l-92.17,332.669H323.6s9.3-106.949,26.16-148.761a57.8,57.8,0,0,0,3.906-16.344c1.744-20.529,6.418-69.084,11.667-95.822a67.248,67.248,0,0,0,1.2-10.255c.453-11.464,2.965-40.066,16.08-61.488Z" transform="translate(-318.135 -12.372)" fill="#263238"/><path d="M374.563,384.6l1.081,6.069-1.535,4.959h24.538l1.064-4.959,1.814-6.069Z" transform="translate(-372.534 149.567)" fill="#263238"/><path d="M374.563,384.6l1.081,6.069-1.535,4.959h24.538l1.064-4.959,1.814-6.069Z" transform="translate(-372.534 149.567)" fill="#fff" opacity="0.3"/><path d="M319.954,161.406s8.11,14.083,21.486,13.388c12.661-.655,14.841-15.035,14.841-15.035l1.6,21.977,1.587,53.217-2.023,22.572.139,24.873a161.266,161.266,0,0,1-35.752-.655S319.518,190.5,319.954,191s-3.784-15.868-3.784-15.868v-6.625Z" transform="translate(-229.435 -71.557)" fill="#279357"/><path d="M319.954,161.406s8.11,14.083,21.486,13.388c12.661-.655,14.841-15.035,14.841-15.035l1.6,21.977,1.587,53.217-2.023,22.572.139,24.873a161.266,161.266,0,0,1-35.752-.655S319.518,190.5,319.954,191s-3.784-15.868-3.784-15.868v-6.625Z" transform="translate(-229.435 -71.557)" fill="#fff" opacity="0.6"/><path d="M351.723,158.053s-41.856-2.936-43.6,11.425,10.464,43.775,8.441,63.927-11.929,50.4-11.929,50.4,31.689,23.98,42.728,16.046,8.11-98.837,8.11-98.837-23.509-38.023-10.29-40.007,28.34-3.57,27.189,8.469a308,308,0,0,1-5.424,30.545s.977,100.84,10.359,99.511,14.126-12.893,14.126-12.893a114.824,114.824,0,0,1,0-37.071c3.314-20.787,9.383-37.131,6.087-53.554s-6.087-37.408-13.063-37.686C378.511,157.854,351.723,158.053,351.723,158.053Z" transform="translate(-248.315 -73.48)" fill="#279357"/><path d="M351.723,158.053s-41.856-2.936-43.6,11.425,10.464,43.775,8.441,63.927-11.929,50.4-11.929,50.4,31.689,23.98,42.728,16.046,8.11-98.837,8.11-98.837-23.509-38.023-10.29-40.007,28.34-3.57,27.189,8.469a308,308,0,0,1-5.424,30.545s.977,100.84,10.359,99.511,14.126-12.893,14.126-12.893a114.824,114.824,0,0,1,0-37.071c3.314-20.787,9.383-37.131,6.087-53.554s-6.087-37.408-13.063-37.686C378.511,157.854,351.723,158.053,351.723,158.053Z" transform="translate(-248.315 -73.48)" opacity="0.2"/><path d="M350.188,158.012H332.5s-5.354-.377-12.3-.2c-2.756,2.162-6.418,7.141-3.488,17.712l6.087,2.717-1.1,6.783s6.976,12.575,14.667,17.336v-1.309s-23.509-38.023-10.29-40.007,28.34-3.57,27.189,8.469a307.985,307.985,0,0,1-5.424,30.546v.555c3.732-3.769,6.976-10.473,9.208-18.407l-2.477-7.815,5.476-3.431C359.119,164.907,355.326,159.93,350.188,158.012Z" transform="translate(-229.096 -73.519)" fill="#279357"/><path d="M350.188,158.012H332.5s-5.354-.377-12.3-.2c-2.756,2.162-6.418,7.141-3.488,17.712l6.087,2.717-1.1,6.783s6.976,12.575,14.667,17.336v-1.309s-23.509-38.023-10.29-40.007,28.34-3.57,27.189,8.469a307.985,307.985,0,0,1-5.424,30.546v.555c3.732-3.769,6.976-10.473,9.208-18.407l-2.477-7.815,5.476-3.431C359.119,164.907,355.326,159.93,350.188,158.012Z" transform="translate(-229.096 -73.519)" fill="#fff" opacity="0.2"/><path d="M345.877,190.951c5.581-6.684,2.145-11.5,2.145-11.5-9.941-3.848-9.034-12.337-6.749-20.212L325.245,140.63c.959,9.917,1.308,32.688-4.395,40.622v1.765a129.043,129.043,0,0,1,15.068,7.934Z" transform="translate(-227.191 -90.371)" fill="#b97964"/><path d="M341,157.327,328.267,142.55l-2.947,1.21c.1,1.785.157,3.729.192,5.772,1.6,3.749,5.476,9.025,14.527,11.683C340.3,159.886,340.632,158.577,341,157.327Z" transform="translate(-226.917 -88.483)" opacity="0.1"/><path d="M313.552,147.206c3.889,16.86,5.232,24.079,14.283,31.141,13.673,10.612,31.008,1.527,31.654-16.3.576-16.046-5.842-40.9-21.7-44.39-7.095-1.586-14.407,1.106-19.339,7.119A26.188,26.188,0,0,0,313.552,147.206Z" transform="translate(-223.661 -113.41)" fill="#b97964"/><path d="M315.63,134.52a37.387,37.387,0,0,0,5.877,7.934,4.948,4.948,0,0,1-4.168,1.983Z" transform="translate(-190.527 -96.38)" fill="#a24e3f"/><path d="M325.423,133.868a.607.607,0,0,1-.506-.355.778.778,0,0,1,0-.676h0a7.115,7.115,0,0,1,5.494-3.967.7.7,0,0,1,.052,1.388,5.933,5.933,0,0,0-4.517,3.392.571.571,0,0,1-.523.218Z" transform="translate(-216.12 -101.937)" fill="#263238"/><path d="M320.167,129.966a.524.524,0,0,1-.3,0,5.291,5.291,0,0,0-5.372-.4.574.574,0,0,1-.82-.278h0a.763.763,0,0,1,.279-.932,6.413,6.413,0,0,1,6.54.417.743.743,0,0,1,.262.932.6.6,0,0,1-.576.377Z" transform="translate(-186.344 -103.132)" fill="#263238"/><path d="M327.515,143.741a11.033,11.033,0,0,0,2.128-.2.437.437,0,0,0,.3-.5h0a.431.431,0,0,0-.143-.279.334.334,0,0,0-.275-.079,9.341,9.341,0,0,1-8.72-2.777.349.349,0,0,0-.487.026.48.48,0,0,0-.071.549,9.815,9.815,0,0,0,7.272,3.253Z" transform="translate(-206.911 -91.162)" fill="#263238"/><path d="M325.983,162.317a23.38,23.38,0,0,0,4.5-17.117s5.965-6.942,5.668-14.38c0,0,1.744,5.95,0,10.155,0,0,15.469-1.289,15.1-10.155,0,0,1.011,4.463-1.308,6.783,0,0,13.743.655,11.894-7.438S349.2,118.085,349.2,118.085s-10.255-9.917-24.416,7.617c0,0-16.708,11.9-4.866,31.736Z" transform="translate(-231.104 -115.291)" fill="#263238"/><path d="M334,143.835a11.581,11.581,0,0,0,6.575,6.208c3.75,1.289,5.7-2.5,4.726-6.585-.872-3.669-3.889-8.767-7.708-8.271a5.13,5.13,0,0,0-3.854,3.218,6.4,6.4,0,0,0,.261,5.43Z" transform="translate(-245.311 -95.758)" fill="#b97964"/><path d="M323.669,134.71c.122,1.448.907,2.539,1.744,2.46s1.4-1.349,1.256-2.817-.924-2.559-1.744-2.46S323.529,133.242,323.669,134.71Z" transform="translate(-209.692 -98.97)" fill="#2e353a"/><path d="M315.363,133.84c.122,1.448.907,2.539,1.744,2.46s1.413-1.349,1.273-2.817-.924-2.559-1.744-2.46S315.206,132.372,315.363,133.84Z" transform="translate(-186.911 -99.826)" fill="#2e353a"/><path d="M314.85,131.759l2.982-1.369S316.507,133.306,314.85,131.759Z" transform="translate(-185.491 -100.442)" fill="#2e353a"/><path d="M323.15,132.679l2.982-1.369S324.789,134.127,323.15,132.679Z" transform="translate(-208.267 -99.537)" fill="#2e353a"/><path d="M337.748,152.226a4.974,4.974,0,0,1-4.53-3.368,6.236,6.236,0,0,1,.885-6.073l.645.655a5.138,5.138,0,0,0-.333,5.841,3.8,3.8,0,0,0,4.959,1.567,4.819,4.819,0,0,0,2.364-5.2,4.248,4.248,0,0,0-3.99-3.7,3.474,3.474,0,0,0-1.744.4l-.366-.912a4.54,4.54,0,0,1,2.023-.476c2.735,0,4.953,2.522,4.953,5.633s-2.217,5.633-4.953,5.633Z" transform="translate(-241.578 -90.047)" fill="#279357"/><g transform="translate(91.222 50.913)" opacity="0.6"><path d="M337.748,152.226a4.974,4.974,0,0,1-4.53-3.368,6.236,6.236,0,0,1,.885-6.073l.645.655a5.138,5.138,0,0,0-.333,5.841,3.8,3.8,0,0,0,4.959,1.567,4.819,4.819,0,0,0,2.364-5.2,4.248,4.248,0,0,0-3.99-3.7,3.474,3.474,0,0,0-1.744.4l-.366-.912a4.54,4.54,0,0,1,2.023-.476c2.735,0,4.953,2.522,4.953,5.633s-2.217,5.633-4.953,5.633Z" transform="translate(-332.8 -140.96)" fill="#fff"/></g><path d="M289.607,209.05l14.161,8.906,14.981-2.1a2.04,2.04,0,0,1,1.57.417l5.633,4.264a2.515,2.515,0,0,1,.733.853l1.622,3.154a2.981,2.981,0,0,1,.066,2.517,2.371,2.371,0,0,1-1.81,1.45,84.071,84.071,0,0,1-12.871,2.142,74.042,74.042,0,0,1-11.2-2.717l-19.864-8.093Z" transform="translate(-140.087 -23.082)" fill="#b97964"/><path d="M301.212,162.38c8.127-5.95,17.754,7.934,25.654,27.253l14.859,36.436,55.7,36.456-3.819,11.623s-53.593-17.1-66.673-35.445S290.086,170.612,301.212,162.38Z" transform="translate(-236.277 -70.349)" fill="#279357"/><path d="M349.911,279.772H233.569c-4.778-.111-8.734-4.253-9.226-9.66L215.868,159.97a9.518,9.518,0,0,1,1.959-6.813,7.276,7.276,0,0,1,5.784-2.846H339.953c4.784.094,8.749,4.245,9.226,9.66l8.476,110.142a9.5,9.5,0,0,1-1.952,6.82,7.257,7.257,0,0,1-5.791,2.84Z" transform="translate(-52.658 -80.852)" fill="#279357"/><g transform="translate(163.166 69.458)" opacity="0.4"><path d="M349.911,279.772H233.569c-4.778-.111-8.734-4.253-9.226-9.66L215.868,159.97a9.518,9.518,0,0,1,1.959-6.813,7.276,7.276,0,0,1,5.784-2.846H339.953c4.784.094,8.749,4.245,9.226,9.66l8.476,110.142a9.5,9.5,0,0,1-1.952,6.82,7.257,7.257,0,0,1-5.791,2.84Z" transform="translate(-215.824 -150.31)" fill="#fff"/></g><path d="M338.492,153.24a3.7,3.7,0,0,1,3.488,3.61l8.511,110.618a3.568,3.568,0,0,1-.736,2.543,2.729,2.729,0,0,1-2.159,1.067H230.747a3.7,3.7,0,0,1-3.488-3.61L218.749,156.85a3.548,3.548,0,0,1,.73-2.55,2.711,2.711,0,0,1,2.165-1.06Z" transform="translate(-50.534 -77.97)" fill="#279357"/><path d="M338.492,153.24a3.7,3.7,0,0,1,3.488,3.61l8.511,110.618a3.568,3.568,0,0,1-.736,2.543,2.729,2.729,0,0,1-2.159,1.067H230.747a3.7,3.7,0,0,1-3.488-3.61L218.749,156.85a3.548,3.548,0,0,1,.73-2.55,2.711,2.711,0,0,1,2.165-1.06Z" transform="translate(-50.534 -77.97)" fill="#fff" opacity="0.8"/><path d="M249.62,181.12,286.1,237.471l.209,2.578a3.568,3.568,0,0,1-.736,2.543,2.729,2.729,0,0,1-2.159,1.067H218.751Z" transform="translate(13.608 -50.55)" fill="#279357"/><path d="M246.76,237.455,274.873,172l47.088,80.727H251.155a3.7,3.7,0,0,1-3.488-3.61Z" transform="translate(-70.872 -59.52)" fill="#279357"/><path d="M246.76,237.455,274.873,172l47.088,80.727H251.155a3.7,3.7,0,0,1-3.488-3.61Z" transform="translate(-70.872 -59.52)" fill="#fff" opacity="0.2"/><path d="M253.138,171.872c.476,5.294,4.356,9.348,9.034,9.441a7.107,7.107,0,0,0,5.666-2.774,9.3,9.3,0,0,0,1.92-6.667c-.476-5.294-4.355-9.348-9.034-9.441a7.106,7.106,0,0,0-5.666,2.774A9.3,9.3,0,0,0,253.138,171.872Z" transform="translate(-29.761 -68.932)" fill="#279357"/></g></g></svg>