<svg xmlns="http://www.w3.org/2000/svg" width="212.382" height="88.004" viewBox="0 0 212.382 88.004"><g transform="translate(0 0)"><rect width="13.123" height="6.736" transform="translate(17.282)" fill="#1a495e"/><rect width="6.736" height="6.736" transform="translate(58.96 0.217)" fill="#1a495e"/><path d="M163.322,110.448v31.17a5.5,5.5,0,0,1-5.5,5.5H154.5a10.1,10.1,0,0,0,.731-3.739v-32.93h-6.42v31.17c0,3.037-3.045,5.5-6.081,5.5h-3.3a10.1,10.1,0,0,0,.731-3.739v-32.93h-6.42v31.17a5.5,5.5,0,0,1-5.5,5.5H116.836V110.439h-6.421l.028,43.106,6.06-.027c.045,0,.085.021.131.021H130a10.1,10.1,0,0,0,5.778-1.816,5.21,5.21,0,0,0,3.907,1.816h4.8a10.067,10.067,0,0,0,6.11-2.09,5.246,5.246,0,0,0,4.186,2.09h4.8a10.16,10.16,0,0,0,10.159-10.16v-32.93Z" transform="translate(-34.878 -99.653)" fill="#1a495e"/><path d="M98.115,110.475l-4.841.006a7.6,7.6,0,0,0-7.6,7.615l.025,16.393a6.924,6.924,0,0,0,6.931,6.915l6.674,0v.832a5.5,5.5,0,0,1-5.5,5.5H79.451A10.121,10.121,0,0,0,80.167,144V110.478H73.746v31.766a5.491,5.491,0,0,1-5.383,5.487H62.881l-.017.012h-17.7a5.5,5.5,0,0,1-5.5-5.5V110.478H33.243V144a10.16,10.16,0,0,0,10.16,10.16h26.6c.079,0,.156-.01.234-.012H95.569a10.159,10.159,0,0,0,10.159-10.159V118.08A7.6,7.6,0,0,0,98.115,110.475Zm1.193,24.512-7.2.011V119.28a2.4,2.4,0,0,1,2.4-2.4h2.4a2.4,2.4,0,0,1,2.4,2.4Z" transform="translate(-33.243 -99.654)" fill="#1a495e"/><g transform="translate(138.885 10.795)"><path d="M243.562,110.448l.028,42.763,6.392-.03V110.448Z" transform="translate(-176.582 -110.448)" fill="#279357"/><rect width="13.123" height="6.736" transform="translate(42.311 46.687)" fill="#279357"/><path d="M233.51,141.618a5.5,5.5,0,0,1-5.5,5.5h-9.566V121.8a11.356,11.356,0,0,0-11.384-11.35l-9.3.018.018,6.389h8.079a6.168,6.168,0,0,1,6.169,6.168V147.1l-14.175.017.011,6.393h19.21c.128.009.254.03.385.03h12.317a10.16,10.16,0,0,0,10.159-10.16V110.485h-6.42Z" transform="translate(-175.612 -110.448)" fill="#279357"/><path d="M186.366,110.448l-3.637,0a7.6,7.6,0,0,0-7.6,7.616l.024,29.038a6.927,6.927,0,0,0,6.932,6.916l6.673-.006s6.421-.8,6.421-6.406V119.255A8.808,8.808,0,0,0,186.366,110.448Zm2.4,34.2a2.961,2.961,0,0,1-2.956,2.961l-1.271,0a2.97,2.97,0,0,1-2.974-2.97V120.454a3.6,3.6,0,1,1,7.2,0Z" transform="translate(-175.133 -110.448)" fill="#279357"/></g></g><text transform="translate(49.642 71.004)" fill="#279357" font-size="9" font-family="Vazir-Medium, Vazir" font-weight="500" letter-spacing="-0.02em"><tspan x="0" y="0">خدمات توسعه تجارت الکترونیک</tspan></text><text transform="translate(73.142 81.004)" fill="#279357" font-size="5" font-family="Calibri-Bold, Calibri" font-weight="700" letter-spacing="-0.02em"><tspan x="0" y="0">E-Commerce Development Services</tspan><tspan font-family="Calibri-Bold"><tspan x="0" y="6"></tspan></tspan></text><rect width="43.18" height="0.549" transform="translate(0.084 69.009)" fill="#1a495e"/><rect width="48.18" height="0.549" transform="translate(164.203 69.004)" fill="#1a495e"/></svg>