<svg xmlns="http://www.w3.org/2000/svg" width="120.834" height="93.634" viewBox="0 0 120.834 93.634"><g transform="translate(-2.01 -8.943)"><path d="M106.465,81.473H9.706a1.727,1.727,0,0,1-1.727-1.727V16.964A8.03,8.03,0,0,1,16,8.944h84.173a8.03,8.03,0,0,1,8.02,8.02V79.747A1.727,1.727,0,0,1,106.465,81.473ZM11.432,78.02h93.306V16.964a4.572,4.572,0,0,0-4.567-4.567H16a4.572,4.572,0,0,0-4.567,4.567Z" transform="translate(4.337 0.001)" fill="#279357"/><path d="M106.465,28.672H9.706a1.727,1.727,0,0,1-1.727-1.727V16.965A8.03,8.03,0,0,1,16,8.943h84.173a8.03,8.03,0,0,1,8.02,8.022v9.981A1.727,1.727,0,0,1,106.465,28.672ZM11.432,25.219h93.306V16.965a4.574,4.574,0,0,0-4.567-4.568H16a4.574,4.574,0,0,0-4.567,4.568Z" transform="translate(4.337)" fill="#279357"/><path d="M16.752,16.922H15a1.727,1.727,0,0,1,0-3.453h1.749a1.727,1.727,0,1,1,0,3.453Z" transform="translate(8.186 3.288)" fill="#279357"/><path d="M21.707,16.922H19.96a1.727,1.727,0,1,1,0-3.453h1.747a1.727,1.727,0,1,1,0,3.453Z" transform="translate(11.787 3.288)" fill="#279357"/><path d="M26.661,16.922H24.916a1.727,1.727,0,1,1,0-3.453h1.746a1.727,1.727,0,1,1,0,3.453Z" transform="translate(15.388 3.288)" fill="#279357"/><path d="M79.645,16.922H32.611a1.727,1.727,0,0,1,0-3.453H79.645a1.727,1.727,0,1,1,0,3.453Z" transform="translate(20.979 3.288)" fill="#279357"/><path d="M116.781,73.5H8.064A6.064,6.064,0,0,1,3.029,64.07l9.577-14.348a1.727,1.727,0,0,1,1.436-.767H110.8a1.727,1.727,0,0,1,1.436.767l9.586,14.355a6.064,6.064,0,0,1-5.043,9.429ZM14.966,52.4,5.893,65.988a2.609,2.609,0,0,0,2.17,4.057H116.781a2.609,2.609,0,0,0,2.17-4.057L109.878,52.4Z" transform="translate(0 29.072)" fill="#279357"/><path d="M42.337,46.67H15.608a1.727,1.727,0,0,1-1.727-1.727,14.177,14.177,0,0,1,3.108-9.632,12.259,12.259,0,0,1,7.852-3.93,1.713,1.713,0,0,1,1.359.4,4.316,4.316,0,0,0,5.525,0,1.7,1.7,0,0,1,1.354-.4c7.079.965,10.976,5.782,10.976,13.562a1.727,1.727,0,0,1-1.718,1.727ZM17.416,43.217H40.529c-.461-4.694-2.882-7.481-7.22-8.3a7.887,7.887,0,0,1-8.679,0A8.574,8.574,0,0,0,19.6,37.581a9.831,9.831,0,0,0-2.182,5.635Z" transform="translate(8.611 16.29)" fill="#279357"/><path d="M25.773,37.162a7.519,7.519,0,1,1,7.519-7.519,7.519,7.519,0,0,1-7.519,7.519Zm0-11.583a4.066,4.066,0,1,0,4.066,4.064,4.066,4.066,0,0,0-4.066-4.064Z" transform="translate(11.802 9.577)" fill="#279357"/><path d="M75.837,30.764H37.853a1.727,1.727,0,0,1,0-3.453H75.837a1.727,1.727,0,1,1,0,3.453Z" transform="translate(24.787 13.345)" fill="#279357"/><path d="M75.837,38.828H37.853a1.727,1.727,0,0,1,0-3.453H75.837a1.727,1.727,0,0,1,0,3.453Z" transform="translate(24.787 19.204)" fill="#279357"/><path d="M91.611,46.892H16.142a1.727,1.727,0,1,1,0-3.453H91.611a1.727,1.727,0,1,1,0,3.453Z" transform="translate(9.013 25.063)" fill="#279357"/><path d="M38.621,60.2H30.237a1.727,1.727,0,1,1,0-3.453h8.384a1.727,1.727,0,1,1,0,3.453Z" transform="translate(19.254 34.734)" fill="#279357"/><path d="M48.745,60.2H40.361a1.727,1.727,0,1,1,0-3.453h8.384a1.727,1.727,0,0,1,0,3.453Z" transform="translate(26.61 34.734)" fill="#279357"/></g></svg>