<svg xmlns="http://www.w3.org/2000/svg" width="20" height="20" viewBox="0 0 20 20"><g transform="translate(-321.418 -151)"><path d="M1.944,6.277c-.553-1.214-.589-2.121-.074-2.829C2.2,2.9,3.666,1.482,4.382,1.5a.909.909,0,0,1,.48.294A18.956,18.956,0,0,1,7.055,4.658c.053.25-.072.484-.3.876A2.429,2.429,0,0,0,6.39,7.727a10.415,10.415,0,0,0,3.591,4.627.75.75,0,0,0,.873-1.22A8.893,8.893,0,0,1,7.791,7.188c-.091-.249,0-.446.266-.907a2.647,2.647,0,0,0,.467-1.929A15.6,15.6,0,0,0,5.91.718,2.308,2.308,0,0,0,4.479,0C2.838-.1.927,2.109.623,2.617-.193,3.73-.208,5.171.579,6.9a.75.75,0,0,0,1.365-.621" transform="translate(321.418 151)" fill="#279357"/><path d="M17.3,5.63a15.568,15.568,0,0,0-3.636-2.611,3.061,3.061,0,0,0-2.305.633l-.231.143A.75.75,0,1,0,11.9,5.079l.256-.159c.506-.319.838-.513,1.157-.445a18.052,18.052,0,0,1,2.913,2.2.985.985,0,0,1,.29.443c.027.774-1.47,2.261-2,2.58-.676.485-1.584.45-2.8-.117C8.7,8.332,3.963,4.091,1.368.324a.75.75,0,1,0-1.235.85C2.911,5.206,7.849,9.6,11.114,10.956a5.6,5.6,0,0,0,2.339.59,3.141,3.141,0,0,0,1.879-.584c.283-.162,2.75-2.087,2.685-3.929a2.3,2.3,0,0,0-.715-1.4" transform="translate(323.399 159.454)" fill="#279357"/></g></svg>