<svg xmlns="http://www.w3.org/2000/svg" width="151.434" height="154" viewBox="0 0 151.434 154"><g transform="translate(-1416.282 -4533.5)"><g transform="translate(1412.282 4533.5)"><g transform="translate(4)"><path d="M119.5,0H16.833A12.849,12.849,0,0,0,4,12.833V94.967A12.833,12.833,0,0,0,13.628,107.4l1.283-4.969a7.7,7.7,0,0,1-5.778-7.459V12.833a7.7,7.7,0,0,1,7.7-7.7H119.5a7.7,7.7,0,0,1,7.7,7.7V15.4h5.133V12.833A12.849,12.849,0,0,0,119.5,0Z" transform="translate(-4)" fill="#1a495e"/></g><g transform="translate(14.27 10.257)"><g transform="translate(0 0)"><rect width="5" height="5" transform="translate(0.448 -0.257)" fill="#1a495e"/></g></g><g transform="translate(24.638 10.257)"><g transform="translate(0 0)"><rect width="5" height="5" transform="translate(0.08 -0.257)" fill="#1a495e"/></g></g><g transform="translate(35.006 10.257)"><g transform="translate(0 0)"><rect width="5" height="5" transform="translate(-0.288 -0.257)" fill="#1a495e"/></g></g><g transform="translate(29.667 41.067)"><path d="M209.015,228.853,184.67,204.508a35.5,35.5,0,0,0,3.049-7.207H191.8v-5.133h-2.977a34.583,34.583,0,0,0-2.156-18.393V148.533h-5.133v16.345a36.127,36.127,0,0,0-5.133-5.328V138.267h-5.133v17.695a35.7,35.7,0,0,0-5.133-2.451V128H161v23.952a35.54,35.54,0,0,0-5.133-.721v-18.1h-5.133v18.1a35.539,35.539,0,0,0-5.133.721V143.4h-5.133v10.11a35.71,35.71,0,0,0-5.133,2.451V140.833H130.2V159.55a36.127,36.127,0,0,0-5.133,5.328V145.967h-5.133v27.807a34.583,34.583,0,0,0-2.156,18.393H84V197.3h34.881a35.859,35.859,0,0,0,55.04,19.117l23.765,23.765a2.567,2.567,0,0,0,3.629,0l7.7-7.7A2.567,2.567,0,0,0,209.015,228.853ZM153.3,217.834a30.8,30.8,0,1,1,30.8-30.8A30.833,30.833,0,0,1,153.3,217.834Zm46.2,16.9L177.91,213.147a36.364,36.364,0,0,0,3.863-4.279l21.8,21.8Z" transform="translate(-84 -128)" fill="#279357"/></g><g transform="translate(73.3 74.434)"><path d="M245.667,232a25.667,25.667,0,1,0,25.667,25.667A25.667,25.667,0,0,0,245.667,232Zm0,46.2a20.534,20.534,0,0,1-17.756-10.267h35.513A20.534,20.534,0,0,1,245.667,278.2Zm-19.858-15.4a20.346,20.346,0,0,1,7.025-21.137v16h5.133V238.645a20.439,20.439,0,0,1,5.133-1.335v20.356h5.133V237.31a20.44,20.44,0,0,1,5.133,1.335v19.022H258.5v-16a20.346,20.346,0,0,1,7.025,21.137Z" transform="translate(-220 -232)" fill="#279357"/></g><g transform="translate(19.4 20.533)"><path d="M167.5,64H64.833A12.849,12.849,0,0,0,52,76.833v82.134A12.849,12.849,0,0,0,64.833,171.8H98.2v-5.133H64.833a7.7,7.7,0,0,1-7.7-7.7V76.833a7.7,7.7,0,0,1,7.7-7.7H167.5a7.7,7.7,0,0,1,7.7,7.7v82.134a7.7,7.7,0,0,1-1.925,5.092l3.85,3.4a12.817,12.817,0,0,0,3.208-8.488V76.833A12.849,12.849,0,0,0,167.5,64Z" transform="translate(-52 -64)" fill="#279357"/></g><g transform="translate(29.822 30.993)"><g transform="translate(0 0)"><rect width="5" height="5" transform="translate(-0.104 0.007)" fill="#279357"/></g></g><g transform="translate(39.542 30.993)"><g transform="translate(0 0)"><rect width="5" height="5" transform="translate(0.176 0.007)" fill="#279357"/></g></g><g transform="translate(50.558 30.993)"><g transform="translate(0 0)"><rect width="5" height="5" transform="translate(0.16 0.007)" fill="#279357"/></g></g><g transform="translate(35.006 84.776)"><g transform="translate(0 0)"><rect width="5" height="15" transform="translate(-0.288 0.224)" fill="#279357"/></g></g><g transform="translate(44.725 69.224)"><g transform="translate(0 0)"><rect width="6" height="31" transform="translate(-0.007 -0.225)" fill="#279357"/></g></g><g transform="translate(55.742 77)"><g transform="translate(0 0)"><rect width="5" height="23" transform="translate(-0.024 0)" fill="#279357"/></g></g></g></g></svg>