<svg xmlns="http://www.w3.org/2000/svg" width="96.26" height="113.584" viewBox="0 0 96.26 113.584"><g transform="translate(-15.359)"><g transform="translate(49.895)"><path d="M106.384,14.035a16.365,16.365,0,0,0-29.42-7.315,1.924,1.924,0,1,0,3.108,2.271,12.516,12.516,0,0,1,22.5,5.587,1.927,1.927,0,0,0,1.9,1.654,2.061,2.061,0,0,0,.274-.019A1.926,1.926,0,0,0,106.384,14.035Z" transform="translate(-76.593)" fill="#279357"/></g><g transform="translate(19.209 25.026)"><path d="M110.468,54.933l-5.775-9.626a1.923,1.923,0,0,0-1.651-.935H97.507a1.925,1.925,0,0,0,0,3.85h4.445L105.417,54H27.51l3.465-5.775h2.039a1.925,1.925,0,0,0,0-3.85H29.885a1.923,1.923,0,0,0-1.651.935l-5.775,9.626a1.926,1.926,0,0,0,1.651,2.917h84.707a1.926,1.926,0,0,0,1.651-2.917Z" transform="translate(-22.185 -44.372)" fill="#279357"/></g><g transform="translate(66.111 10.787)"><path d="M137.128,26.174a1.922,1.922,0,0,0-1.2-.86l-26.244-6.138a1.923,1.923,0,0,0-2.313,1.436l-1.979,8.46a1.925,1.925,0,0,0,3.749.876l1.541-6.585,22.494,5.262-3.535,15.113a1.923,1.923,0,0,0,1.436,2.312,1.947,1.947,0,0,0,.441.051,1.922,1.922,0,0,0,1.871-1.486l3.973-16.987A1.917,1.917,0,0,0,137.128,26.174Z" transform="translate(-105.343 -19.126)" fill="#279357"/></g><g transform="translate(26.715 5.851)"><g transform="translate(0)"><path d="M73.284,26.909,71.53,12.073a1.926,1.926,0,0,0-2.138-1.686l-32.2,3.806a1.926,1.926,0,0,0-1.685,2.138l2.924,24.745a1.926,1.926,0,0,0,1.91,1.7,2.1,2.1,0,0,0,.229-.014,1.926,1.926,0,0,0,1.685-2.138l-2.7-22.835,28.376-3.354L69.46,27.36a1.925,1.925,0,0,0,3.824-.451Z" transform="translate(-35.494 -10.374)" fill="#279357"/></g></g><g transform="translate(41.099 18.482)"><path d="M99.629,50.133l-3.821-15.89a1.923,1.923,0,0,0-2.322-1.421L62.472,40.281A1.925,1.925,0,0,0,61.051,42.6l1.91,7.942a1.925,1.925,0,1,0,3.743-.9l-1.46-6.071,27.27-6.557,3.371,14.018a1.926,1.926,0,0,0,3.744-.9Z" transform="translate(-60.997 -32.769)" fill="#279357"/></g><g transform="translate(15.359 34.653)"><path d="M107.765,63.267a1.926,1.926,0,0,0-1.923-1.826H21.135a1.925,1.925,0,0,0-1.923,1.826l-3.851,75.081a1.925,1.925,0,0,0,1.923,2.024h92.408a1.925,1.925,0,0,0,1.924-2.024ZM19.31,136.522l3.653-71.231h81.049l3.653,71.231Z" transform="translate(-15.359 -61.441)" fill="#279357"/></g><g transform="translate(72.151 42.353)"><path d="M121.827,75.093a5.775,5.775,0,1,0,5.775,5.775A5.782,5.782,0,0,0,121.827,75.093Zm0,7.7a1.925,1.925,0,1,1,1.925-1.925A1.927,1.927,0,0,1,121.827,82.794Z" transform="translate(-116.052 -75.093)" fill="#279357"/></g><g transform="translate(43.273 42.353)"><path d="M70.627,75.093A5.775,5.775,0,1,0,76.4,80.868,5.782,5.782,0,0,0,70.627,75.093Zm0,7.7a1.925,1.925,0,1,1,1.925-1.925A1.927,1.927,0,0,1,70.627,82.794Z" transform="translate(-64.852 -75.093)" fill="#279357"/></g><g transform="translate(47.124 48.129)"><path d="M102.481,85.333h-.148a1.926,1.926,0,0,0-1.925,1.925,1.9,1.9,0,0,0,.148.742v9.846a12.514,12.514,0,1,1-25.027,0V87.259a1.925,1.925,0,0,0-3.85,0V97.847a16.364,16.364,0,1,0,32.727,0V87.259A1.926,1.926,0,0,0,102.481,85.333Z" transform="translate(-71.679 -85.333)" fill="#279357"/></g></g></svg>