<svg xmlns="http://www.w3.org/2000/svg" width="519.208" height="486" viewBox="0 0 519.208 486"><g transform="translate(-11.464 -26.66)"><g transform="translate(30.761 27.968)"><path d="M501.824,210.723a293.519,293.519,0,0,0-10.816-32.537C461.388,104.014,397.888,48.058,318.78,32.45c-78.631-15.42-214.672,5.8-234.529,101.517-4.116,19.813-.277,40.314-.377,60.549-.2,38.506-16.64,66.75-34.6,99.2-13.5,24.406-24.994,52.473-18.593,79.641,4.16,17.628,15.531,32.793,28.7,45.217,44.641,42.045,104.424,50.653,163.076,41.046,27.734-4.548,54.858-16.7,82.337-20.135,35.189-4.437,70.722,6.9,105.755-.777,33.636-7.366,62.124-31.861,78.7-62.024C516.855,326.429,516.389,264.838,501.824,210.723Z" transform="translate(-28.858 -27.888)" fill="#279357"/><path d="M501.824,210.723a293.519,293.519,0,0,0-10.816-32.537C461.388,104.014,397.888,48.058,318.78,32.45c-78.631-15.42-214.672,5.8-234.529,101.517-4.116,19.813-.277,40.314-.377,60.549-.2,38.506-16.64,66.75-34.6,99.2-13.5,24.406-24.994,52.473-18.593,79.641,4.16,17.628,15.531,32.793,28.7,45.217,44.641,42.045,104.424,50.653,163.076,41.046,27.734-4.548,54.858-16.7,82.337-20.135,35.189-4.437,70.722,6.9,105.755-.777,33.636-7.366,62.124-31.861,78.7-62.024C516.855,326.429,516.389,264.838,501.824,210.723Z" transform="translate(-28.858 -27.888)" fill="#fff" opacity="0.7"/></g><g transform="translate(216.458 43.623)"><g opacity="0.2"><rect width="144.194" height="405.714" fill="none" stroke="#263238" stroke-linecap="round" stroke-miterlimit="10" stroke-width="1"/><path d="M196.94,54.22H340.08l-3.361-11.16" transform="translate(-196.175 -41.884)" fill="none" stroke="#263238" stroke-linecap="round" stroke-miterlimit="10" stroke-width="1"/><path d="M196.94,66.4H340.08l-3.361-11.16" transform="translate(-196.175 -40.552)" fill="none" stroke="#263238" stroke-linecap="round" stroke-miterlimit="10" stroke-width="1"/><path d="M196.94,78.569H340.08L336.719,67.42" transform="translate(-196.175 -39.22)" fill="none" stroke="#263238" stroke-linecap="round" stroke-miterlimit="10" stroke-width="1"/><path d="M196.94,90.75H340.08l-3.361-11.16" transform="translate(-196.175 -37.889)" fill="none" stroke="#263238" stroke-linecap="round" stroke-miterlimit="10" stroke-width="1"/><path d="M196.94,102.919H340.08L336.719,91.77" transform="translate(-196.175 -36.557)" fill="none" stroke="#263238" stroke-linecap="round" stroke-miterlimit="10" stroke-width="1"/><path d="M196.94,115.1H340.08l-3.361-11.149" transform="translate(-196.175 -35.225)" fill="none" stroke="#263238" stroke-linecap="round" stroke-miterlimit="10" stroke-width="1"/><path d="M196.94,127.28H340.08l-3.361-11.16" transform="translate(-196.175 -33.894)" fill="none" stroke="#263238" stroke-linecap="round" stroke-miterlimit="10" stroke-width="1"/><path d="M196.94,139.449H340.08L336.719,128.3" transform="translate(-196.175 -32.562)" fill="none" stroke="#263238" stroke-linecap="round" stroke-miterlimit="10" stroke-width="1"/><path d="M196.94,151.63H340.08l-3.361-11.16" transform="translate(-196.175 -31.232)" fill="none" stroke="#263238" stroke-linecap="round" stroke-miterlimit="10" stroke-width="1"/><path d="M196.94,163.8H340.08l-3.361-11.149" transform="translate(-196.175 -29.9)" fill="none" stroke="#263238" stroke-linecap="round" stroke-miterlimit="10" stroke-width="1"/><path d="M196.94,175.979H340.08l-3.361-11.149" transform="translate(-196.175 -28.568)" fill="none" stroke="#263238" stroke-linecap="round" stroke-miterlimit="10" stroke-width="1"/><path d="M196.94,188.16H340.08L336.719,177" transform="translate(-196.175 -27.237)" fill="none" stroke="#263238" stroke-linecap="round" stroke-miterlimit="10" stroke-width="1"/><path d="M196.94,200.329H340.08l-3.361-11.149" transform="translate(-196.175 -25.905)" fill="none" stroke="#263238" stroke-linecap="round" stroke-miterlimit="10" stroke-width="1"/><path d="M196.94,212.51H340.08l-3.361-11.16" transform="translate(-196.175 -24.574)" fill="none" stroke="#263238" stroke-linecap="round" stroke-miterlimit="10" stroke-width="1"/><path d="M196.94,224.679H340.08l-3.361-11.149" transform="translate(-196.175 -23.242)" fill="none" stroke="#263238" stroke-linecap="round" stroke-miterlimit="10" stroke-width="1"/><path d="M196.94,236.859H340.08l-3.361-11.149" transform="translate(-196.175 -21.91)" fill="none" stroke="#263238" stroke-linecap="round" stroke-miterlimit="10" stroke-width="1"/><path d="M196.94,249.04H340.08l-3.361-11.16" transform="translate(-196.175 -20.579)" fill="none" stroke="#263238" stroke-linecap="round" stroke-miterlimit="10" stroke-width="1"/><path d="M196.94,261.209H340.08l-3.361-11.149" transform="translate(-196.175 -19.247)" fill="none" stroke="#263238" stroke-linecap="round" stroke-miterlimit="10" stroke-width="1"/><path d="M196.94,273.389H340.08l-3.361-11.149" transform="translate(-196.175 -17.915)" fill="none" stroke="#263238" stroke-linecap="round" stroke-miterlimit="10" stroke-width="1"/><path d="M196.94,285.559H340.08l-3.361-11.149" transform="translate(-196.175 -16.584)" fill="none" stroke="#263238" stroke-linecap="round" stroke-miterlimit="10" stroke-width="1"/><path d="M196.94,297.739H340.08l-3.361-11.149" transform="translate(-196.175 -15.252)" fill="none" stroke="#263238" stroke-linecap="round" stroke-miterlimit="10" stroke-width="1"/><path d="M196.94,309.92H340.08l-3.361-11.16" transform="translate(-196.175 -13.921)" fill="none" stroke="#263238" stroke-linecap="round" stroke-miterlimit="10" stroke-width="1"/><path d="M196.94,322.089H340.08l-3.361-11.149" transform="translate(-196.175 -12.589)" fill="none" stroke="#263238" stroke-linecap="round" stroke-miterlimit="10" stroke-width="1"/><path d="M196.94,334.269H340.08l-3.361-11.149" transform="translate(-196.175 -11.257)" fill="none" stroke="#263238" stroke-linecap="round" stroke-miterlimit="10" stroke-width="1"/><path d="M196.94,346.45H340.08l-3.361-11.16" transform="translate(-196.175 -9.927)" fill="none" stroke="#263238" stroke-linecap="round" stroke-miterlimit="10" stroke-width="1"/><path d="M196.94,358.619H340.08l-3.361-11.149" transform="translate(-196.175 -8.595)" fill="none" stroke="#263238" stroke-linecap="round" stroke-miterlimit="10" stroke-width="1"/><path d="M196.94,370.8H340.08l-3.361-11.16" transform="translate(-196.175 -7.264)" fill="none" stroke="#263238" stroke-linecap="round" stroke-miterlimit="10" stroke-width="1"/><path d="M196.94,382.969H340.08l-3.361-11.149" transform="translate(-196.175 -5.932)" fill="none" stroke="#263238" stroke-linecap="round" stroke-miterlimit="10" stroke-width="1"/><path d="M196.94,395.149H340.08L336.719,384" transform="translate(-196.175 -4.6)" fill="none" stroke="#263238" stroke-linecap="round" stroke-miterlimit="10" stroke-width="1"/></g><g transform="translate(155.055)" opacity="0.2"><rect width="144.194" height="405.714" fill="none" stroke="#263238" stroke-linecap="round" stroke-miterlimit="10" stroke-width="1"/><path d="M336.72,54.22H479.849l-3.361-11.16" transform="translate(-335.943 -41.884)" fill="none" stroke="#263238" stroke-linecap="round" stroke-miterlimit="10" stroke-width="1"/><path d="M336.72,66.4H479.849l-3.361-11.16" transform="translate(-335.943 -40.552)" fill="none" stroke="#263238" stroke-linecap="round" stroke-miterlimit="10" stroke-width="1"/><path d="M336.72,78.569H479.849L476.488,67.42" transform="translate(-335.943 -39.22)" fill="none" stroke="#263238" stroke-linecap="round" stroke-miterlimit="10" stroke-width="1"/><path d="M336.72,90.75H479.849l-3.361-11.16" transform="translate(-335.943 -37.889)" fill="none" stroke="#263238" stroke-linecap="round" stroke-miterlimit="10" stroke-width="1"/><path d="M336.72,102.919H479.849L476.488,91.77" transform="translate(-335.943 -36.557)" fill="none" stroke="#263238" stroke-linecap="round" stroke-miterlimit="10" stroke-width="1"/><path d="M336.72,115.1H479.849l-3.361-11.149" transform="translate(-335.943 -35.225)" fill="none" stroke="#263238" stroke-linecap="round" stroke-miterlimit="10" stroke-width="1"/><path d="M336.72,127.28H479.849l-3.361-11.16" transform="translate(-335.943 -33.894)" fill="none" stroke="#263238" stroke-linecap="round" stroke-miterlimit="10" stroke-width="1"/><path d="M336.72,139.449H479.849L476.488,128.3" transform="translate(-335.943 -32.562)" fill="none" stroke="#263238" stroke-linecap="round" stroke-miterlimit="10" stroke-width="1"/><path d="M336.72,151.63H479.849l-3.361-11.16" transform="translate(-335.943 -31.232)" fill="none" stroke="#263238" stroke-linecap="round" stroke-miterlimit="10" stroke-width="1"/><path d="M336.72,163.8H479.849l-3.361-11.149" transform="translate(-335.943 -29.9)" fill="none" stroke="#263238" stroke-linecap="round" stroke-miterlimit="10" stroke-width="1"/><path d="M336.72,175.979H479.849l-3.361-11.149" transform="translate(-335.943 -28.568)" fill="none" stroke="#263238" stroke-linecap="round" stroke-miterlimit="10" stroke-width="1"/><path d="M336.72,188.16H479.849L476.488,177" transform="translate(-335.943 -27.237)" fill="none" stroke="#263238" stroke-linecap="round" stroke-miterlimit="10" stroke-width="1"/><path d="M336.72,200.329H479.849l-3.361-11.149" transform="translate(-335.943 -25.905)" fill="none" stroke="#263238" stroke-linecap="round" stroke-miterlimit="10" stroke-width="1"/><path d="M336.72,212.51H479.849l-3.361-11.16" transform="translate(-335.943 -24.574)" fill="none" stroke="#263238" stroke-linecap="round" stroke-miterlimit="10" stroke-width="1"/><path d="M336.72,224.679H479.849l-3.361-11.149" transform="translate(-335.943 -23.242)" fill="none" stroke="#263238" stroke-linecap="round" stroke-miterlimit="10" stroke-width="1"/><path d="M336.72,236.859H479.849l-3.361-11.149" transform="translate(-335.943 -21.91)" fill="none" stroke="#263238" stroke-linecap="round" stroke-miterlimit="10" stroke-width="1"/><path d="M336.72,249.04H479.849l-3.361-11.16" transform="translate(-335.943 -20.579)" fill="none" stroke="#263238" stroke-linecap="round" stroke-miterlimit="10" stroke-width="1"/><path d="M336.72,261.209H479.849l-3.361-11.149" transform="translate(-335.943 -19.247)" fill="none" stroke="#263238" stroke-linecap="round" stroke-miterlimit="10" stroke-width="1"/><path d="M336.72,273.389H479.849l-3.361-11.149" transform="translate(-335.943 -17.915)" fill="none" stroke="#263238" stroke-linecap="round" stroke-miterlimit="10" stroke-width="1"/><path d="M336.72,285.559H479.849l-3.361-11.149" transform="translate(-335.943 -16.584)" fill="none" stroke="#263238" stroke-linecap="round" stroke-miterlimit="10" stroke-width="1"/><path d="M336.72,297.739H479.849l-3.361-11.149" transform="translate(-335.943 -15.252)" fill="none" stroke="#263238" stroke-linecap="round" stroke-miterlimit="10" stroke-width="1"/><path d="M336.72,309.92H479.849l-3.361-11.16" transform="translate(-335.943 -13.921)" fill="none" stroke="#263238" stroke-linecap="round" stroke-miterlimit="10" stroke-width="1"/><path d="M336.72,322.089H479.849l-3.361-11.149" transform="translate(-335.943 -12.589)" fill="none" stroke="#263238" stroke-linecap="round" stroke-miterlimit="10" stroke-width="1"/><path d="M336.72,334.269H479.849l-3.361-11.149" transform="translate(-335.943 -11.257)" fill="none" stroke="#263238" stroke-linecap="round" stroke-miterlimit="10" stroke-width="1"/><path d="M336.72,346.45H479.849l-3.361-11.16" transform="translate(-335.943 -9.927)" fill="none" stroke="#263238" stroke-linecap="round" stroke-miterlimit="10" stroke-width="1"/><path d="M336.72,358.619H479.849l-3.361-11.149" transform="translate(-335.943 -8.595)" fill="none" stroke="#263238" stroke-linecap="round" stroke-miterlimit="10" stroke-width="1"/><path d="M336.72,370.8H479.849l-3.361-11.16" transform="translate(-335.943 -7.264)" fill="none" stroke="#263238" stroke-linecap="round" stroke-miterlimit="10" stroke-width="1"/><path d="M336.72,382.969H479.849l-3.361-11.149" transform="translate(-335.943 -5.932)" fill="none" stroke="#263238" stroke-linecap="round" stroke-miterlimit="10" stroke-width="1"/><path d="M336.72,395.149H479.849L476.488,384" transform="translate(-335.943 -4.6)" fill="none" stroke="#263238" stroke-linecap="round" stroke-miterlimit="10" stroke-width="1"/></g></g><g transform="translate(11.464 274.193)"><path d="M105.026,264.418S88.7,255.3,87.487,275.9,83.26,430.1,83.26,430.1" transform="translate(-3.613 -248.467)" fill="none" stroke="#263238" stroke-linecap="round" stroke-miterlimit="10" stroke-width="2"/><path d="M79.43,276.21S92.742,305.841,86.7,426.783" transform="translate(-4.031 -246.957)" fill="none" stroke="#263238" stroke-linecap="round" stroke-miterlimit="10" stroke-width="2"/><path d="M95.917,269.81s-6.246,3.994-9.8-.577,2.407-12.968-2.851-16.563-14.311,1.886-14.311,1.886,6.978,2.052,6.756,5.868-3.583,5.247-4.038,3.583-3.772-10.062-9.441-6.567a14.044,14.044,0,0,0-6.534,8.875s13.19-1.4,13.989,3.561-5.414-.865-10.85-1.187-10.417.477-10.062,3.772a42.888,42.888,0,0,1-.51,8.72s4.615-4.1,10.594-3.75,5.769,4.16.322,3.849-10.106,4.826-10.106,4.826,4.959,8.487,11.271,12.68,8.575,2.7,9.319-.533-.965-11.537,2.851-11.3-6.312,14.422-1.442,15.209,8.775-.577,10.051-3.783l1.231-3.195s-1.7-8.3-.965-11.537,1.642.1,2.507,3.971,1.4,13.2,3.062,12.747,6.989-7.233,8.231-9.9-7.011-10.783-6.911-12.425,6.468,1.475,7.466,3.173a43.808,43.808,0,0,1,1.952,3.938s3.971-2.5,3.872-10.151S95.917,269.81,95.917,269.81Z" transform="translate(-7.439 -249.665)" fill="#279357"/><path d="M95.917,269.81s-6.246,3.994-9.8-.577,2.407-12.968-2.851-16.563-14.311,1.886-14.311,1.886,6.978,2.052,6.756,5.868-3.583,5.247-4.038,3.583-3.772-10.062-9.441-6.567a14.044,14.044,0,0,0-6.534,8.875s13.19-1.4,13.989,3.561-5.414-.865-10.85-1.187-10.417.477-10.062,3.772a42.888,42.888,0,0,1-.51,8.72s4.615-4.1,10.594-3.75,5.769,4.16.322,3.849-10.106,4.826-10.106,4.826,4.959,8.487,11.271,12.68,8.575,2.7,9.319-.533-.965-11.537,2.851-11.3-6.312,14.422-1.442,15.209,8.775-.577,10.051-3.783l1.231-3.195s-1.7-8.3-.965-11.537,1.642.1,2.507,3.971,1.4,13.2,3.062,12.747,6.989-7.233,8.231-9.9-7.011-10.783-6.911-12.425,6.468,1.475,7.466,3.173a43.808,43.808,0,0,1,1.952,3.938s3.971-2.5,3.872-10.151S95.917,269.81,95.917,269.81Z" transform="translate(-7.439 -249.665)" fill="#263238" opacity="0.3"/><path d="M62.68,285.608c4.071-5.025,10.073-11.848,15.109-15.1" transform="translate(-5.863 -247.581)" fill="none" stroke="#263238" stroke-linecap="round" stroke-miterlimit="10" stroke-width="1"/><path d="M58.43,290.008s1.043-1.453,2.74-3.628" transform="translate(-6.328 -245.845)" fill="none" stroke="#263238" stroke-linecap="round" stroke-miterlimit="10" stroke-width="1"/><path d="M78.7,271.64s6.046,8.553,7.166,17.361" transform="translate(-4.111 -247.457)" fill="none" stroke="#263238" stroke-linecap="round" stroke-miterlimit="10" stroke-width="1"/><path d="M72.52,276.2s1.7-.987,1.109,9.9" transform="translate(-4.787 -246.961)" fill="none" stroke="#263238" stroke-linecap="round" stroke-miterlimit="10" stroke-width="1"/><path d="M76.5,267.987s3.461-3.073,1.642-9.2" transform="translate(-4.352 -248.862)" fill="none" stroke="#263238" stroke-linecap="round" stroke-miterlimit="10" stroke-width="1"/><line x1="2.474" y1="4.515" transform="translate(65.004 19.79)" fill="none" stroke="#263238" stroke-linecap="round" stroke-miterlimit="10" stroke-width="1"/><path d="M68.867,276.522S61.023,270.6,56.12,270.31" transform="translate(-6.58 -247.603)" fill="none" stroke="#263238" stroke-linecap="round" stroke-miterlimit="10" stroke-width="1"/><path d="M114.773,253.789s-.255,8.986-7.255,9.418S96.169,251.959,89,254.776s-7.832,15.62-7.832,15.62,6.811-5.547,10.472-2.773,2.818,7.178.843,6.49-12.647-3.073-13.013,4.981a17,17,0,0,0,4.437,12.6s7.588-14.167,13.1-11.582-4.559,4.826-8.586,10.062-6.656,10.75-3.073,12.647a51.539,51.539,0,0,1,8.365,6.445s-.954-7.41,3.483-13.168,8.1-2.929,4.06,2.307-2.03,13.445-2.03,13.445,11.881.821,20.39-2.64,8.542-6.756,5.8-9.7-12.2-6.9-9.374-10.561,10.1,16.119,14.244,11.815,5.414-9.185,3.073-12.647l-2.33-3.461s-9.463-3.96-12.2-6.9,1.209-1.575,5.669.2,14.178,7.588,14.865,5.613-2.485-11.926-4.3-14.987-15.531-.333-17.151-1.542,5.891-5.469,8.265-5.314a51.785,51.785,0,0,1,5.269.732s.211-5.68-7.521-10.794S114.773,253.789,114.773,253.789Z" transform="translate(-4.031 -249.841)" fill="#279357"/><path d="M114.773,253.789s-.255,8.986-7.255,9.418S96.169,251.959,89,254.776s-7.832,15.62-7.832,15.62,6.811-5.547,10.472-2.773,2.818,7.178.843,6.49-12.647-3.073-13.013,4.981a17,17,0,0,0,4.437,12.6s7.588-14.167,13.1-11.582-4.559,4.826-8.586,10.062-6.656,10.75-3.073,12.647a51.539,51.539,0,0,1,8.365,6.445s-.954-7.41,3.483-13.168,8.1-2.929,4.06,2.307-2.03,13.445-2.03,13.445,11.881.821,20.39-2.64,8.542-6.756,5.8-9.7-12.2-6.9-9.374-10.561,10.1,16.119,14.244,11.815,5.414-9.185,3.073-12.647l-2.33-3.461s-9.463-3.96-12.2-6.9,1.209-1.575,5.669.2,14.178,7.588,14.865,5.613-2.485-11.926-4.3-14.987-15.531-.333-17.151-1.542,5.891-5.469,8.265-5.314a51.785,51.785,0,0,1,5.269.732s.211-5.68-7.521-10.794S114.773,253.789,114.773,253.789Z" transform="translate(-4.031 -249.841)" fill="#263238" opacity="0.2"/><path d="M108.475,295.505c-2.219-7.51-4.992-18.171-4.815-25.415" transform="translate(-1.382 -247.627)" fill="none" stroke="#263238" stroke-linecap="round" stroke-miterlimit="10" stroke-width="1"/><path d="M110.834,301.514s-.743-2.03-1.764-5.214" transform="translate(-0.79 -244.76)" fill="none" stroke="#263238" stroke-linecap="round" stroke-miterlimit="10" stroke-width="1"/><path d="M106.45,268.46s12.68-.222,22.265,4.659" transform="translate(-1.077 -247.805)" fill="none" stroke="#263238" stroke-linecap="round" stroke-miterlimit="10" stroke-width="1"/><path d="M106.8,277.792s.166-2.374,10.628,5.691" transform="translate(-1.038 -246.82)" fill="none" stroke="#263238" stroke-linecap="round" stroke-miterlimit="10" stroke-width="1"/><path d="M101.187,268.329s-.721-5.547-8.087-7.9" transform="translate(-2.536 -248.683)" fill="none" stroke="#263238" stroke-linecap="round" stroke-miterlimit="10" stroke-width="1"/><line x1="6.201" y1="0.61" transform="translate(94.446 27.256)" fill="none" stroke="#263238" stroke-linecap="round" stroke-miterlimit="10" stroke-width="1"/><path d="M104.64,282.47S93.358,286.286,89.73,291" transform="translate(-2.905 -246.273)" fill="none" stroke="#263238" stroke-linecap="round" stroke-miterlimit="10" stroke-width="1"/><path d="M43.47,307.28s35.677,23.585,35.067,114.9" transform="translate(-7.964 -243.56)" fill="none" stroke="#263238" stroke-linecap="round" stroke-miterlimit="10" stroke-width="2"/><path d="M87.4,302.074s-1.109,10.339-9.263,10.184S66.1,298.214,57.559,300.777s-10.55,17.284-10.55,17.284,8.387-5.813,12.347-2.219,2.574,8.542.355,7.566-14.3-4.737-15.531,4.515a19.691,19.691,0,0,0,3.96,14.976s10.084-15.642,16.208-12.136-5.713,5.147-10.861,10.794-8.642,11.781-4.737,14.3S57.8,364.1,57.8,364.1s-.41-8.642,5.247-14.865,9.629-2.618,4.437,3.029S63.972,367.6,63.972,367.6s13.634,2.063,23.774-1.109,10.495-6.989,7.621-10.639-13.423-9.119-9.829-13.079,10.128,19.558,15.331,14.976,7.1-10.073,4.737-14.3l-2.363-4.216s-10.55-5.458-13.423-9.108,1.542-1.7,6.534.777,15.631,10.084,16.64,7.876-1.742-14-3.539-17.75-17.949-1.853-19.647-3.395,7.3-5.769,9.984-5.347a58.485,58.485,0,0,1,6.024,1.342s.765-6.534-7.666-13.179S87.4,302.074,87.4,302.074Z" transform="translate(-7.909 -244.589)" fill="#279357"/><path d="M87.4,302.074s-1.109,10.339-9.263,10.184S66.1,298.214,57.559,300.777s-10.55,17.284-10.55,17.284,8.387-5.813,12.347-2.219,2.574,8.542.355,7.566-14.3-4.737-15.531,4.515a19.691,19.691,0,0,0,3.96,14.976s10.084-15.642,16.208-12.136-5.713,5.147-10.861,10.794-8.642,11.781-4.737,14.3S57.8,364.1,57.8,364.1s-.41-8.642,5.247-14.865,9.629-2.618,4.437,3.029S63.972,367.6,63.972,367.6s13.634,2.063,23.774-1.109,10.495-6.989,7.621-10.639-13.423-9.119-9.829-13.079,10.128,19.558,15.331,14.976,7.1-10.073,4.737-14.3l-2.363-4.216s-10.55-5.458-13.423-9.108,1.542-1.7,6.534.777,15.631,10.084,16.64,7.876-1.742-14-3.539-17.75-17.949-1.853-19.647-3.395,7.3-5.769,9.984-5.347a58.485,58.485,0,0,1,6.024,1.342s.765-6.534-7.666-13.179S87.4,302.074,87.4,302.074Z" transform="translate(-7.909 -244.589)" fill="#263238" opacity="0.3"/><path d="M75.952,349.985c-1.9-8.875-4.049-21.422-3.162-29.775" transform="translate(-4.78 -242.146)" fill="none" stroke="#263238" stroke-linecap="round" stroke-miterlimit="10" stroke-width="1"/><path d="M78.052,357.18s-.666-2.43-1.542-6.19" transform="translate(-4.351 -238.78)" fill="none" stroke="#263238" stroke-linecap="round" stroke-miterlimit="10" stroke-width="1"/><path d="M76.11,318.59s14.666.932,25.26,7.466" transform="translate(-4.394 -242.323)" fill="none" stroke="#263238" stroke-linecap="round" stroke-miterlimit="10" stroke-width="1"/><path d="M75.64,329.372s.41-2.718,11.726,7.577" transform="translate(-4.446 -241.179)" fill="none" stroke="#263238" stroke-linecap="round" stroke-miterlimit="10" stroke-width="1"/><path d="M70.046,317.974s-.3-6.479-8.586-9.884" transform="translate(-5.997 -243.471)" fill="none" stroke="#263238" stroke-linecap="round" stroke-miterlimit="10" stroke-width="1"/><line x1="7.1" y1="1.287" transform="translate(58.492 82.846)" fill="none" stroke="#263238" stroke-linecap="round" stroke-miterlimit="10" stroke-width="1"/><path d="M72.775,334.44s-13.379,3.328-18,8.431" transform="translate(-6.728 -240.59)" fill="none" stroke="#263238" stroke-linecap="round" stroke-miterlimit="10" stroke-width="1"/><path d="M56,376.442s22.986,17.583,25.4,43.542L76.567,332.9" transform="translate(-6.594 -240.758)" fill="none" stroke="#263238" stroke-linecap="round" stroke-miterlimit="10" stroke-width="2"/><path d="M109.13,360.734C78.9,355.287,78.9,416.978,78.9,416.978" transform="translate(-4.089 -237.751)" fill="none" stroke="#263238" stroke-linecap="round" stroke-miterlimit="10" stroke-width="2"/><path d="M82.458,423.426S64.919,295.85,115.739,295.85" transform="translate(-4.02 -244.81)" fill="none" stroke="#263238" stroke-linecap="round" stroke-miterlimit="10" stroke-width="2"/><path d="M97.792,358.981c-4.138-4.637-12.913-4.637-18.071,7.233s-.521,9.807-.521,9.807,9.818-3.1,16.008-5.159,14.422-7.233,14.976-4.138-4.138,6.2-9.818,7.233-20.645,5.159-19.092,8.265,5.159,12.38,5.159,12.38a131.035,131.035,0,0,1,13.934-10.317c6.656-4.138,10.849-2.585,7.233,2.063s-13.989,9.807-11.87,16.008,14.422,13.934,14.422,13.934,1.542-12.9,5.159-17.04,3.617.521,2.585,7.766a84.311,84.311,0,0,0-1.032,9.3l14.422,5.159s5.158-7.766,7.766-10.317l2.574-2.585s-11.349-9.807-11.87-16.008,7.766,0,10.328,1.032,6.656,8.265,6.656,8.265,2.574-11.87,3.1-16.008l.521-4.127S139.5,377.6,135.377,377.6s-6.2,3.1-6.2-1.032,4.138-6.712,8.786-6.2a81.648,81.648,0,0,1,12.392,3.1s3.1-2.574,2.063-10.317-3.617-7.766-9.818-5.68-10.317,6.712-14.965,6.712-2.063-5.68,1.032-7.233,10.838-4.648,12.392-5.159-8.265-7.766-13.423-8.775-11.848,2.607-11.36,7.765C117.405,361.566,101.918,363.63,97.792,358.981Z" transform="translate(-4.266 -239.671)" fill="#279357"/><path d="M125.72,405.31c.155,1.553.266,3.117.333,4.67" transform="translate(1.031 -232.839)" fill="none" stroke="#263238" stroke-linecap="round" stroke-miterlimit="10" stroke-width="1"/><path d="M116.38,371.9a137.815,137.815,0,0,1,9.718,31.994" transform="translate(0.009 -236.493)" fill="none" stroke="#263238" stroke-linecap="round" stroke-miterlimit="10" stroke-width="1"/><path d="M115.137,370.266c-2.563-5.547-4.437-8.875-4.437-8.875a15.243,15.243,0,0,0,6.656-6.2,17.184,17.184,0,0,1,5.159-6.19" transform="translate(-0.612 -238.997)" fill="none" stroke="#263238" stroke-linecap="round" stroke-miterlimit="10" stroke-width="1"/><path d="M94.37,376.632s18.582-7.766,18.582-6.2" transform="translate(-2.398 -236.676)" fill="none" stroke="#263238" stroke-linecap="round" stroke-miterlimit="10" stroke-width="1"/><path d="M120.43,367.578s8.265-4.138,15.531-4.138" transform="translate(0.452 -237.418)" fill="none" stroke="#263238" stroke-linecap="round" stroke-miterlimit="10" stroke-width="1"/><path d="M119.32,378.34a70.743,70.743,0,0,0-9.807,9.807,44.3,44.3,0,0,0-7.233,11.87" transform="translate(-1.533 -235.789)" fill="none" stroke="#263238" stroke-linecap="round" stroke-miterlimit="10" stroke-width="1"/><path d="M122.76,380.291s10.838-3.1,16.518,2.063" transform="translate(0.707 -235.676)" fill="none" stroke="#263238" stroke-linecap="round" stroke-miterlimit="10" stroke-width="1"/><path d="M147.017,321.554c-5.624-3.328-11.837-3.406-14.876-6.911s2.929-5.281,6.135-3.96,10.605,5.147,12.014,5.979.433-11.315-2.219-15.9-9.729-7.233-13.312-3.494c-7.51,7.888-19.225-2.452-18.426-8.62s-4.948-12.791-17.295-8.875-7.766,6.035-7.766,6.035,8.775,5.38,14.422,8.708,14.932,6.179,12.935,8.6-7.388.943-11.892-2.674-17.439-12.2-18.759-9.008-5.924,12.014-5.924,12.014a132.533,132.533,0,0,1,16.94,3.75c7.521,2.363,9.052,6.5,3.184,6.811s-16.552-4.094-19.869,1.531-1.054,20.079-1.054,20.079,10.761-7.3,16.252-7.277,1.975,3.073-4.16,7.033a82.336,82.336,0,0,0-7.688,5.3l5.547,14.311s9.241-1.187,12.88-.932l3.639.266s0-15.01,4.3-19.458,5.07,5.846,5.991,8.464-1.842,10.483-1.842,10.483,10.661-5.835,14.111-8.143l3.461-2.319s-3.983-10.894-6.656-14.022-6.39-2.64-3.328-5.347,7.766-1.287,10.428,2.563a80.984,80.984,0,0,1,5.78,11.393s3.983.643,9.152-5.214S152.641,324.871,147.017,321.554ZM98.205,338.073c-4.127-2.063,5.68-6.19,5.68-6.19,3.572-.521-1.6,8.254-5.724,6.19Zm6.956-19.27c-1.764-.887,3.517-2.64,3.517-2.64,7.588,1.464-1.8,3.517-3.561,2.64Z" transform="translate(-3.914 -246.696)" fill="#279357"/><path d="M96.648,341.69l-3.328,3.328" transform="translate(-2.512 -239.797)" fill="none" stroke="#263238" stroke-linecap="round" stroke-miterlimit="10" stroke-width="1"/><path d="M117.17,312.73a137.03,137.03,0,0,1-17.75,28.311" transform="translate(-1.845 -242.964)" fill="none" stroke="#263238" stroke-linecap="round" stroke-miterlimit="10" stroke-width="1"/><path d="M117.14,309.907c2.474-5.547,3.75-9.2,3.75-9.2a15.2,15.2,0,0,0,9.075,1.01,17.328,17.328,0,0,1,8.065-.166" transform="translate(0.092 -244.278)" fill="none" stroke="#263238" stroke-linecap="round" stroke-miterlimit="10" stroke-width="1"/><path d="M97.89,298.81s18.038,8.953,16.862,9.984" transform="translate(-2.013 -244.486)" fill="none" stroke="#263238" stroke-linecap="round" stroke-miterlimit="10" stroke-width="1"/><path d="M121.65,312.69s8.542,3.528,13.312,8.986" transform="translate(0.586 -242.968)" fill="none" stroke="#263238" stroke-linecap="round" stroke-miterlimit="10" stroke-width="1"/><path d="M114.105,318a72.284,72.284,0,0,0-13.834-1,44.6,44.6,0,0,0-13.712,2.33" transform="translate(-3.252 -242.499)" fill="none" stroke="#263238" stroke-linecap="round" stroke-miterlimit="10" stroke-width="1"/><path d="M113.34,323s9.452,6.157,9.274,13.834" transform="translate(-0.323 -241.841)" fill="none" stroke="#263238" stroke-linecap="round" stroke-miterlimit="10" stroke-width="1"/><path d="M73.43,385.209c-4.526-2.674-9.529-2.729-11.981-5.547s2.363-4.249,4.937-3.184,8.542,4.138,9.674,4.8.355-9.163-1.686-12.8-7.832-5.824-10.705-2.818c-6.046,6.357-15.464-1.975-14.821-6.933s-3.983-10.295-13.922-7.166-6.235,4.859-6.235,4.859,7.056,4.326,11.582,7.011,12.014,4.97,10.406,6.911-5.946.765-9.563-2.141-14.033-9.829-15.1-7.255-4.892,9.674-4.892,9.674a104.423,104.423,0,0,1,13.634,3.029c6.046,1.9,7.288,5.225,2.563,5.48s-13.312-3.328-16,1.22-.821,16.174-.821,16.174,8.664-5.868,13.079-5.846,1.586,2.463-3.328,5.647a68.648,68.648,0,0,0-6.19,4.282l4.471,11.449a84.212,84.212,0,0,1,10.361-.743l2.929.211s0-12.081,3.461-15.664,4.082,4.715,4.815,6.823-1.475,8.442-1.475,8.442,8.575-4.7,11.36-6.567l2.784-1.864s-3.217-8.764-5.391-11.271-5.147-2.141-2.64-4.315,6.257-1.032,8.4,2.063a65.375,65.375,0,0,1,4.648,9.163s3.206.521,7.366-4.193S77.945,387.882,73.43,385.209ZM34.1,398.521c-3.328-1.664,4.571-4.992,4.571-4.992,2.918-.422-1.242,6.645-4.571,4.981ZM39.65,382.99c-1.42-.71,2.829-2.13,2.829-2.13,6.2,1.242-1.387,2.84-2.773,2.141Z" transform="translate(-10.544 -238.819)" fill="#279357"/><path d="M32.894,401.42c-.865.91-1.753,1.8-2.674,2.651" transform="translate(-9.413 -233.265)" fill="none" stroke="#263238" stroke-linecap="round" stroke-miterlimit="10" stroke-width="1"/><path d="M49.412,378.11A110.658,110.658,0,0,1,35.09,400.9" transform="translate(-8.88 -235.814)" fill="none" stroke="#263238" stroke-linecap="round" stroke-miterlimit="10" stroke-width="1"/><path d="M49.38,375.848c2-4.437,3.017-7.388,3.017-7.388a12.3,12.3,0,0,0,7.3.81,13.734,13.734,0,0,1,6.49-.133" transform="translate(-7.318 -236.869)" fill="none" stroke="#263238" stroke-linecap="round" stroke-miterlimit="10" stroke-width="1"/><path d="M33.89,366.9s14.51,7.211,13.567,8.032" transform="translate(-9.012 -237.04)" fill="none" stroke="#263238" stroke-linecap="round" stroke-miterlimit="10" stroke-width="1"/><path d="M53,378.08s6.867,2.84,10.683,7.233" transform="translate(-6.922 -235.817)" fill="none" stroke="#263238" stroke-linecap="round" stroke-miterlimit="10" stroke-width="1"/><path d="M46.931,382.349a58.355,58.355,0,0,0-11.094-.788,35.876,35.876,0,0,0-11.027,1.875" transform="translate(-10.004 -235.438)" fill="none" stroke="#263238" stroke-linecap="round" stroke-miterlimit="10" stroke-width="1"/><path d="M46.32,386.37s7.6,4.948,7.466,11.094" transform="translate(-7.652 -234.911)" fill="none" stroke="#263238" stroke-linecap="round" stroke-miterlimit="10" stroke-width="1"/><path d="M55.9,306.624s-5.68,4.138-9.3,0S48.157,294.232,43,291.093s-13.423,2.585-13.423,2.585,6.712,1.542,6.712,5.159-3.1,5.17-3.617,3.617-4.127-9.3-9.3-5.68a13.312,13.312,0,0,0-5.68,8.742s12.392-2.063,13.423,2.585-5.159-.521-10.317-.521-9.818,1.032-9.3,4.138a41.047,41.047,0,0,1,0,8.254,15.331,15.331,0,0,1,9.807-4.127c5.68,0,5.68,3.617.521,3.617s-9.3,5.159-9.3,5.159,5.159,7.766,11.36,11.36,8.254,2.063,8.775-1.032-1.553-10.85,2.063-10.85-5.159,13.945-.51,14.422,8.254-1.043,9.285-4.138l1.032-3.1S42.477,323.519,43,320.446s1.542,0,2.574,3.605,2.074,12.392,3.617,11.881,6.2-7.122,7.244-9.74-7.233-9.818-7.233-11.36,6.2,1.032,7.233,2.585a39.494,39.494,0,0,1,2.052,3.628s3.616-2.574,3.1-9.807S55.9,306.624,55.9,306.624Z" transform="translate(-11.464 -245.433)" fill="#279357"/><path d="M25.45,323.319c3.572-4.981,8.875-11.759,13.434-15.109" transform="translate(-9.934 -243.458)" fill="none" stroke="#263238" stroke-linecap="round" stroke-miterlimit="10" stroke-width="1"/><path d="M21.74,327.643s.91-1.431,2.385-3.583" transform="translate(-10.34 -241.725)" fill="none" stroke="#263238" stroke-linecap="round" stroke-miterlimit="10" stroke-width="1"/><path d="M39.89,309.14s6.19,7.766,7.766,16.008" transform="translate(-8.355 -243.356)" fill="none" stroke="#263238" stroke-linecap="round" stroke-miterlimit="10" stroke-width="1"/><path d="M34.3,313.793s1.553-1.032,1.553,9.3" transform="translate(-8.967 -242.851)" fill="none" stroke="#263238" stroke-linecap="round" stroke-miterlimit="10" stroke-width="1"/><path d="M37.56,305.865s3.1-3.1,1.032-8.775" transform="translate(-8.61 -244.674)" fill="none" stroke="#263238" stroke-linecap="round" stroke-miterlimit="10" stroke-width="1"/><line x1="2.585" y1="4.138" transform="translate(22.238 62.167)" fill="none" stroke="#263238" stroke-linecap="round" stroke-miterlimit="10" stroke-width="1"/><path d="M30.872,314.3s-7.766-5.159-12.392-5.159" transform="translate(-10.697 -243.356)" fill="none" stroke="#263238" stroke-linecap="round" stroke-miterlimit="10" stroke-width="1"/><rect width="39.915" height="57.443" transform="translate(56.662 176.808)" fill="#263238" stroke="#263238" stroke-linecap="round" stroke-miterlimit="10" stroke-width="2"/></g><g transform="translate(99.476 27.16)"><rect width="349.536" height="380.01" fill="#fff" stroke="#263238" stroke-miterlimit="10" stroke-width="1"/><rect width="349.536" height="88.039" transform="translate(0 105.755)" fill="#fff" stroke="#263238" stroke-linecap="round" stroke-linejoin="round" stroke-width="1"/><rect width="349.536" height="139.801" fill="#279357" stroke="#263238" stroke-linecap="round" stroke-linejoin="round" stroke-width="1"/><path d="M376.988,88.749a4.038,4.038,0,1,0-1.179,2.863,4.049,4.049,0,0,0,1.179-2.863Z" transform="translate(-60.389 -20.868)" fill="#fff"/><path d="M293.518,85.509a4.049,4.049,0,1,0-4.038,4.049A4.049,4.049,0,0,0,293.518,85.509Z" transform="translate(-69.517 -21.222)" fill="#fff"/><path d="M334.448,138.589a4.049,4.049,0,1,0-4.049,4.049A4.049,4.049,0,0,0,334.448,138.589Z" transform="translate(-65.041 -15.417)" fill="#fff"/><circle cx="4.049" cy="4.049" r="4.049" transform="translate(270.75 53.049)" fill="#fff"/><path d="M230.718,129.68a4.038,4.038,0,1,0-1.187,2.859,4.049,4.049,0,0,0,1.187-2.859Z" transform="translate(-76.384 -16.393)" fill="#fff"/><path d="M200.8,148.159a4.049,4.049,0,1,0-4.049,4.049,4.049,4.049,0,0,0,4.049-4.049Z" transform="translate(-79.656 -14.371)" fill="#fff"/><path d="M213.7,73.4a4.049,4.049,0,1,0-4.038,4.038A4.049,4.049,0,0,0,213.7,73.4Z" transform="translate(-78.246 -22.547)" fill="#fff"/><circle cx="4.049" cy="4.049" r="4.049" transform="translate(61.736 42.255)" fill="#fff"/><path d="M114.8,89.559a4.049,4.049,0,1,0-4.049,4.049A4.049,4.049,0,0,0,114.8,89.559Z" transform="translate(-89.061 -20.779)" fill="#fff"/><circle cx="4.049" cy="4.049" r="4.049" transform="translate(117.925 92.598)" fill="#fff"/><path d="M392.8,128.06a4.049,4.049,0,1,0-4.038,4.038A4.049,4.049,0,0,0,392.8,128.06Z" transform="translate(-58.66 -16.57)" fill="#fff"/><circle cx="4.049" cy="4.049" r="4.049" transform="translate(183.543 52.151)" fill="#fff"/><path d="M339.9,80.25,330,144.526l47.2-55.29" transform="translate(-64.642 -21.354)" fill="none" stroke="#fff" stroke-miterlimit="10" stroke-width="1"/><path d="M295.949,85.11l-69.679,49,113.276,9.43" transform="translate(-75.985 -20.823)" fill="none" stroke="#fff" stroke-miterlimit="10" stroke-width="1"/><line x2="44.053" y2="58.885" transform="translate(221.306 64.287)" fill="none" stroke="#fff" stroke-miterlimit="10" stroke-width="1"/><line x2="56.189" y2="50.343" transform="translate(65.785 46.305)" fill="none" stroke="#fff" stroke-miterlimit="10" stroke-width="1"/><path d="M236.591,130.566,205.119,153.94,114.44,115.09" transform="translate(-88.215 -17.544)" fill="none" stroke="#fff" stroke-miterlimit="10" stroke-width="1"/><path d="M205.562,158.991l6.412-40.192-97.091,1.342L110.39,91.376,154.443,68.9l65.63,4.5L276.25,78.8l77.766,66.972,64.731-11.682L401.219,90.477,363.457,79.694l-54.836,7.189L276.25,78.8l-37.308,57.088-28.311-16.64,9.441-41.8" transform="translate(-88.658 -22.595)" fill="none" stroke="#fff" stroke-miterlimit="10" stroke-width="1"/><path d="M289.08,88.485,300,56.158l58.175-1.908L343.916,81.3l57.176-26.569" transform="translate(-69.117 -24.198)" fill="none" stroke="#fff" stroke-miterlimit="10" stroke-width="1"/><path d="M209.26,74.771,212.865,56.4h62.479l-9.907,23.762" transform="translate(-77.845 -23.962)" fill="none" stroke="#fff" stroke-miterlimit="10" stroke-width="1"/><line y1="33.957" transform="translate(21.732 34.823)" fill="none" stroke="#fff" stroke-miterlimit="10" stroke-width="1"/><line x1="25.748" y1="25.748" transform="translate(41.557 21.466)" fill="none" stroke="#fff" stroke-miterlimit="10" stroke-width="1"/><rect width="349.536" height="38.606" fill="#e8e8e8" stroke="#263238" stroke-linecap="round" stroke-linejoin="round" stroke-width="1"/><rect width="349.536" height="17.273" fill="#263238" stroke="#263238" stroke-linecap="round" stroke-linejoin="round" stroke-width="1"/><path d="M373.279,34.3a3.04,3.04,0,1,0-3.04,3.04A3.04,3.04,0,0,0,373.279,34.3Z" transform="translate(-60.574 -26.712)" fill="#e8e8e8"/><path d="M384.229,34.3a3.04,3.04,0,1,0-3.029,3.04A3.04,3.04,0,0,0,384.229,34.3Z" transform="translate(-59.376 -26.712)" fill="#e8e8e8"/><path d="M395.189,34.3a3.04,3.04,0,1,0-3.04,3.04A3.04,3.04,0,0,0,395.189,34.3Z" transform="translate(-58.178 -26.712)" fill="#e8e8e8"/><circle cx="47.536" cy="47.536" r="47.536" transform="translate(3.959 83.019) rotate(-13.31)" fill="#fff"/><path d="M136.966,110.574s-1.62,0-1.775-2.052,1.032-2.429,1.032-2.429a3.406,3.406,0,0,1-.41-3.45c.91-1.742,3.994-1.242,3.994-1.242s-2-2.784,1.431-4.826,6.379.133,5.292.311-2.119-1.62-.089-2.9,6.534.089,6.3,1.941-1.475-2.629,2.385-1.72,5.258,4.437,3.971,4.948,1.642-3.106,3.694-.655,2.1,5.691,1.254,5.624.976-4.2,4.36-1.686,3.328,4.981,2.086,5.691,1.109-5.225,3.128-1.453-1.464,6.3-4.016,9.041-1.775,9.5-1.93,9.984-7.832,3.561-10.295,4-.832-2.674-1.686-6.468-3.694-6.168-2.651-9.086.932-4.837-2.385-5.547S136.966,110.574,136.966,110.574Z" transform="translate(-85.947 -19.906)" fill="#263238"/><path d="M149.531,181.293a47.392,47.392,0,0,0,34.978-15.365,68.491,68.491,0,0,0-7.643-8.1c-8.808-8.076-12.491-8.076-12.491-8.076h0c-5.281-3.273-14.521-4.049-16.474-4.271-2.285-.244-10.117-3.539-10.117-3.539s-11.094-7.078-15.165-7.333S113,138.15,113,145.028c0,3.073.166,11.371.344,19.547a47.414,47.414,0,0,0,36.187,16.718Z" transform="translate(-88.372 -15.411)" fill="#279357" stroke="#263238" stroke-linecap="round" stroke-linejoin="round" stroke-width="1"/><line x2="5.003" y2="26.813" transform="translate(45.007 137.394)" fill="#279357" stroke="#263238" stroke-linecap="round" stroke-linejoin="round" stroke-width="1"/><line x2="0.843" y2="4.537" transform="translate(43.487 129.185)" fill="#279357" stroke="#263238" stroke-linecap="round" stroke-linejoin="round" stroke-width="1"/><path d="M156.329,134.41l-4.992,14.255a6.223,6.223,0,0,1-3.461,3.683,25.26,25.26,0,0,1-5.036,1.575c-3.672.666-7.521-6.013-8.353-7.521s1.842-8.353,1.842-8.353Z" transform="translate(-86.04 -15.431)" fill="#c9c9c9" stroke="#263238" stroke-linecap="round" stroke-linejoin="round" stroke-width="1"/><path d="M142.533,137.52h-4.67L136,138.5c-.655,1.819-2.219,6.4-1.553,7.6.2.366.588,1.043,1.109,1.853l14.854-6.656Z" transform="translate(-86.045 -15.091)" fill="#263238" stroke="#263238" stroke-miterlimit="10" stroke-width="1"/><path d="M160.463,109.2c-.233-.743-2.219-4.515-8.564-6.124s-14.189,4.559-16.418,7.854-2.219,8.154-3.395,9.984-4.914,2.507-4.715,6.823,5.946,16.03,10.395,19.369,10.295.71,14.865-3.96a71.839,71.839,0,0,0,7.965-9.984s5.968.91,8.875-1.109,3.328-7.533,1.109-8.62S161,126.084,161,126.084l-1.6-.965,1.376-2.385s-5.181-5.7-4.437-7.4A57.688,57.688,0,0,1,160.463,109.2Z" transform="translate(-86.801 -18.887)" fill="#c9c9c9" stroke="#263238" stroke-linecap="round" stroke-linejoin="round" stroke-width="1"/><path d="M145.862,114.924s-.954-1.631,1.109-2.54,5.769,3.073,4.837,3.639S145.862,114.924,145.862,114.924Z" transform="translate(-84.803 -17.855)" fill="#263238"/><path d="M140.031,112.675s-.477-.921-2.219-.732-4.3,2.54-3.528,3.151,3.883-.366,5.269-.854S140.508,113.451,140.031,112.675Z" transform="translate(-86.06 -17.891)" fill="#263238"/><path d="M146.15,120.209a21.144,21.144,0,0,1,7.41.311" transform="translate(-84.747 -17.005)" fill="none" stroke="#263238" stroke-linecap="round" stroke-linejoin="round" stroke-width="1"/><path d="M148.509,118.305c0,.921-.488,1.675-1.109,1.675s-1.109-.754-1.109-1.675.488-1.675,1.109-1.675S148.509,117.384,148.509,118.305Z" transform="translate(-84.732 -17.376)" fill="#263238"/><path d="M139.849,118.005c0,.921-.488,1.675-1.109,1.675s-1.109-.754-1.109-1.675.488-1.675,1.109-1.675S139.849,117.073,139.849,118.005Z" transform="translate(-85.679 -17.409)" fill="#263238"/><path d="M143.051,116.79l-1,3.328s-6.856,3.006-7.022,4.171,4.681,3.006,7.022,3.184a3.949,3.949,0,0,0,3.506-2.219" transform="translate(-85.964 -17.358)" fill="#c9c9c9" stroke="#263238" stroke-linecap="round" stroke-linejoin="round" stroke-width="1"/><line x2="5.991" transform="translate(47.092 102.272)" fill="none" stroke="#263238" stroke-linecap="round" stroke-linejoin="round" stroke-width="1"/><path d="M155.24,144.038l6.3-11.892a2.474,2.474,0,0,0-1.265-3.328l-3.006-.888Z" transform="translate(-83.753 -16.14)" fill="#c9c9c9" stroke="#263238" stroke-linecap="round" stroke-linejoin="round" stroke-width="1"/><path d="M154.22,133.6l3.284-1.52-.765-2.019" transform="translate(-83.865 -15.907)" fill="none" stroke="#263238" stroke-linecap="round" stroke-linejoin="round" stroke-width="1"/><path d="M145.08,130.535s-6.368,1.952-10.04-1.475" transform="translate(-85.962 -16.016)" fill="none" stroke="#263238" stroke-linecap="round" stroke-linejoin="round" stroke-width="1"/><path d="M146.694,146.01c.765,2.518,4.3,7.078,4.3,7.078s9.463,13.767,16.64,23.7a47.7,47.7,0,0,0,13.212-10.1c-8.875-6.434-26.048-17.65-26.048-17.65l5.547-15.686a4.094,4.094,0,0,0-.943-4.227c-.81-.821-1.72-1.575-2.307-1.575-1.265,0-4.049,4.293-4.049,4.293l2.03,2.03S145.929,143.48,146.694,146.01Z" transform="translate(-84.692 -16.182)" fill="#c9c9c9" stroke="#263238" stroke-linecap="round" stroke-linejoin="round" stroke-width="1"/><path d="M154.22,133.586s3.716-.754,3.328-1.52-1.109-2.307-1.975-1.786" transform="translate(-83.865 -15.895)" fill="#c9c9c9" stroke="#263238" stroke-linecap="round" stroke-linejoin="round" stroke-width="1"/><circle cx="47.536" cy="47.536" r="47.536" transform="translate(3.959 83.019) rotate(-13.31)" fill="none" stroke="#263238" stroke-miterlimit="10" stroke-width="1"/><line x2="98.356" transform="translate(10.14 173.825)" fill="none" stroke="#263238" stroke-miterlimit="10" stroke-width="1"/><line x2="125.723" transform="translate(10.14 181.214)" fill="none" stroke="#263238" stroke-miterlimit="10" stroke-width="1"/><line x2="41.202" transform="translate(288.721 227.574)" fill="none" stroke="#263238" stroke-miterlimit="10" stroke-width="1"/><line x2="94.861" transform="translate(189.046 227.574)" fill="none" stroke="#263238" stroke-miterlimit="10" stroke-width="1"/><line x2="68.181" transform="translate(114.563 227.574)" fill="none" stroke="#263238" stroke-miterlimit="10" stroke-width="1"/><line x2="78.554" transform="translate(31.561 227.574)" fill="none" stroke="#263238" stroke-miterlimit="10" stroke-width="1"/><line x2="18.083" transform="translate(10.14 227.574)" fill="none" stroke="#263238" stroke-miterlimit="10" stroke-width="1"/><line x2="20.079" transform="translate(309.844 235.727)" fill="none" stroke="#263238" stroke-miterlimit="10" stroke-width="1"/><line x2="21.488" transform="translate(283.541 235.727)" fill="none" stroke="#263238" stroke-miterlimit="10" stroke-width="1"/><line x2="64.476" transform="translate(215.726 235.727)" fill="none" stroke="#263238" stroke-miterlimit="10" stroke-width="1"/><line x2="48.545" transform="translate(161.622 235.727)" fill="none" stroke="#263238" stroke-miterlimit="10" stroke-width="1"/><line x2="80.417" transform="translate(76.024 235.727)" fill="none" stroke="#263238" stroke-miterlimit="10" stroke-width="1"/><line x2="60.327" transform="translate(10.14 235.727)" fill="none" stroke="#263238" stroke-miterlimit="10" stroke-width="1"/><line x2="69.29" transform="translate(105.677 243.881)" fill="none" stroke="#263238" stroke-miterlimit="10" stroke-width="1"/><line x2="81.15" transform="translate(20.079 243.881)" fill="none" stroke="#263238" stroke-miterlimit="10" stroke-width="1"/><line x2="6.601" transform="translate(10.14 243.881)" fill="none" stroke="#263238" stroke-miterlimit="10" stroke-width="1"/><line x2="41.202" transform="translate(288.721 263.495)" fill="none" stroke="#263238" stroke-miterlimit="10" stroke-width="1"/><line x2="94.861" transform="translate(189.046 263.495)" fill="none" stroke="#263238" stroke-miterlimit="10" stroke-width="1"/><line x2="68.181" transform="translate(114.563 263.495)" fill="none" stroke="#263238" stroke-miterlimit="10" stroke-width="1"/><line x2="78.554" transform="translate(31.561 263.495)" fill="none" stroke="#263238" stroke-miterlimit="10" stroke-width="1"/><line x2="18.083" transform="translate(10.14 263.495)" fill="none" stroke="#263238" stroke-miterlimit="10" stroke-width="1"/><line x2="20.079" transform="translate(309.844 271.648)" fill="none" stroke="#263238" stroke-miterlimit="10" stroke-width="1"/><line x2="21.488" transform="translate(283.541 271.648)" fill="none" stroke="#263238" stroke-miterlimit="10" stroke-width="1"/><line x2="64.476" transform="translate(215.726 271.648)" fill="none" stroke="#263238" stroke-miterlimit="10" stroke-width="1"/><line x2="48.545" transform="translate(161.622 271.648)" fill="none" stroke="#263238" stroke-miterlimit="10" stroke-width="1"/><line x2="80.417" transform="translate(76.024 271.648)" fill="none" stroke="#263238" stroke-miterlimit="10" stroke-width="1"/><line x2="60.327" transform="translate(10.14 271.648)" fill="none" stroke="#263238" stroke-miterlimit="10" stroke-width="1"/><line x2="49.655" transform="translate(179.039 279.802)" fill="none" stroke="#263238" stroke-miterlimit="10" stroke-width="1"/><line x2="69.29" transform="translate(105.677 279.802)" fill="none" stroke="#263238" stroke-miterlimit="10" stroke-width="1"/><line x2="81.15" transform="translate(20.079 279.802)" fill="none" stroke="#263238" stroke-miterlimit="10" stroke-width="1"/><line x2="6.601" transform="translate(10.14 279.802)" fill="none" stroke="#263238" stroke-miterlimit="10" stroke-width="1"/><line x2="41.202" transform="translate(288.721 299.416)" fill="none" stroke="#263238" stroke-miterlimit="10" stroke-width="1"/><line x2="94.861" transform="translate(189.046 299.416)" fill="none" stroke="#263238" stroke-miterlimit="10" stroke-width="1"/><line x2="68.181" transform="translate(114.563 299.416)" fill="none" stroke="#263238" stroke-miterlimit="10" stroke-width="1"/><line x2="78.554" transform="translate(31.561 299.416)" fill="none" stroke="#263238" stroke-miterlimit="10" stroke-width="1"/><line x2="18.083" transform="translate(10.14 299.416)" fill="none" stroke="#263238" stroke-miterlimit="10" stroke-width="1"/><line x2="20.079" transform="translate(309.844 307.569)" fill="none" stroke="#263238" stroke-miterlimit="10" stroke-width="1"/><line x2="21.488" transform="translate(283.541 307.569)" fill="none" stroke="#263238" stroke-miterlimit="10" stroke-width="1"/><line x2="64.476" transform="translate(215.726 307.569)" fill="none" stroke="#263238" stroke-miterlimit="10" stroke-width="1"/><line x2="48.545" transform="translate(161.622 307.569)" fill="none" stroke="#263238" stroke-miterlimit="10" stroke-width="1"/><line x2="80.417" transform="translate(76.024 307.569)" fill="none" stroke="#263238" stroke-miterlimit="10" stroke-width="1"/><line x2="60.327" transform="translate(10.14 307.569)" fill="none" stroke="#263238" stroke-miterlimit="10" stroke-width="1"/><line x2="14.888" transform="translate(315.035 315.723)" fill="none" stroke="#263238" stroke-miterlimit="10" stroke-width="1"/><line x2="56.322" transform="translate(254.631 315.723)" fill="none" stroke="#263238" stroke-miterlimit="10" stroke-width="1"/><line x2="18.149" transform="translate(232.776 315.723)" fill="none" stroke="#263238" stroke-miterlimit="10" stroke-width="1"/><line x2="49.655" transform="translate(179.039 315.723)" fill="none" stroke="#263238" stroke-miterlimit="10" stroke-width="1"/><line x2="69.29" transform="translate(105.677 315.723)" fill="none" stroke="#263238" stroke-miterlimit="10" stroke-width="1"/><line x2="81.15" transform="translate(20.079 315.723)" fill="none" stroke="#263238" stroke-miterlimit="10" stroke-width="1"/><line x2="6.601" transform="translate(10.14 315.723)" fill="none" stroke="#263238" stroke-miterlimit="10" stroke-width="1"/><line x2="41.202" transform="translate(288.721 324.243)" fill="none" stroke="#263238" stroke-miterlimit="10" stroke-width="1"/><line x2="94.861" transform="translate(189.046 324.243)" fill="none" stroke="#263238" stroke-miterlimit="10" stroke-width="1"/><line x2="68.181" transform="translate(114.563 324.243)" fill="none" stroke="#263238" stroke-miterlimit="10" stroke-width="1"/><line x2="78.554" transform="translate(31.561 324.243)" fill="none" stroke="#263238" stroke-miterlimit="10" stroke-width="1"/><line x2="18.083" transform="translate(10.14 324.243)" fill="none" stroke="#263238" stroke-miterlimit="10" stroke-width="1"/><line x2="20.079" transform="translate(309.844 332.397)" fill="none" stroke="#263238" stroke-miterlimit="10" stroke-width="1"/><line x2="21.488" transform="translate(283.541 332.397)" fill="none" stroke="#263238" stroke-miterlimit="10" stroke-width="1"/><line x2="64.476" transform="translate(215.726 332.397)" fill="none" stroke="#263238" stroke-miterlimit="10" stroke-width="1"/><line x2="48.545" transform="translate(161.622 332.397)" fill="none" stroke="#263238" stroke-miterlimit="10" stroke-width="1"/><line x2="80.417" transform="translate(76.024 332.397)" fill="none" stroke="#263238" stroke-miterlimit="10" stroke-width="1"/><line x2="60.327" transform="translate(10.14 332.397)" fill="none" stroke="#263238" stroke-miterlimit="10" stroke-width="1"/><line x2="81.15" transform="translate(20.079 340.551)" fill="none" stroke="#263238" stroke-miterlimit="10" stroke-width="1"/><line x2="6.601" transform="translate(10.14 340.551)" fill="none" stroke="#263238" stroke-miterlimit="10" stroke-width="1"/><rect width="43.631" height="13.312" transform="translate(226.087 144.982)" fill="#fff" stroke="#263238" stroke-linecap="round" stroke-linejoin="round" stroke-width="1"/><rect width="43.631" height="13.312" transform="translate(278.604 144.982)" fill="#fff" stroke="#263238" stroke-linecap="round" stroke-linejoin="round" stroke-width="1"/><path d="M105.981,221.76l-.477,2.463H104.25l2.341-12.2h1.975l2.341,12.2h-1.387l-.477-2.463Zm.178-1.176h2.718L107.5,213.54Z" transform="translate(-89.329 -6.944)" fill="#263238"/><path d="M113.94,212c1.908,0,2.651.91,2.651,2.707v.621c0,1.3-.366,2.1-1.431,2.43,1.187.333,1.642,1.276,1.642,2.618v1.032a2.507,2.507,0,0,1-2.784,2.862H111.2V212Zm-.333,5.192c1.109,0,1.642-.355,1.642-1.631v-.71c0-1.109-.366-1.609-1.342-1.609h-1.342v3.949Zm.41,5.791c.987,0,1.442-.521,1.442-1.664v-1.109c0-1.365-.544-1.819-1.708-1.819h-1.187v4.559Z" transform="translate(-88.569 -6.946)" fill="#263238"/><path d="M117.27,214.963c0-1.864.932-3.073,2.8-3.073s2.807,1.209,2.807,3.073v6.323c0,1.842-.921,3.073-2.807,3.073s-2.8-1.231-2.8-3.073Zm1.353,6.39c0,1.109.466,1.764,1.442,1.764s1.453-.643,1.453-1.764V214.9c0-1.109-.455-1.764-1.453-1.764s-1.442.666-1.442,1.764Z" transform="translate(-87.905 -6.958)" fill="#263238"/><path d="M124.782,221.341c0,1.109.433,1.764,1.431,1.764s1.409-.666,1.409-1.764V212H128.9v9.274c0,1.842-.854,3.084-2.74,3.084s-2.718-1.242-2.718-3.084V212h1.342Z" transform="translate(-87.231 -6.946)" fill="#263238"/><path d="M131.379,224.2V213.22H129.16V212h5.846v1.242h-2.219V224.2Z" transform="translate(-86.605 -6.946)" fill="#263238"/><path d="M302.788,165.617c0,.566.222.9.721.9s.721-.333.721-.9V160.88h.655v4.7c0,.943-.444,1.575-1.4,1.575s-1.387-.632-1.387-1.575v-4.7h.688Z" transform="translate(-67.693 -12.537)" fill="#263238"/><path d="M305.831,167.081h-.621v-6.2h.887l1.431,4.437V160.88h.61v6.2h-.721l-1.586-4.959Z" transform="translate(-67.353 -12.537)" fill="#263238"/><path d="M310.62,163.764v.632h-1.431v2.685h-.7v-6.2h2.474v.621h-1.775v2.219Z" transform="translate(-66.994 -12.537)" fill="#263238"/><path d="M311.17,162.384c0-.954.466-1.564,1.42-1.564s1.42.61,1.42,1.564v3.206c0,.943-.466,1.564-1.42,1.564s-1.42-.621-1.42-1.564Zm.677,3.239c0,.577.244.9.743.9s.732-.322.732-.9V162.3c0-.555-.233-.887-.732-.887s-.743.333-.743.887Z" transform="translate(-66.701 -12.543)" fill="#263238"/><path d="M314.33,167.081v-6.2h.743v5.547h1.775v.632Z" transform="translate(-66.355 -12.537)" fill="#263238"/><path d="M317,167.081v-6.2h.7v5.547h1.764v.632Z" transform="translate(-66.063 -12.537)" fill="#263238"/><path d="M319.67,162.384c0-.954.466-1.564,1.42-1.564s1.431.61,1.431,1.564v3.206a1.365,1.365,0,0,1-1.431,1.564c-.954,0-1.42-.621-1.42-1.564Zm.688,3.239c0,.577.233.9.732.9s.732-.322.732-.9V162.3c0-.555-.222-.887-.732-.887s-.732.333-.732.887Z" transform="translate(-65.771 -12.543)" fill="#263238"/><path d="M324.5,167.081h-.954l-.854-6.2h.677l.732,5.281.688-5.281h.688l.677,5.292.7-5.292h.621l-.843,6.2h-.91l-.6-4.2Z" transform="translate(-65.441 -12.537)" fill="#263238"/><path d="M357.616,167.081h-.666l-1.032-4.948v4.948h-.6v-6.2h.965l1.021,4.959.987-4.959h.965v6.2H358.6v-4.959Z" transform="translate(-61.873 -12.537)" fill="#263238"/><path d="M359.47,162.384c0-.954.466-1.564,1.409-1.564a1.369,1.369,0,0,1,1.431,1.564v3.206c0,.943-.466,1.564-1.431,1.564s-1.409-.621-1.409-1.564Zm.677,3.239c0,.577.244.9.732.9s.743-.322.743-.9V162.3c0-.555-.233-.887-.743-.887s-.732.333-.732.887Z" transform="translate(-61.419 -12.543)" fill="#263238"/><path d="M364.006,160.88c.976,0,1.387.488,1.387,1.42v.5c0,.688-.244,1.109-.777,1.276.577.166.788.632.788,1.3v.965a1.587,1.587,0,0,0,.122.743h-.7a1.62,1.62,0,0,1-.122-.754v-.976c0-.7-.322-.921-.9-.921h-.488v2.651h-.688v-6.2Zm-.177,2.918c.555,0,.876-.178.876-.843v-.6c0-.555-.2-.854-.71-.854h-.677v2.3Z" transform="translate(-61.073 -12.537)" fill="#263238"/><path d="M367.988,163.619v.621h-1.52v2.219h1.864v.632H365.78v-6.2h2.552v.621h-1.864v2.119Z" transform="translate(-60.729 -12.536)" fill="#263238"/><path d="M369.326,165.7v.854h-.666V165.7Z" transform="translate(-60.414 -12.01)" fill="#263238"/><path d="M370.566,165.7v.854H369.9V165.7Z" transform="translate(-60.278 -12.01)" fill="#263238"/><path d="M371.806,165.7v.854h-.666V165.7Z" transform="translate(-60.143 -12.01)" fill="#263238"/><rect width="8.875" height="8.875" transform="translate(225.322 164.573)" fill="none" stroke="#263238" stroke-miterlimit="10" stroke-width="1"/><line x2="42.899" transform="translate(238.634 170.497)" fill="none" stroke="#263238" stroke-miterlimit="10" stroke-width="1"/><rect width="8.875" height="8.875" transform="translate(225.322 177.708)" fill="none" stroke="#263238" stroke-miterlimit="10" stroke-width="1"/><line x2="42.899" transform="translate(238.634 183.621)" fill="none" stroke="#263238" stroke-miterlimit="10" stroke-width="1"/><rect width="168.434" height="10.661" transform="translate(39.87 21.122)" fill="#fff" stroke="#263238" stroke-linecap="round" stroke-linejoin="round" stroke-width="1"/></g><g transform="translate(325.363 270.596)"><path d="M373.05,392.55l11.593,76.091a2.041,2.041,0,0,1-1.875,2.319h0a2.03,2.03,0,0,1-2.108-1.531L360.88,392.55Z" transform="translate(-287.152 -230.638)" fill="#fff" stroke="#263238" stroke-linecap="round" stroke-linejoin="round" stroke-width="1"/><path d="M377.687,396.28l-10.2,71.953a2.041,2.041,0,0,0,1.864,2.319h0a2.052,2.052,0,0,0,2.119-1.531l18.382-72.741Z" transform="translate(-286.431 -230.23)" fill="#fff" stroke="#263238" stroke-linecap="round" stroke-linejoin="round" stroke-width="1"/><path d="M333.567,396.28l-10.2,71.953a2.041,2.041,0,0,0,1.864,2.319h0a2.052,2.052,0,0,0,2.119-1.531l18.382-72.741Z" transform="translate(-291.256 -230.23)" fill="#fff" stroke="#263238" stroke-linecap="round" stroke-linejoin="round" stroke-width="1"/><path d="M420.51,392.55,432.1,468.641a2.041,2.041,0,0,1-1.875,2.319h0a2.03,2.03,0,0,1-2.108-1.531L408.34,392.55Z" transform="translate(-281.962 -230.638)" fill="#fff" stroke="#263238" stroke-linecap="round" stroke-linejoin="round" stroke-width="1"/><path d="M347.912,410.5s63.877,3.04,77.977-1.109,14.1-8.875,18.249-17.694,22.675-76.046,24.894-91.256-17.75-12.2-22.953-11.094-13,2.485-19.358,1.93-12.447-4.693-21.843-4.693S392.154,298.783,388,314.5s-13.823,33.736-19.636,37.607-47.281,5.258-53.637,12.447-3.872,18.249,3.04,28.755,14.1,16.041,19.636,16.64A99.674,99.674,0,0,0,347.912,410.5Z" transform="translate(-292.6 -242.227)" fill="#fff" stroke="#263238" stroke-linecap="round" stroke-linejoin="round" stroke-width="1"/><path d="M317.65,447.88s-8.875,5.547-14.1,8.875-9.13,4.149-9.13,6.079,2.219,2.762,4.981,3.04,28.488.277,33.458.277,6.09-1.653,6.656-3.328-.821-9.119-.821-9.119S322.354,451.2,317.65,447.88Z" transform="translate(-294.42 -224.587)" fill="#fff" stroke="#263238" stroke-linecap="round" stroke-linejoin="round" stroke-width="1"/><path d="M324.559,463.054c-12.48,1.109-25.127-.865-30.119-1.775a.4.4,0,0,0,0,.111c0,1.941,2.219,2.762,4.981,3.04s28.488.277,33.458.277,6.09-1.653,6.656-3.328a2.317,2.317,0,0,0,.1-.5A110.13,110.13,0,0,1,324.559,463.054Z" transform="translate(-294.418 -223.166)" fill="#fff" stroke="#263238" stroke-linecap="round" stroke-linejoin="round" stroke-width="1"/><path d="M360.755,351.764l-3.461-1.62-1.83,2.219s-11.193-18.5-20.146-23.6-19.968.2-19.525,8.753,16.474,39.671,16.474,39.671-25.426,10.983-25.626,14.233,11.992,64.7,11.992,64.7-3.661-.81-3.661,1.22a58.293,58.293,0,0,1-.61,6.1,28.043,28.043,0,0,0,9.363,5.491c5.491,1.83,13.634.41,13.634.41s.2-3.051.2-4.681-1.83-6.1-1.83-6.1l-.2-59s64.077-4.271,71-10.173,9.762-26.037,9.762-26.037A52.018,52.018,0,0,1,385.97,360.7c-15.664-6.512-21.965-10.572-21.965-10.572Z" transform="translate(-293.084 -237.831)" fill="#263238" stroke="#263238" stroke-linecap="round" stroke-linejoin="round" stroke-width="1"/><path d="M399.742,291.2s-19.325,4.681-22.786,5.491-5.292,1.22-5.491,3.262-15.875,27.057-18.515,30.918-6.3,7.122-4.071,9.984,3.051,7.122,6.1,7.122,6.922-4.892,6.922-4.892-7.122,9.984-5.691,12.613,15.254,12.414,31.528,15.054,22.575-.61,24.206-1.62S424.969,338.418,428.02,326s9.152-25.426,7.122-27.667-13.634-6.1-16.884-6.656-5.292-.821-5.292-.821Z" transform="translate(-288.54 -241.759)" fill="#279357" stroke="#263238" stroke-linecap="round" stroke-linejoin="round" stroke-width="1"/><path d="M360.393,341.044s3.162-7.111.266-11.094-8.165-3.151-12.1-.521-5.269,4.2-5,7.366S347.236,346,352.239,346,359.084,343.939,360.393,341.044Z" transform="translate(-289.05 -237.784)" fill="#fff" stroke="#263238" stroke-linecap="round" stroke-linejoin="round" stroke-width="1"/><path d="M360.55,341.3s7.322-18.3,9.984-23.385A43.265,43.265,0,0,0,374.2,307.13" transform="translate(-287.188 -239.98)" fill="none" stroke="#263238" stroke-linecap="round" stroke-linejoin="round" stroke-width="1"/><path d="M373.036,345.57c-3.051,2.352-8.043,5.9-7.155,8.209,1.01,2.651,2.219,5.092,2.219,5.092" transform="translate(-286.617 -235.776)" fill="none" stroke="#263238" stroke-linecap="round" stroke-linejoin="round" stroke-width="1"/><path d="M388.808,316.42c-2.041,5.136-4.293,10.883-4.515,11.859-.377,1.675-6.989,14.666-10.173,18.648" transform="translate(-285.704 -238.964)" fill="none" stroke="#263238" stroke-linecap="round" stroke-linejoin="round" stroke-width="1"/><path d="M390.648,308.78s-.91,2.219-2.108,5.214" transform="translate(-284.127 -239.799)" fill="none" stroke="#263238" stroke-linecap="round" stroke-linejoin="round" stroke-width="1"/><line x1="6.301" y1="15.265" transform="translate(126.866 71.211)" fill="none" stroke="#263238" stroke-linecap="round" stroke-linejoin="round" stroke-width="1"/><line x1="10.572" y1="10.372" transform="translate(122.595 78.743)" fill="none" stroke="#263238" stroke-linecap="round" stroke-linejoin="round" stroke-width="1"/><path d="M357.426,326.93S343.381,334.252,343,338.123s1.83,6.712,6.3,7.766,6.911-2.851,8.753-5.7,5.281-8.342,5.281-8.342Z" transform="translate(-289.111 -237.814)" fill="#fff" stroke="#263238" stroke-linecap="round" stroke-linejoin="round" stroke-width="1"/><path d="M391.3,294.551l-8.742,13.423,6.3-3.661,3.051,4.071,2.241-16.485Z" transform="translate(-284.781 -241.645)" fill="#fff" stroke="#263238" stroke-linecap="round" stroke-linejoin="round" stroke-width="1"/><path d="M375.773,264.511s-.41,16.075,1.83,22.387c2.119,5.968,6,19.1,14.422,11.593l.61,13.834,4.681-7.122,11.992-11.393-.821-11.593.211-12.2s.61-8.953-4.071-12.613-20.745.2-24.816,2.03S375.773,264.511,375.773,264.511Z" transform="translate(-285.527 -245.584)" fill="#fff" stroke="#263238" stroke-linecap="round" stroke-linejoin="round" stroke-width="1"/><path d="M381.661,277.79l-.211,10.162,3.872-.4" transform="translate(-284.903 -243.188)" fill="none" stroke="#263238" stroke-linecap="round" stroke-linejoin="round" stroke-width="1"/><path d="M382.92,288.639s3.461,3.461,8.143-2.219" transform="translate(-284.742 -242.244)" fill="none" stroke="#263238" stroke-linecap="round" stroke-linejoin="round" stroke-width="1"/><path d="M390.44,294.792l5.292-5.092-4.681,14.244Z" transform="translate(-283.919 -241.886)" fill="#263238" stroke="#263238" stroke-linecap="round" stroke-linejoin="round" stroke-width="1"/><path d="M388.79,277.62s3.25,2.851,5.9-.2" transform="translate(-284.1 -243.229)" fill="none" stroke="#263238" stroke-linecap="round" stroke-linejoin="round" stroke-width="1"/><path d="M377.42,277.6a2.762,2.762,0,0,0,3.661.41" transform="translate(-285.343 -243.209)" fill="none" stroke="#263238" stroke-linecap="round" stroke-linejoin="round" stroke-width="1"/><path d="M396.666,275.681a23.108,23.108,0,0,0-7.533-1.01c-3.861.2-3.861,3.861-3.051,5.491s3.25,3.051,6.911,2.64,4.071-4.681,4.071-4.681S397.675,276.291,396.666,275.681Z" transform="translate(-284.443 -243.53)" fill="none" stroke="#263238" stroke-linecap="round" stroke-linejoin="round" stroke-width="1"/><path d="M385.911,276.578s-2.219-1.631-4.271-.2" transform="translate(-284.882 -243.407)" fill="none" stroke="#263238" stroke-linecap="round" stroke-linejoin="round" stroke-width="1"/><path d="M382.461,275.5s-.61-1.22-4.437-1.021-4.271,2.041-3.661,3.661,2.219,6.512,7.766,3.872" transform="translate(-285.702 -243.552)" fill="none" stroke="#263238" stroke-linecap="round" stroke-linejoin="round" stroke-width="1"/><path d="M387,273.983s2.03-1.22,6.5,0" transform="translate(-284.296 -243.664)" fill="none" stroke="#263238" stroke-linecap="round" stroke-linejoin="round" stroke-width="1"/><path d="M381.962,274.01a7.344,7.344,0,0,0-5.092-.61" transform="translate(-285.403 -243.691)" fill="none" stroke="#263238" stroke-linecap="round" stroke-linejoin="round" stroke-width="1"/><line y1="4.271" x2="8.542" transform="translate(112.223 27.879)" fill="none" stroke="#263238" stroke-linecap="round" stroke-linejoin="round" stroke-width="1"/><path d="M372.409,259.08c-1.254,2.929-.765,5.658,3.594,7.266,7.766,2.851,10.783-.211,16.884-2.041s9.563-.61,6.911,2.041-1.83,5.547.61,5.9,0,6.911,2.041,6.1,3.861-3.461,5.891-3.051,2.219-.821,2.219-.821,6.312-11.393,4.437-18.1-14.133-11.548-24.117-9.152c-5.48,1.342-12.025,3.262-15.8,7.766A17.67,17.67,0,0,0,372.409,259.08Z" transform="translate(-285.957 -246.599)" fill="#263238" stroke="#263238" stroke-linecap="round" stroke-linejoin="round" stroke-width="1"/><path d="M402.015,276.206s-1.22-5.691,3.261-6.3,3.25,4.271,1.83,7.521a5.3,5.3,0,0,1-4.071,3.461" transform="translate(-282.67 -244.056)" fill="#fff" stroke="#263238" stroke-linecap="round" stroke-linejoin="round" stroke-width="1"/><path d="M409.424,287.14,393.56,302.8l4.881,7.732L413.3,292.021Z" transform="translate(-283.578 -242.166)" fill="#fff" stroke="#263238" stroke-linecap="round" stroke-linejoin="round" stroke-width="1"/><path d="M416.2,313.65l-4.371,36.731s-1.731,1.531,4.371,4.382,9.43,2.385,10.439.965,8.231-21.388,6.856-45.484c-.455-7.921.81-9.773-2.041-11.8s-9.762-2.64-9.762-2.64" transform="translate(-281.605 -241.219)" fill="#279357" stroke="#263238" stroke-linecap="round" stroke-linejoin="round" stroke-width="1"/><path d="M412.7,342.431s2.219-2.851,3.262-2.851,6.1,3.062,8.542,4.071,3.051,6.712,3.051,9.762-3.861,7.766-6.512,8.143-12.4-4.071-12.813-4.881S412.7,342.431,412.7,342.431Z" transform="translate(-281.976 -236.431)" fill="#fff" stroke="#263238" stroke-linecap="round" stroke-linejoin="round" stroke-width="1"/><path d="M375.876,337.577l-11.393-20.346-12-2.041,12,20.956Z" transform="translate(-288.071 -239.098)" fill="#263238" stroke="#263238" stroke-linecap="round" stroke-linejoin="round" stroke-width="1"/><path d="M357.414,323.334s-3.872,1.83-3.461,2.441a2.453,2.453,0,0,1,.4,1.22s6.312,7.122,7.333,8.342,3.661.41,5.281.211,1.631-3.872.821-5.292-6.312-4.881-6.922-5.092,0,1.431,0-1.22S357.414,323.334,357.414,323.334Z" transform="translate(-287.913 -238.29)" fill="#fff" stroke="#263238" stroke-linecap="round" stroke-linejoin="round" stroke-width="1"/><path d="M426.991,348.846a5.192,5.192,0,0,0-3.661-4.26c-7.632-2.219-27.734-8.342-32.049-10.306a88.561,88.561,0,0,1-9.984-5.547s-3.461-5.491-4.071-5.691-4.437,1.021-5.691,1.021a25.516,25.516,0,0,1-3.872-.61l3.261,3.661s-8.953-3.262-10.384-3.262-2.219,0-1.42,1.631,1.83,1.631,3.461,2.219a52.51,52.51,0,0,1,4.881,2.441s-6.1-1.021-7.533-1.22-3.25-.61-3.25.2,2.219,2.219,3.25,2.651,4.681,2.219,4.681,2.219-5.081-1.42-5.081-.61,1.42,2.441,2.84,3.051a66.269,66.269,0,0,1,6.512,3.872c1.22.81,10.983.4,10.983.4s16.274,7.333,23.607,11.393,15.864,8.553,18.3,8.553,4.881-4.071,5.292-7.766A17.66,17.66,0,0,0,426.991,348.846Z" transform="translate(-287.611 -238.242)" fill="#fff" stroke="#263238" stroke-linecap="round" stroke-linejoin="round" stroke-width="1"/><line x2="6.922" y2="1.83" transform="translate(74.782 98.268)" fill="none" stroke="#263238" stroke-linecap="round" stroke-linejoin="round" stroke-width="1"/><line x2="4.67" y2="1.22" transform="translate(83.335 88.916)" fill="none" stroke="#263238" stroke-linecap="round" stroke-linejoin="round" stroke-width="1"/><path d="M334.119,337.107s9.563,33.769,12.2,40.68,3.45,12.2,4.67,12.824,1.83.4,1.83,2.219-1.22,4.071-1.22,4.681,1.021,4.681,1.021,4.681-6.1.61-15.054-2.219-11.593-3.661-12-5.292-2.441-2.84-.81-4.271-1.021-3.45-2.041-7.322-8.941-25.848-10.162-34.8-.555-16.884,3.883-20.745,9.563-2.219,11.792-1.631a27.646,27.646,0,0,1,5.7,2.851" transform="translate(-292.496 -238.019)" fill="#263238" stroke="#263238" stroke-linecap="round" stroke-linejoin="round" stroke-width="1"/><path d="M367.72,362.448c1.021-.2,1.975-.366,2.829-.488" transform="translate(-286.404 -233.983)" fill="none" stroke="#6b6b6b" stroke-linecap="round" stroke-linejoin="round" stroke-width="1"/><path d="M341.84,370.193s15.143-4.815,25.826-7.233" transform="translate(-289.234 -233.874)" fill="none" stroke="#6b6b6b" stroke-linecap="round" stroke-linejoin="round" stroke-width="1"/><path d="M355.471,366.984s-3.661-10.162-4.271-13.834" transform="translate(-288.211 -234.947)" fill="none" stroke="#6b6b6b" stroke-linecap="round" stroke-linejoin="round" stroke-width="1"/><line x1="0.71" y1="3.827" transform="translate(46.194 102.716)" fill="none" stroke="#6b6b6b" stroke-linecap="round" stroke-linejoin="round" stroke-width="1"/><line x1="6.745" y1="36.209" transform="translate(47.503 109.75)" fill="none" stroke="#6b6b6b" stroke-linecap="round" stroke-linejoin="round" stroke-width="1"/><path d="M344.432,392.271l-4.881-4.881c-2.851-2.84-8.953-.4-10.372,1.021s.2,1.83-5.491,1.83-12.2.2-12.824,2.441,1.021,5.092,5.491,8.143,14.655,6.1,20.556,6.1,16.274,0,16.64-4.437.211-9.152-1.62-9.552a71.17,71.17,0,0,0-7.5-.666Z" transform="translate(-292.636 -231.346)" fill="#fff" stroke="#263238" stroke-linecap="round" stroke-linejoin="round" stroke-width="1"/><path d="M353.583,402c0-.477.089-.965.111-1.453a53.547,53.547,0,0,1-10.894-2.607c-5.491-2.041-15.453-7.333-24-7.766a15.065,15.065,0,0,0-7.089,1.032,1.786,1.786,0,0,0-.854,1c-.61,2.219,1.021,5.092,5.491,8.143s14.655,6.1,20.556,6.1S353.184,406.484,353.583,402Z" transform="translate(-292.635 -230.905)" fill="#fff" stroke="#263238" stroke-linecap="round" stroke-linejoin="round" stroke-width="1"/><path d="M310.83,393.78c.422,1.886,2.219,4.049,5.547,6.334,4.437,3.051,14.655,6.1,20.556,6.1,5.358,0,14.422,0,16.319-3.328a44.659,44.659,0,0,1-8.387-2.141c-5.547-2.041-15.664-7.766-26.247-8.143C313.87,392.4,311.74,393.047,310.83,393.78Z" transform="translate(-292.625 -230.636)" fill="#fff" stroke="#263238" stroke-linecap="round" stroke-linejoin="round" stroke-width="1"/><path d="M376.17,410.654c17.273.2,35.766-.122,42.6-2.13,14.1-4.149,14.1-8.875,18.249-17.694s22.675-76.046,24.894-91.256a12.325,12.325,0,0,0-.211-5.114c-.821,1.109-1.764,6.035-3.117,10.65-1.93,6.656-7.189,24.606-7.189,24.606s-8.287,27.1-19.358,34.568-28.755.555-35.111,3.328-20.745,42.821-20.745,42.821Z" transform="translate(-285.48 -241.365)" fill="#fff" stroke="#263238" stroke-linecap="round" stroke-linejoin="round" stroke-width="1"/><path d="M379.67,405.733s12.724-34.013,18.526-37.607,19.081,2.762,28.766-1.387,18.526-15.764,22.4-29.309" transform="translate(-285.097 -236.666)" fill="none" stroke="#263238" stroke-linecap="round" stroke-linejoin="round" stroke-width="1"/></g><g transform="translate(34.301 509.808)"><line x2="25.127" transform="translate(471.244)" fill="none" stroke="#263238" stroke-miterlimit="10" stroke-width="1"/><line x2="349.259" transform="translate(113.62)" fill="none" stroke="#263238" stroke-miterlimit="10" stroke-width="1"/><line x2="106.443" fill="none" stroke="#263238" stroke-miterlimit="10" stroke-width="1"/></g></g></svg>