<svg xmlns="http://www.w3.org/2000/svg" width="112.272" height="121.846" viewBox="0 0 112.272 121.846"><g transform="translate(-20.116)"><path d="M231.448,30.363h-1.235a34.461,34.461,0,0,0-3.047-7.35l.878-.878a5.344,5.344,0,0,0,0-7.542L222.194,8.75a5.332,5.332,0,0,0-7.546,0l-.877.877a34.338,34.338,0,0,0-7.351-3.052V5.334A5.34,5.34,0,0,0,201.086,0h-8.27a5.341,5.341,0,0,0-5.334,5.334V6.569a34.438,34.438,0,0,0-7.357,3.053l-.873-.873a5.332,5.332,0,0,0-7.546,0l-5.848,5.848a5.344,5.344,0,0,0,0,7.541l.878.878a34.29,34.29,0,0,0-3.048,7.351h-1.24a5.341,5.341,0,0,0-5.334,5.334v8.277a5.341,5.341,0,0,0,5.334,5.334h1.24a34.3,34.3,0,0,0,3.048,7.351l-.878.878a5.344,5.344,0,0,0,0,7.541l5.844,5.844a5.284,5.284,0,0,0,3.775,1.567h0a5.282,5.282,0,0,0,3.771-1.562l.878-.878a34.269,34.269,0,0,0,7.357,3.049v1.239a5.341,5.341,0,0,0,5.334,5.334h8.27a5.341,5.341,0,0,0,5.334-5.334V73.1a34.16,34.16,0,0,0,7.351-3.048l.872.872a5.332,5.332,0,0,0,7.545.006l5.856-5.85a5.344,5.344,0,0,0,0-7.541l-.878-.878a34.473,34.473,0,0,0,3.047-7.35h1.235a5.341,5.341,0,0,0,5.334-5.334V35.7a5.34,5.34,0,0,0-5.334-5.334ZM201.661,74.338a.583.583,0,0,1-.575.575h-8.27a.583.583,0,0,1-.575-.575V56.246a2.38,2.38,0,0,0-1.552-2.231,16.3,16.3,0,0,1-3.527-28.8c.2-.138.379-.25.535-.342-.009.309-.03.6-.042.757-.018.242-.032.432-.032.621V37.478a9.847,9.847,0,0,0,9.17,9.8,2.4,2.4,0,0,0,.315,0,9.843,9.843,0,0,0,9.164-9.8V26.247c0-.188-.014-.378-.032-.618-.011-.154-.033-.45-.042-.761.155.092.332.2.533.341a16.3,16.3,0,0,1-3.519,28.805,2.38,2.38,0,0,0-1.552,2.231V74.338Zm30.362-30.363a.59.59,0,0,1-.575.575h-3.083a2.38,2.38,0,0,0-2.321,1.854,29.763,29.763,0,0,1-3.88,9.359,2.38,2.38,0,0,0,.329,2.954L224.68,60.9a.584.584,0,0,1,0,.809l-5.861,5.855a.572.572,0,0,1-.805-.005l-2.186-2.186a2.38,2.38,0,0,0-2.957-.327,29.525,29.525,0,0,1-6.451,3.063V57.828a21.057,21.057,0,0,0,3-36.549c-.886-.606-3.581-2.448-5.938-1.092-2.315,1.333-2.084,4.457-1.986,5.791.009.116.017.213.019.268V37.478a4.587,4.587,0,1,1-9.13,0V26.264c0-.072.011-.169.019-.285.1-1.333.332-4.456-1.981-5.789-2.356-1.359-5.055.484-5.943,1.09a21.055,21.055,0,0,0,3,36.55V68.112a29.681,29.681,0,0,1-6.46-3.065,2.38,2.38,0,0,0-2.954.329l-2.19,2.191a.572.572,0,0,1-.805,0l-5.849-5.849a.584.584,0,0,1,0-.81l2.186-2.186a2.38,2.38,0,0,0,.329-2.954,29.611,29.611,0,0,1-3.879-9.355,2.38,2.38,0,0,0-2.322-1.859h-3.089a.59.59,0,0,1-.575-.575V35.7a.583.583,0,0,1,.575-.575h3.089a2.38,2.38,0,0,0,2.322-1.859,29.6,29.6,0,0,1,3.879-9.355,2.38,2.38,0,0,0-.329-2.954l-2.186-2.186a.585.585,0,0,1,0-.81l5.853-5.854a.572.572,0,0,1,.805,0l2.186,2.186a2.38,2.38,0,0,0,2.954.329,29.747,29.747,0,0,1,9.365-3.886,2.38,2.38,0,0,0,1.855-2.321V5.334a.583.583,0,0,1,.575-.575h8.27a.583.583,0,0,1,.575.575V8.417a2.38,2.38,0,0,0,1.855,2.321,29.628,29.628,0,0,1,9.356,3.885,2.38,2.38,0,0,0,2.957-.327l2.191-2.191a.572.572,0,0,1,.806.006l5.855,5.848a.585.585,0,0,1,0,.81l-2.186,2.186a2.38,2.38,0,0,0-.329,2.954,29.768,29.768,0,0,1,3.88,9.359,2.38,2.38,0,0,0,2.321,1.854h3.083a.583.583,0,0,1,.575.575v8.277Z" transform="translate(-104.394)" fill="#279357"/><path d="M380.554,438.085a2.38,2.38,0,1,0,3.365,3.366l.007-.007a2.38,2.38,0,0,0-3.372-3.359Z" transform="translate(-274.131 -333.299)" fill="#279357"/><path d="M117.447,334.918l-18.893,9.7a8.774,8.774,0,0,0-6.328-2.693H79.281a3.568,3.568,0,0,1-.914-.062,6.973,6.973,0,0,1-.7-.617l-.118-.111c-10.473-9.859-19.32-9.234-29.38-5.264a6.847,6.847,0,0,1-3.294.714l-2.927,0a6.329,6.329,0,0,0-6-4.336H26.429a6.323,6.323,0,0,0-6.313,6.319v24.98a6.32,6.32,0,0,0,6.313,6.313h9.518a6.329,6.329,0,0,0,6-4.331H47.3a2.533,2.533,0,0,1,1.023.155c.2.056.443.125.757.209l24.629,6.589c1.086.293,2.081.582,3.044.861a31.039,31.039,0,0,0,8.573,1.683c3.125,0,6.392-.982,10.689-3.846l.062-.043,4.7-3.353a2.38,2.38,0,0,0-2.763-3.875l-4.671,3.331c-6.236,4.148-8.884,3.381-15.267,1.531-.983-.285-2-.579-3.133-.886L50.314,361.3c-.288-.078-.515-.141-.7-.194a6.629,6.629,0,0,0-2.314-.333H42.266V341.351h2.572l.1,0,.136-.006a11.155,11.155,0,0,0,4.838-1.042c8.836-3.487,15.656-3.9,24.373,4.3l.118.111a5.762,5.762,0,0,0,4.876,1.97H92.226a4.044,4.044,0,0,1,3.535,2.086c.007.014.016.027.024.041a4.035,4.035,0,0,1-3.558,5.952H71.247a2.38,2.38,0,1,0,0,4.759H92.227a8.79,8.79,0,0,0,8.588-10.714l18.807-9.658a3.829,3.829,0,1,1,4.056,6.488l-8.25,5.876a2.38,2.38,0,1,0,2.761,3.877l8.251-5.876a8.575,8.575,0,0,0-8.992-14.6ZM37.506,363.553a1.577,1.577,0,0,1-1.56,1.553H26.429a1.574,1.574,0,0,1-1.553-1.553v-24.98a1.558,1.558,0,0,1,1.553-1.56h9.518a1.581,1.581,0,0,1,1.56,1.56Z" transform="translate(0 -253.185)" fill="#279357"/></g></svg>