<svg xmlns="http://www.w3.org/2000/svg" width="139.597" height="146.944" viewBox="0 0 139.597 146.944"><g transform="translate(-343.204 -4522)"><g transform="translate(0 19.471)"><g transform="translate(343.204 4502.529)"><g transform="translate(-0.002)"><path d="M45.373,127.584a7.288,7.288,0,0,0-1.057-3.873,8.168,8.168,0,0,0-10.97-2.9,20.094,20.094,0,0,1-26.435-6.97l-4.494-7.679A19.109,19.109,0,0,1,9.554,80.345a8.1,8.1,0,0,0,2.908-2.84,7.663,7.663,0,0,0,1.31-6.242,7.832,7.832,0,0,0-3.887-5.117A19.109,19.109,0,0,1,2.748,40.333a5.76,5.76,0,0,1,3.668-2.4,5.865,5.865,0,0,1,4.328.849A5.471,5.471,0,0,1,12.4,46.271,7.71,7.71,0,0,0,15.37,56.919a19.005,19.005,0,0,1-.265,32.848,7.711,7.711,0,0,0-2.974,10.648l4.56,7.68a7.839,7.839,0,0,0,4.865,3.7,8.03,8.03,0,0,0,6.106-.864A19.867,19.867,0,0,1,57.2,127.778a7.971,7.971,0,0,0,8.062,7.808l-.066.129a5.776,5.776,0,0,1,4.979,2.807,5.5,5.5,0,0,1,0,5.615,5.776,5.776,0,0,1-4.979,2.807A19.6,19.6,0,0,1,45.373,127.584Zm36.942.581A19.292,19.292,0,0,1,92.2,111.805a20.242,20.242,0,0,1,19.453-.226,8.026,8.026,0,0,0,6.08.839,8.238,8.238,0,0,0,4.891-3.678l4.494-7.68a7.588,7.588,0,0,0,.824-5.918,7.769,7.769,0,0,0-3.732-4.73,18.889,18.889,0,0,1-7.2-7.68,19.109,19.109,0,0,1,7.137-25.814,5.96,5.96,0,0,1,7.8,2.129,5.541,5.541,0,0,1-1.982,7.68,8.113,8.113,0,0,0-2.908,2.84,7.646,7.646,0,0,0-.83,5.947,7.831,7.831,0,0,0,3.738,4.765,19.106,19.106,0,0,1,6.872,26.459l-4.494,7.68a20.093,20.093,0,0,1-26.434,6.97,8.094,8.094,0,0,0-8.062-.078,7.709,7.709,0,0,0-3.965,6.854,5.832,5.832,0,0,1-11.565,0Zm40.312-89.38a8.171,8.171,0,0,0-10.97-2.839,20.24,20.24,0,0,1-19.425-.209,19.294,19.294,0,0,1-9.917-16.312,7.709,7.709,0,0,0-2.246-5.689,8.093,8.093,0,0,0-5.75-2.378H65.264a8.155,8.155,0,0,0-5.772,2.374A7.773,7.773,0,0,0,57.2,19.425a18.97,18.97,0,0,1-9.871,16.389,19.9,19.9,0,0,1-19.471-.126l-.265-.258a5.547,5.547,0,0,1-1.85-7.745,5.841,5.841,0,0,1,7.931-1.807,8.4,8.4,0,0,0,3.965,1.1,8.174,8.174,0,0,0,5.8-2.075,7.8,7.8,0,0,0,2.594-5.475A19.578,19.578,0,0,1,65.264,0h9.054A19.6,19.6,0,0,1,94.144,19.36,7.3,7.3,0,0,0,95.2,23.233a7.973,7.973,0,0,0,4.865,3.686,8.161,8.161,0,0,0,6.1-.783,20.094,20.094,0,0,1,26.435,6.97,5.669,5.669,0,0,1-2.115,7.68,5.9,5.9,0,0,1-7.864-2Z" fill="#1a495e"/></g></g><path d="M7.317,47.712H23.7a92.353,92.353,0,0,1,0-21.1H7.317a31.8,31.8,0,0,0,0,21.1Zm1.489,3.516a31.707,31.707,0,0,0,21.423,16.82c-2.74-3.729-4.838-9.657-6.028-16.82Zm58.2-3.516a31.8,31.8,0,0,0,0-21.1H50.624a89.909,89.909,0,0,1,.6,10.549,89.907,89.907,0,0,1-.6,10.549Zm-1.489,3.516h-15.4c-1.19,7.163-3.288,13.091-6.028,16.82a31.707,31.707,0,0,0,21.423-16.82ZM27.263,47.712h19.8a84.567,84.567,0,0,0,.648-10.549,84.567,84.567,0,0,0-.648-10.549h-19.8a86.135,86.135,0,0,0,0,21.1Zm.529,3.516c1.836,10.436,5.567,17.582,9.371,17.582s7.535-7.146,9.371-17.582ZM8.806,23.1H24.2c1.19-7.163,3.288-13.09,6.028-16.82A31.706,31.706,0,0,0,8.806,23.1Zm56.715,0A31.707,31.707,0,0,0,44.1,6.278c2.74,3.729,4.838,9.656,6.028,16.82Zm-37.729,0H46.534C44.7,12.662,40.968,5.516,37.163,5.516S29.628,12.662,27.792,23.1Zm9.371,49.229A35.163,35.163,0,1,1,72.327,37.163,35.163,35.163,0,0,1,37.163,72.327Z" transform="translate(375.837 4538.837)" fill="#279357"/></g></g></svg>